<svg xmlns="http://www.w3.org/2000/svg" xmlns:xlink="http://www.w3.org/1999/xlink" viewBox="0 0 1524.93 1545.61"><defs><style>.cls-1{fill:url(#Degradado_sin_nombre_6);}.cls-2{fill:url(#Degradado_sin_nombre_5);}.cls-3{fill:url(#Degradado_sin_nombre_5-2);}.cls-4{fill:url(#Degradado_sin_nombre_5-3);}.cls-5{fill:url(#Degradado_sin_nombre_5-4);}.cls-6{fill:url(#Degradado_sin_nombre_5-5);}.cls-7{fill:url(#Degradado_sin_nombre_5-6);}.cls-8{fill:url(#Degradado_sin_nombre_5-7);}.cls-9{fill:url(#Degradado_sin_nombre_5-8);}.cls-10{fill:url(#Degradado_sin_nombre_5-9);}.cls-11{fill:url(#Degradado_sin_nombre_5-10);}.cls-12{fill:url(#Degradado_sin_nombre_5-11);}.cls-13{fill:#691924;}.cls-14{fill:#dc6316;}.cls-15{fill:#010000;}.cls-16{fill:#e6e6e6;}.cls-17{fill:#d0d0d0;}.cls-18{fill:#d5d5d5;}.cls-19{fill:#e0e0e0;}.cls-20{fill:#ececec;}.cls-21{fill:#f9f9f9;}.cls-22{fill:#f5f5f5;}.cls-23{fill:#f0f0f0;}.cls-24{fill:#fefefe;}.cls-25{fill:#d9d9d9;}.cls-26{fill:#f4f4f4;}.cls-27{fill:#dadada;}.cls-28{fill:#e1e1e1;}.cls-29{fill:url(#Degradado_sin_nombre_33);}.cls-30{fill:#d3d3d3;}.cls-31{fill:#f2f2f2;}.cls-32{fill:#ededed;}.cls-33{fill:#cdcdcd;}.cls-34{fill:#e2e2e2;}.cls-35{fill:#dcdcdc;}.cls-36{fill:#cfcfcf;}.cls-37{fill:#d6d6d6;}.cls-38{fill:#dfdfdf;}.cls-39{fill:#cbcbcb;}.cls-40{fill:#ccc;}.cls-41{fill:#ebebeb;}.cls-42{fill:#f3f3f3;}.cls-43{fill:#f6f6f6;}.cls-44{fill:#e5e5e5;}.cls-45{fill:#e8e8e8;}.cls-46{fill:#ddd;}.cls-47{fill:#d2d2d2;}.cls-48{fill:#dbdbdb;}.cls-49{fill:#e3e3e3;}.cls-50{fill:#f7f7f7;}.cls-51{fill:#d8d8d8;}.cls-52{fill:#dedede;}.cls-53{fill:#d4d4d4;}.cls-54{fill:#c7c7c7;}.cls-55{fill:#e7e7e7;}.cls-56{fill:#c9c9c9;}.cls-57{fill:#c2c2c2;}.cls-58{fill:#bbb;}.cls-59{fill:#e7e6e6;}.cls-60{fill:url(#Degradado_sin_nombre_29);}.cls-61{fill:#fe7c7c;}.cls-62{fill:url(#Degradado_sin_nombre_29-2);}.cls-63{fill:url(#Degradado_sin_nombre_26);}.cls-64{fill:url(#Degradado_sin_nombre_26-2);}.cls-65{fill:url(#Degradado_sin_nombre_26-3);}.cls-66{fill:url(#Degradado_sin_nombre_29-3);}.cls-67{fill:#f55;}.cls-68{fill:#f0eeee;}.cls-69{fill:url(#Degradado_sin_nombre_29-4);}.cls-70{fill:url(#Degradado_sin_nombre_29-5);}.cls-71{fill:#c8090c;}.cls-72{fill:#b80b0f;}.cls-73{fill:url(#Degradado_sin_nombre_6-2);}.cls-74{fill:#7a1620;}.cls-75{fill:#010101;}.cls-76{fill:url(#Degradado_sin_nombre_19);}.cls-77{fill:#fadc20;}.cls-78{fill:#fdfdfd;}.cls-79{fill:url(#Degradado_sin_nombre_13);}.cls-80{fill:#f7c204;}.cls-81{fill:#cf080b;}.cls-82{fill:#e1e1e0;}.cls-83{fill:#d6d5d5;}.cls-84{fill:url(#Degradado_sin_nombre_23);}.cls-85{fill:#c50a0d;}.cls-86{fill:#d7070a;}.cls-87{fill:#060505;}.cls-88{fill:#fc2222;}.cls-89{fill:#edecec;}.cls-90{fill:#f3f2f1;}.cls-91{fill:url(#Degradado_sin_nombre_22);}.cls-92{fill:#f9f7f5;}.cls-93{fill:#f07800;}.cls-94{fill:#f4f3f2;}.cls-95{fill:#d94f05;}.cls-96{fill:#f5ae07;}.cls-97{fill:url(#Degradado_sin_nombre_34);}.cls-98{fill:#020202;}.cls-99{fill:#cdcccd;}.cls-100{fill:#cbc9c9;}.cls-101{fill:#b00d12;}.cls-102{fill:#ab0e13;}.cls-103{fill:#bb0b0f;}.cls-104{fill:#b60c10;}.cls-105{fill:#c5090d;}.cls-106{fill:#fc0101;}.cls-107{fill:#fd0808;}.cls-108{fill:#fb1414;}.cls-109{fill:#cb0a0d;}.cls-110{fill:#ba0b0e;}.cls-111{fill:#fd2d2c;}.cls-112{fill:#d6080b;}.cls-113{fill:#fc3c36;}.cls-114{fill:#b40b0f;}.cls-115{fill:#f82525;}.cls-116{fill:#fb3a3a;}.cls-117{fill:#f74545;}.cls-118{fill:#fb1211;}.cls-119{fill:#7b1820;}.cls-120{fill:url(#Degradado_sin_nombre_34-2);}.cls-121{fill:#fafafa;}.cls-122{fill:url(#Degradado_sin_nombre_5-12);}.cls-123{fill:url(#Degradado_sin_nombre_5-13);}</style><linearGradient id="Degradado_sin_nombre_6" x1="663.82" y1="243.01" x2="759.98" y2="44.33" gradientUnits="userSpaceOnUse"><stop offset="0" stop-color="#fe0c0b"/><stop offset="0.22" stop-color="#fe1a19"/><stop offset="0.63" stop-color="#ff3f3f"/><stop offset="0.9" stop-color="#ff5a5a"/></linearGradient><linearGradient id="Degradado_sin_nombre_5" x1="664.09" y1="36.77" x2="663.27" y2="34.16" gradientUnits="userSpaceOnUse"><stop offset="0" stop-color="#fe0c0b"/><stop offset="0.24" stop-color="#fe1a19"/><stop offset="0.71" stop-color="#ff3f3f"/><stop offset="1" stop-color="#ff5a5a"/></linearGradient><linearGradient id="Degradado_sin_nombre_5-2" x1="773.16" y1="62.65" x2="765.72" y2="39" xlink:href="#Degradado_sin_nombre_5"/><linearGradient id="Degradado_sin_nombre_5-3" x1="811.7" y1="210.52" x2="803.16" y2="183.39" xlink:href="#Degradado_sin_nombre_5"/><linearGradient id="Degradado_sin_nombre_5-4" x1="814.79" y1="97.38" x2="814.39" y2="96.11" xlink:href="#Degradado_sin_nombre_5"/><linearGradient id="Degradado_sin_nombre_5-5" x1="819.02" y1="114.11" x2="818.91" y2="113.76" xlink:href="#Degradado_sin_nombre_5"/><linearGradient id="Degradado_sin_nombre_5-6" x1="820.9" y1="159.94" x2="818.12" y2="151.1" xlink:href="#Degradado_sin_nombre_5"/><linearGradient id="Degradado_sin_nombre_5-7" x1="823.12" y1="142.26" x2="819.91" y2="132.09" xlink:href="#Degradado_sin_nombre_5"/><linearGradient id="Degradado_sin_nombre_5-8" x1="678.77" y1="242.27" x2="695.24" y2="234.02" xlink:href="#Degradado_sin_nombre_5"/><linearGradient id="Degradado_sin_nombre_5-9" x1="727.54" y1="243.96" x2="769.5" y2="222.94" xlink:href="#Degradado_sin_nombre_5"/><linearGradient id="Degradado_sin_nombre_5-10" x1="487.75" y1="224.49" x2="787.57" y2="74.31" xlink:href="#Degradado_sin_nombre_5"/><linearGradient id="Degradado_sin_nombre_5-11" x1="788.86" y1="209.61" x2="794.78" y2="206.64" xlink:href="#Degradado_sin_nombre_5"/><linearGradient id="Degradado_sin_nombre_33" x1="810.67" y1="946.28" x2="653.16" y2="1619.08" gradientUnits="userSpaceOnUse"><stop offset="0" stop-color="#d6d6d6"/><stop offset="0.09" stop-color="#dbdbdb"/><stop offset="0.2" stop-color="#e9e9e9"/><stop offset="0.31" stop-color="#fff"/></linearGradient><linearGradient id="Degradado_sin_nombre_29" x1="466.7" y1="711.83" x2="663.23" y2="846.58" gradientUnits="userSpaceOnUse"><stop offset="0" stop-color="#fe0000"/><stop offset="0.21" stop-color="#fe0505"/><stop offset="0.46" stop-color="#fe1313"/><stop offset="0.73" stop-color="#ff2b2a"/><stop offset="0.94" stop-color="#ff4342"/></linearGradient><linearGradient id="Degradado_sin_nombre_29-2" x1="979.38" y1="779.32" x2="879.71" y2="825.62" xlink:href="#Degradado_sin_nombre_29"/><linearGradient id="Degradado_sin_nombre_26" x1="953.8" y1="814.05" x2="1007.58" y2="814.05" gradientUnits="userSpaceOnUse"><stop offset="0" stop-color="#ba0b10"/><stop offset="0.29" stop-color="#bf0d13"/><stop offset="0.62" stop-color="#cd141c"/><stop offset="0.99" stop-color="#e5202a"/></linearGradient><linearGradient id="Degradado_sin_nombre_26-2" x1="491.35" y1="810.96" x2="764.65" y2="810.96" xlink:href="#Degradado_sin_nombre_26"/><linearGradient id="Degradado_sin_nombre_26-3" x1="774.3" y1="1047.32" x2="767.95" y2="945.58" xlink:href="#Degradado_sin_nombre_26"/><linearGradient id="Degradado_sin_nombre_29-3" x1="868.17" y1="1030.37" x2="982.83" y2="1030.37" xlink:href="#Degradado_sin_nombre_29"/><linearGradient id="Degradado_sin_nombre_29-4" x1="761.06" y1="1146.83" x2="850.71" y2="920.23" xlink:href="#Degradado_sin_nombre_29"/><linearGradient id="Degradado_sin_nombre_29-5" x1="782.25" y1="849.66" x2="863.46" y2="849.66" xlink:href="#Degradado_sin_nombre_29"/><linearGradient id="Degradado_sin_nombre_6-2" x1="474.53" y1="145.29" x2="579.56" y2="145.29" xlink:href="#Degradado_sin_nombre_6"/><radialGradient id="Degradado_sin_nombre_19" cx="820.05" cy="423.17" r="287.55" gradientUnits="userSpaceOnUse"><stop offset="0" stop-color="#fee823"/><stop offset="0.12" stop-color="#fee323"/><stop offset="0.26" stop-color="#fcd521"/><stop offset="0.41" stop-color="#fabd1f"/><stop offset="0.56" stop-color="#f89f1d"/><stop offset="0.99" stop-color="#fdee21"/></radialGradient><linearGradient id="Degradado_sin_nombre_13" x1="798.81" y1="422.76" x2="984.28" y2="497.18" gradientUnits="userSpaceOnUse"><stop offset="0" stop-color="#fee823"/><stop offset="0.18" stop-color="#fee323"/><stop offset="0.39" stop-color="#fcd521"/><stop offset="0.61" stop-color="#fabd1f"/><stop offset="0.83" stop-color="#f89f1d"/></linearGradient><linearGradient id="Degradado_sin_nombre_23" x1="674.69" y1="608.1" x2="904.08" y2="608.1" gradientUnits="userSpaceOnUse"><stop offset="0" stop-color="#fee823"/><stop offset="0.21" stop-color="#fee322"/><stop offset="0.46" stop-color="#fcd521"/><stop offset="0.73" stop-color="#fabd1e"/><stop offset="0.99" stop-color="#f8a01b"/></linearGradient><linearGradient id="Degradado_sin_nombre_22" x1="738.42" y1="650.02" x2="628.79" y2="515.06" gradientUnits="userSpaceOnUse"><stop offset="0" stop-color="#fee823"/><stop offset="0.13" stop-color="#fee323"/><stop offset="0.29" stop-color="#fcd521"/><stop offset="0.46" stop-color="#fabd1f"/><stop offset="0.62" stop-color="#f89f1d"/><stop offset="0.99" stop-color="#f8a01b"/></linearGradient><linearGradient id="Degradado_sin_nombre_34" x1="800.5" y1="296.17" x2="817.93" y2="359.87" gradientUnits="userSpaceOnUse"><stop offset="0" stop-color="#d6d6d6"/><stop offset="0.14" stop-color="#dbdbdb"/><stop offset="0.3" stop-color="#e9e9e9"/><stop offset="0.47" stop-color="#fff"/></linearGradient><linearGradient id="Degradado_sin_nombre_34-2" x1="615.66" y1="329.06" x2="661.48" y2="435.11" xlink:href="#Degradado_sin_nombre_34"/><linearGradient id="Degradado_sin_nombre_5-12" x1="694.15" y1="259.3" x2="686.58" y2="235.25" xlink:href="#Degradado_sin_nombre_5"/><linearGradient id="Degradado_sin_nombre_5-13" x1="773.72" y1="234.62" x2="769.32" y2="220.64" xlink:href="#Degradado_sin_nombre_5"/></defs><g id="Capa_2" data-name="Capa 2"><g id="Capa_1-2" data-name="Capa 1"><path class="cls-1" d="M820.13,139.54a.51.51,0,0,1,0,.21c-.2,2.07-.42,4.12-.63,6.16a112.13,112.13,0,0,1-2.2,12c0,.09,0,.18-.07.25-.63,2.27-1.26,4.54-1.87,6.79a117.72,117.72,0,0,1-21.94,40.58q-.46.54-.9,1.08c-1.28,1.48-2.59,2.92-3.94,4.34l-7.87,6.82q-5.61,4.51-11.19,9c-.9.65-1.82,1.26-2.74,1.84l-.27.18a99.92,99.92,0,0,1-20.57,9.5,112.88,112.88,0,0,1-25.9,4.41l-.88,0a148.14,148.14,0,0,1-22.46-1.23c-7.79-1.33-15.57-3-23.38-4.8-6-1.53-11.91-3.19-17.87-4.66l-.07,0c94.29-11.27,106.83-89.47,107.12-91.3v0c0-2.12,0-4.23,0-6.32,0-3,0-6,.07-9-.77-3.73-1.53-7.49-2.3-11.25,0-1.49,0-3,0-4.5-1.51-4.5-3-9-4.51-13.53l-.06.05c-1.49-2.25-3-4.52-4.41-6.8-1.53-3-3.09-6-4.62-8.93l-2.16-4.57c-2.27-2.23-4.52-4.48-6.79-6.71q-5.64-6.7-11.26-13.43c-2.22-.79-4.45-1.58-6.68-2.39C710.4,44.1,698.11,42.21,686,39.94c-.75,0-1.49,0-2.23-.09-7.52.77-15,1.51-22.55,2.27q-8.2,1.05-16.41,2.12a55.12,55.12,0,0,1,5.05-3.92A93.27,93.27,0,0,1,677,28.82c24.23-7.29,48.25-7.13,72,2.12.34.09.67.18,1,.29A116,116,0,0,1,782.84,51.1Q793,62.27,803.14,73.43c3.66,7.36,7.33,14.74,11,22.07.2.5.36,1,.52,1.47,1.42,5.56,2.81,11.07,4.23,16.61a1.42,1.42,0,0,1,.07.42c.45,4.17.9,8.33,1.32,12.49A109.17,109.17,0,0,1,820.13,139.54Z"/><path class="cls-2" d="M649.82,40.32A74,74,0,0,1,677,28.82,93.27,93.27,0,0,0,649.82,40.32Z"/><path class="cls-3" d="M780.61,48.65c.74.81,1.48,1.64,2.23,2.45A116,116,0,0,0,750,31.23,74.23,74.23,0,0,1,780.61,48.65Z"/><path class="cls-4" d="M793.39,205.53A117.72,117.72,0,0,0,815.33,165c-1,3.4-1.89,6.78-2.83,10.17q-2.5,5.53-5,11.08-3.4,5.6-6.81,11.23l-6.89,9-1.33.21Q792.93,206.07,793.39,205.53Z"/><path class="cls-5" d="M814.66,97c-.16-.5-.32-1-.52-1.47.09.21.2.39.29.59S814.59,96.67,814.66,97Z"/><path class="cls-6" d="M819,114a1.42,1.42,0,0,0-.07-.42s0,.11,0,.15S819,113.91,819,114Z"/><path class="cls-7" d="M817.27,157.91a112.13,112.13,0,0,0,2.2-12c-.22,2.19-.45,4.35-.67,6.51C818.28,154.24,817.79,156.09,817.27,157.91Z"/><path class="cls-8" d="M820.13,139.54a109.17,109.17,0,0,0,.15-13c.21,1.92.41,3.81.61,5.7C820.64,134.64,820.37,137.09,820.13,139.54Z"/><path class="cls-9" d="M673.29,236.76c7.81,1.8,15.59,3.47,23.38,4.8A185,185,0,0,1,673.29,236.76Z"/><path class="cls-10" d="M745.91,238.34a99.92,99.92,0,0,0,20.57-9.5,80.8,80.8,0,0,1-13.78,7.23,84,84,0,0,1-15,4.59A101.85,101.85,0,0,1,720,242.75,112.88,112.88,0,0,0,745.91,238.34Z"/><path class="cls-11" d="M655.35,232.08c-1.06-.27-2.11-.54-3.17-.79a55.93,55.93,0,0,0-5.2-3.82c-13.66-7.83-25.81-17.37-35.35-30-7.3-7.92-14.56-15.84-23.25-25.29-.61,4.88-1,8.32-1.49,11.74,1.71,10.78,3.45,21.56,5.27,33.13-1.89.13-4.68.34-7.49.52q-9,1-18,2.07c-1.53,0-3,0-4.54,0l-6,1.33h0c-5.45,1.2-10.87,2.41-16.32,3.6l.16.09,0,.05q-8,7.75-16,15.5c-1.47,2.59-2.88,5.2-4.39,7.77-5.49,9.43-9.45,19.33-9.14,30.49-5.89,17.06-8.64,14-23.15,13-6-.38-11.62-5.51-17.4-8.48-10.37-11.12-14.22-23.77-9.11-38.55,2.72-1.71,5.46-3.45,8.39-5.27,7.74,6.55,11.63,16.5,23.76,19.38-6-13.62-12-26.54-15.37-40a.08.08,0,0,1,0-.07,90.51,90.51,0,0,1-2.81-18.79q-.07-9-.16-18c.38.2.77.38,1.13.56,11,5.51,11.11,5.11,16.58-6.93.77-1.67,1.64-3.29,2.45-4.91,0-.76,0-1.5,0-2.27,1.51-3,3-6,4.48-9,1.55-2.23,3.11-4.46,4.64-6.71l4.38-6.77c2.95-3,5.92-6,8.87-9.07l2.32-.21,13.59-8.7c3.76-1.54,7.5-3,11.25-4.55,6.73.07,13.48.11,20.23.18l15.1,1.93h0c.92,4.35,1.8,8.71,2.83,13,.23,1,.48,2,.72,2.93,0,.18,1.08.14,2.19,0h0c.56,0,1.17-.07,1.62-.09q2-7.44,4-14.9c.06-.32.15-.63.24-1s.23-.65.34-1l4.32-12.42c.77-2.25,1.56-4.5,2.34-6.75q4.45-9.11,8.89-18.23c3.81-5.92,7.59-11.81,11.37-17.73,1-1.08,2-2.14,3-3.22q6.24-6.59,12.49-13.16c1.46-1.35,2.94-2.68,4.41-4,2.11-1.53,4.23-3,6.36-4.57q8.21-1.08,16.41-2.12c7.52-.76,15-1.5,22.55-2.27.74,0,1.48.07,2.23.09,12.15,2.27,24.44,4.16,33.82,13.41,2.23.81,4.46,1.6,6.68,2.39q5.64,6.72,11.26,13.43c2.27,2.23,4.52,4.48,6.79,6.71l2.16,4.57c1.53,3,3.09,6,4.62,8.93,1.46,2.28,2.92,4.55,4.41,6.8l.06-.05c1.51,4.51,3,9,4.51,13.53,0,1.51,0,3,0,4.5.77,3.76,1.53,7.52,2.3,11.25,0,3,0,6-.07,9,0,2.09,0,4.2,0,6.32v0C762.18,142.61,749.64,220.81,655.35,232.08Z"/><path class="cls-12" d="M793.82,206.4,788.55,211c1.35-1.42,2.66-2.86,3.94-4.34Z"/><path d="M1405.3,401.25A557.17,557.17,0,0,0,1439.51,332c10-24.42,21.65-47.57,36.5-69.27,8.87-13,17.55-26.1,26.4-39.09,7.31-10.78,14.74-21.47,22.52-32.74-15.48-8.42-32-11.61-49.53-14.52,10.11-10.75,19.2-20.45,29.46-31.39-11.63-5.58-21.33-11.27-31.75-15.05-36.3-13.15-70.64-6-103.88,11.25a42.75,42.75,0,0,1-15.64,4.66c-35.13,2.92-64.95,16.63-89,42.6-14.92,16.13-25.91,34.68-34.21,55-1.44,3.51-3.85,7.68-7,9.25-21.15,10.69-41,23.25-58.55,39.12-39.74-36.44-118.31-36.1-148.28,39.94,21.94,2.95,39.54,14.4,56.35,27.64-4.46,17.89-6.71,35.26-4.48,53,1.53,12.29,5.67,22.59,17.13,29.84,16.47,10.42,28,25.79,37.06,42.92,14.65,27.68,20.39,57.63,22.46,88.53,2.92,43.75-6,86.59-9.43,130a25.5,25.5,0,0,1-4.19,1.76c-25.29,5.47-50.81,10.24-76.76,9.54-24.68-.65-49.3-3.08-74-4.73-1,.41-2,.79-3.17,1.24,4.12,7.34,8.15,14.56,12.2,21.78,29.07,3.42,58.19,5.59,87.43,2.16,19.28-2.25,38.5-5.13,57.61-7.71,2.56,15.61,4.34,32.36,8.23,48.58,6.53,27.19,19.36,51.06,42.33,68.19,6.24,4.66,13.3,8.3,20.24,11.93,7.71,4.07,15.25,3.35,21.8-2.75,5.94-5.53,6.87-12.62,3.15-21.71a11.93,11.93,0,0,1-1.37-4.46c21.51,10.94,43.1,21.06,68.1,19.44-19.38-10.57-38.53-21.47-54.13-37-15.25-15.26-29.27-31.73-44.24-48.09.68,22.26,2.59,44.85,7.52,67.22l-2,1.62c-3.15-2-6.61-3.62-9.43-6-17.48-15-26.66-34.77-32-56.66-7-28.81-7.11-58.13-3.46-87.14,5.31-42.44,10.21-84.75,7.58-127.6q-6.45-27.1-12.87-54.17l-11.12-21.31c14.49,2.82,26.83,8.82,40.15,2.23-4.73-2.75-9.14-5.27-13.55-7.81-5.92-3-12.31-5.31-17.69-9.09-16.76-11.73-33.15-24-49.69-36.07-9.4-3.4-12.8-11.08-13-20.1-.22-7.72.9-15.51,1.44-23.25.81-4.36,1.62-8.73,2.43-13.07.77-3.9,1.46-7.81,2.3-11.68.79-3.51,2.77-7.07-.79-10.2q-10.12-7.93-20.23-15.84c-8.6-4.88-17.17-9.79-26.26-15,11.54-12.43,22.77-24.17,40.59-25.64,15.19.07,30.61-2.85,45.24,4.19,10.6,5.11,19.31,11.45,19.85,24.51l-30.5,9.67-5,4,4.12,2.34c9.45-.59,19-2.36,28.31-1.53,15.8,1.42,31.37,4.84,46.27,11.57-6.37-11.86-17.21-18-31-23.23,4.45-5.35,8-10.46,12.35-14.74,16.45-16.16,35.85-28,56.64-37.67,7.09-3.26,11.23-7.45,13.93-15.44,9.66-28.49,25.16-53.18,51.45-69.65,14.15-11.23,30.87-15.41,50.29-18.52l-26.12,34.18q-8.78,14.65-17.58,29.28-6.64,13.55-13.32,27c-.88,3-1.76,5.92-2.48,8.42-6.43,0-11.88-.23-17.28.11-1.69.11-3.29,1.69-4.91,2.59,21.54,4.11,57.57,17,74.11,26.75-27.68,7.57-52.48,19.27-72.24,39.88-7.11,7.4-13.14,15.57-16.43,25.86,2-1.85,4.21-3.6,6.15-5.54a197,197,0,0,1,90.15-52.34c7.31-2,11.09-5.88,15.08-11.64,13.86-19.94,27.52-40.14,43-58.8,8.67-10.46,20.19-18.93,31.53-26.69,6.1-4.19,14.52-5,21.87-7.31,6,.13,12,.24,18,.36,2.23.11,4.46,0,6.64.36,1,.13,1.82,1,3.38,1.93-21.81,35.22-48.25,67.29-64.45,105.52q-8.93,22.56-17.8,45.08c-12.72,32.95-30.57,62.61-56.49,87-3.2,3-7.09,5.26-10.64,7.87q-13.58,7.6-27.14,15.17l-18,6.62-18,4.59q-18,2.46-36,5-2.25,1-4.47,2.07c8.1,6.53,18.11,2.59,27,4.86l48.54-1.33c2,8.17,4,16.81,6.12,25.43q6.56,16.95,13.12,33.92,11,20.42,22.08,40.86,15,21.13,30,42.27,13.17,19.47,26.33,38.93c12.43,15.32,20.28,33.06,27.1,51.33,7.22,14.85,12.33,30.31,13.79,46.85.36,3.92,1.31,7.79,2,11.66,5.11,24.51,1.69,48.43-6,71.72-3.44,10.44-9.2,20.1-13.93,30.11-.9-1-2.43-2-2.63-3.12-2.88-15.49-7.25-30.41-16.74-45-8.65,33.78-22.71,63.75-43.68,90.33l-20.73,26.94q-10.37,10.1-20.77,20.16c-9.21,7.86-18.43,15.69-29.15,24.8-1.28-14.49-1.91-26.51-3.51-38.41a186.44,186.44,0,0,0-8.16-35.38q-6.45,12.18-12.88,24.35-12.18,19.14-24.39,38.28l-22.21,29.37q-10.5,11.1-21,22.23l-21.47,18.43-31.28,22.64c2.11-18.86,4-35.51,5.87-52.16V995.94l-2-1.15-9.75,12.65c-10,19.83-26.75,32.63-46.38,44.74.72-3.36,1.13-5.54,1.65-7.72q7.93-33.08,15.86-66.16a9.46,9.46,0,0,1-.18-2.23c4.82-30.79-6.12-56.6-25.74-79.31q-24.67-28.51-51.38-55.36c9.5,24.51,20.23,48.07,35.42,69.38a262.5,262.5,0,0,1,15.89,25.64c2.09,3.75,2.57,8.41,3.76,12.64-.14,10.15.09,20.3-.59,30.41-.33,5-2.34,9.81-3.6,14.71q-3.51,13.47-7,26.92-6.75,20.33-13.52,40.64-6.72,17-13.46,33.89-6.59,14.92-13.21,29.82-7,13.9-14,27.82-9,16.9-17.89,33.82-10,17.55-19.9,35.13-10.35,16.14-20.72,32.27l-6.48,10c-40.56,66.37-70.71,138-105.8,207.2-2.67,5.26-5.71,10.35-8.59,15.53q-11.28,22.2-22.51,44.44c4-.61,8.06-1.46,12.11-1.8,9-.74,14.4-5.22,18.48-13.46,20.79-42.28,42.08-84.3,63.32-126.36,23.09-45.75,46.45-91.32,75.57-133.72,32.93-47.93,60.92-98.68,82.32-152.78,5.47-13.79,12-24.73,26.67-30.31,8.44-3.22,15.78-9.36,25.32-15.21-1.44,7.31-2.91,12.64-3.49,18.09-1.67,15,11.57,25.09,25.5,19.22a141.74,141.74,0,0,0,18.72-10.15c38.35-23.52,68.82-55.18,94.67-91.62,2-2.83,4.28-5.49,7.39-9.45,0,5.85-.18,9.59,0,13.28.76,14,13.82,21.9,26.55,16a60.49,60.49,0,0,0,7.61-4.77,296.86,296.86,0,0,0,94.83-101.92c1.89-3.38,3.85-6.71,6.06-10.56,1.93,2.25,3,3.74,4.36,5,9.66,9.34,22.08,8.46,30-2.16a70.94,70.94,0,0,0,4.26-6.62c30.72-52.14,33.39-106.85,14.85-163.42-14.42-44-38.46-82.59-66.63-118.85-29.06-37.36-50.71-78.4-63.47-124.06-1-3.47-1.53-7.05-2.22-10.4A210,210,0,0,0,1405.3,401.25Zm36.64-221.87c-4.21,4-8.35,8.08-12.65,12-7.33,6.68-14.78,13.28-22.19,19.89q-11.61,13.33-23.22,26.69c-3,4.95-6,9.95-9.09,14.88-7.27,11.59-14.63,23.16-22.58,35.73q-7.11-3.68-14.29-7.35c-10.86-3.76-21.73-7.5-33.32-11.5,1-2.73,1.8-5.49,3-8,13.37-27.57,28-54.32,47.11-78.49,15.5-19.63,35.24-31.71,60-35.4,15.19-4.7,35.44-3.49,54.52,3.71Z"/><path d="M656.9,1225.8c-.09-2.23.05-4.48.09-6.71q-2.38-12.36-4.79-24.73-5.78-14.38-11.57-28.74c-5.71-9.54-11.43-19.08-17-28.33,6.7-17.87,13.32-35.51,19.93-53.18a278.47,278.47,0,0,0,8.38-65.28c-.05-.7-.07-1.4-.09-2.1-1.67-8-2.93-16.09-5.09-23.92-7.83-28.38-24.84-49.8-49.91-65a165.73,165.73,0,0,0-41.77-17.69c-2.21,12.11-4,23.75-6.44,35.27-6.66,31.5-16.27,62.06-31.91,90.37-10.53,19.07-22.8,36.84-42,48.55-5.87,3.55-11.75,7.09-17.35,10.46-9.32-14.06-17.67-26.69-26-39.31l-22.34-22.78c-11.75-7.9-23.09-16.54-35.38-23.54C345.67,993.22,316,988,284,995.67a225.66,225.66,0,0,0-79.92,36.7c-15.25,11-28.78,23.88-38.88,40.69,2.63-2,5.33-4,7.9-6.12,25.65-21,53-39,85.06-48.68q63.06-19.1,117.88,17.2c22.1,14.69,40.57,33.1,53.92,56.26,2.05,3.55,3.91,7.22,5.69,10.91a44.78,44.78,0,0,1,1.76,5.61c-8.53,5.08-16.79,10-25,14.94.18.65.34,1.3.52,2,11.81-2.09,23.79-3.53,35.4-6.44,15.17-3.8,29.88-9.45,45.1-13.12,20.32-4.93,40.8-9.74,62.06-7.69,3.2,1.59,7.09,2.49,9.48,4.9,11.11,11.23,21.85,22.89,32.65,34.46.59.65.38,2,.54,3.08l20.12,31.53q5.67,13.47,11.32,27c1.93,8.55,5.06,17,5.49,25.63s-1.8,17.51-2.88,26.26A39.13,39.13,0,0,1,620.69,1275c-7.92-29.21-24.46-51.52-47.3-69.32-2.95-.67-5.92-1.37-8.87-2.07l19.76,24.58c8,10.21,15.51,20.68,18.3,33.73,4.25,11.14,6.32,22.46,2.56,34.21-1.59,27.54-18.83,49.91-43,55.76l-15.43,4.3c-.32-6.41-.39-11.57-.88-16.67A67,67,0,0,0,524,1295.58l-9-2.16c7.07,8.73,13.33,17.89,15.44,29.21,4.91,11.16,4.52,22.66,1.58,34.1-3.09,11.86-11.84,17.82-23.34,19.94-22.19,4.09-43.12-.68-63.37-9.61-11.41-3.83-16.3-12.49-16.23-23.77,0-8.68,1.46-17.35,2.5-28.24,6.44,5.22,10.87,9,15.53,12.49,1.37,1,3.37,1.24,5.08,1.82-.22-2.2-.45-4.41-.65-6.61q-5.94-8.85-11.84-17.69c-12.71-7.88-26.06-13.46-41.47-11.46L422,1307.4c-25.12,21.69-63.26,7.85-76.58-27.25-1.13-2.19-2.28-4.37-3.72-7.14-5.29,1.73-10.46,3.42-15.64,5.09a81.9,81.9,0,0,1-37.71,8.77c-13.69-.11-27.57,1.33-41-.6-47.11-6.78-89-26-125.91-56l-41.07-38.07q-13.65-17.92-27.3-35.9c-13.41-19.51-24-40.42-30.7-63.19-1.33-3.8-2.68-7.61-4.39-12.44,14.43-4.33,26,3.84,39.21,6.3.15-40.6-4.64-81.54,22-118.53,14.88,24.73,17.31,51.69,26.29,76.85a110.84,110.84,0,0,0,30.54-22.59c15.5-16.23,31.37-32.55,49.19-46,29.37-22.15,53.81-48.75,77.23-76.61C292,865,323.08,831.5,359.85,803.82c36.41-27.39,75.75-49.33,119-63.86,4.16-4.64,8.23-9.34,12.51-13.87,4.09-4.32,5.22-8.71,1.08-13.59a32.85,32.85,0,0,0-4.41.79c-72.44,23.56-136.49,61.19-189.73,115.87-25.1,25.75-47.89,53.7-72.38,80.05-13,13.95-26.44,27.7-41.2,39.67-21.85,17.74-43.3,35.83-62.59,56.38-2.13,2.27-4.48,4.34-7.2,7-2-6.34-3.28-11.83-5.38-17-5.29-13.14-10.19-26.51-16.63-39.11-5-9.79-15-11.05-23.69-4.19a42.64,42.64,0,0,0-8.11,9.23c-8.68,12.78-15.64,26.6-18.76,41.7-3.69,17.87-6,36-9,54.66-2.16-.49-5.36-1.33-8.6-1.89a75.28,75.28,0,0,0-10-1.28C4,1053.89-.42,1057,0,1067.64c.47,11.07,1.87,22.52,5.4,33C19.36,1142,42.88,1178,71.59,1210.47c59.08,66.73,132.91,100.35,222.7,96.57,13-.54,25.95-2.28,39.36-3.51,16.12,28,41.23,38.16,72.15,34.32,1.69,8.21,2.64,15.64,4.84,22.68a15.35,15.35,0,0,1-.94,12.65c-10.83,21.33-21.34,42.8-32,64.22-1.78,3.58-3.44,7.21-5.38,11.23,4,2.52,7.41,4.66,11.05,7,7.95-14.63,15.69-28.9,23.43-43.14q5.84-12.2,11.7-24.4c.65-1.69,1.24-3.44,2-5.08a26.91,26.91,0,0,1,2.25-3.38,136.49,136.49,0,0,0,50.8,18.3c25.72,3.78,50.07,1.86,69.6-18.39a11.32,11.32,0,0,1,6.77-2.83c38.87-3.16,65.76-28.29,75.28-70.15,1-4.5,2.48-9.77,5.56-12.8C649.93,1274.92,658,1252.22,656.9,1225.8Zm-51.1-103.72q-17.19-15.57-34.59-31.26c-11.32-7.86-23.92-7.25-36.68-5.61-8.76,1.13-17.49,2.32-27.57,1.65l7.94-9.52q12.6-19.11,25.16-38.24,9-21.39,17.87-42.78c4.88-18.59,9.77-37.2,14.94-56.91,21.5,10.58,39.79,24,48.52,47.6,7.32,14,8.71,29.23,8.35,44.67C629,1064.51,618.56,1094.71,605.8,1122.08Z"/><path class="cls-13" d="M991.23,852.32a159.77,159.77,0,0,0,26.33-20.64c7.13-6.75,9.13-15.53,6.68-25.76A81.74,81.74,0,0,0,1001,765.77c-5.42-5.27-8.86-10.53-8.86-18.28,0-4.77-1.51-9.51-2.32-14.29-4-7.22-8.08-14.44-12.2-21.78,1.17-.45,2.16-.83,3.17-1.24-3.15-1.73-6.5-3.17-9.43-5.22-11-7.65-21.76-15.48-32.6-23.27-2.37-1.69-4.62-3.53-6.91-5.29-2.68.34-5.38.66-9.34,1.15,1.26,4,3,7.92,3.67,12,1.77,11.57,3.12,23.2,4.56,34.82,0,.54-.78,1.17-1.21,1.75a88.67,88.67,0,0,1-64,91.84c-4.57,1.33-7.7.27-11.23-2.48-9.82-7.65-20.44-13.57-33-15.77a38.23,38.23,0,0,0-28.8,6.17c-5.31,3.48-10.94,6.88-15.21,11.43-6.06,6.41-12.25,7.4-20.84,6.19q-132.2-19-212.17-125.67c-2.18-2.9-3.4-6.5-5.07-9.79-2.18-2.49-4.14-5.24-6.57-7.45-1.75-1.57-5-4-6.14-3.35-6.05,3.13-4-3.91-6.55-4.75,0,4.46-1.82,7.11-6.25,9.07-9.07,4-14,11.68-16.82,21-1,3.42-2.88,6.59-4.36,9.9,4.14,4.88,3,9.27-1.08,13.59-4.28,4.53-8.35,9.23-12.51,13.87-7.68,16.85-6.08,33.53,2.36,49.37,6.73,12.62,14.83,24.53,22.35,36.75,8.46,8.78,17.17,17.35,25.36,26.37,8.84,9.7,19.49,16.75,31,22.73,9.55,3.87,19,7.79,28.61,11.57,3.93,1.55,8,2.84,12,4.23q29.26,4.49,58.53,9c16.63-.14,33.28.18,49.89-.59,8.89-.4,17.71-2.63,26.56-4.05l25.92-5.44c-30.78,37.13-55.9,76-62.27,124.4-.63,21.76,1.26,43.09,9.36,63.64,13,32.9,35.09,58.74,62.66,80,13.79,10.65,28.69,19.85,43.11,29.71l26.92,13.95v-11.72c-2.68-15.75-3.92-31.51-.09-47.26q2.63-13.39,5.29-26.83c4.45-13.75,8.91-27.5,13.88-42.82,2.12,6.23,3.83,10.94,5.31,15.68,12.7,41.14,39.68,69.07,79,85.7a15.25,15.25,0,0,1,2.66,1.87l17.21,5.92q2.73-4,5.4-8,6.72-15.77,13.39-31.51,4.66-14.68,9.34-29.32,3.27-14.61,6.59-29.26c.77-6,1.51-12,2.26-18q-1.59-30.29-3.22-60.56Q993.09,990.73,988,976c-19.51-41.43-51.69-69.77-95.31-90.09,8.51-1.8,14.38-3,20.23-4.3C940.43,875.61,967.08,867,991.23,852.32Zm-209-11.43c3.22-3.72,6.46-7.43,9.68-11.14,7.38-7,15-13.75,26.31-11.41,4.2.88,8.14,3,12.22,4.54,1.44.77,2.9,1.53,4.34,2.28l8.93,6.41c2.12,1.85,4.23,3.67,6.33,5.49,2.41,2.7,4.79,5.38,7.2,8.06,4,4,8.91,7.67,4.39,14.27.6,6.57-1,12.17-6.37,16.58-1.46,1.19-1.94,3.62-2.88,5.49-.7,2.3-1.4,4.59-2.07,6.91-11.34,10.76-33.85,12.54-48.61,3.78-8.31-4.9-14.7-11.72-16.65-21.22C783,861.1,777.84,851.37,782.25,840.89Zm-24.19,31.73c-34.18,7.31-68.66,10.75-103.61,8.73-22.59-.41-44.11-6-65.22-13.53a129,129,0,0,1-45.05-26.71Q527.3,823.05,510.45,805c-5.65-9.84-12.2-19.27-16.72-29.6-5.47-12.42-1.2-26.31,9.65-35.42,5.38,9.79,10.69,19.42,16,29.08q14.72,16.8,29.46,33.62L573.28,821l13.7,6.44,4.19-.45c-1.64-2.34-2.95-4.21-4.25-6.08l-38.4-33.33a104.21,104.21,0,0,1-33-50.29c-1.06-8.08-2.23-16.14-3.08-24.24-.75-7,2.45-12.15,8.86-15.8l33.56,42.62q21.57,19,43.14,38.13c2.47,2.18,5,4.32,7.49,6.48L656.86,814q17.82,6.62,35.65,13.28c1.64.61,3.21,1.49,4.81,2.25,14.22,3.09,28.42,6.35,42.67,9.23,7.18,1.46,14.49,2.27,22.3,3.44V850q.94,6.67,1.87,13.34C765.62,868.72,763.87,871.38,758.06,872.62Zm105.43,119.2c-3.17,15.57-5.29,31.44-9.74,46.65-8.13,27.77-18.41,54.94-26.24,82.77-4,14.14-4.5,29.24-6.57,43.91-.12,1-.21,2.07-.5,5.17L798.3,1154c-3.69-2.32-7.79-4.16-11-7-9.92-8.8-19.49-18-29.21-27q-10.1-13.53-20.18-27c-3-6-6-12-9-17.93q-3.35-10.12-6.66-20.23c-5.6-26.2-3.4-51.88,5.85-76.9,2.55-6.89,6.37-13.3,9.61-19.92q5.61-10.12,11.23-20.25l17.85-22.64c4.12-5.42,8.21-10.87,12.62-16.68a76.16,76.16,0,0,0,33.87,17.09c7.9,1.75,7.47,9.06,7.85,15.37,1.38,6.68,4.21,13.48,3.74,20-.88,12.25-3.71,24.33-5.74,36.46q-5.51,17-11,33.89c-3.19,8.17-6.41,16.36-9.6,24.53q-2.24,9-4.48,18c.74,11.85,1.08,23.76,2.38,35.55.5,4.5,3.22,8.78,6,13-3.1-20.12-1-39.27,7.47-57.57,3.88-9.74,7.72-19.47,11.59-29.21q6.66-21.43,13.3-42.85c.72-8.41,2.23-16.88,2-25.27-.36-13.52-1.85-27-2.93-41.32,1-.11,3-.33,5.11-.58,5.9-1.94,7.74,2.29,10,6.32C861.42,943.64,865.9,967,863.49,991.82Zm58-67.71c23.58,17.26,41.7,39,52.1,66.68a15.92,15.92,0,0,1,.49,3.28q3.42,14.52,6.84,29,1,17,2,34-2.08,15.73-4.21,31.48-4.41,16.92-8.82,33.8c-3.08,12.54-7,24.74-13.86,36.89-24.19-11-46.07-23.61-58.69-47.8-10.13-12.67-14.81-27.55-17.58-43.19q-2.46-18.06-4.93-36.07,3.38-16.92,6.71-33.8c-.65-14.09-1-28.22-2.07-42.29-.36-4.95-2.36-9.79-4.23-17,3,2.41,5.33,3.37,6.28,5.08a107.4,107.4,0,0,1,13.73,46.63c.47,7.79-.07,15.66-.14,23.5q.21,15.58.43,31.19c1.33,7,2.7,14.08,4,21.13.79,4.27,1.44,8.57,2.16,12.85q6.79,15.8,13.57,31.62c6.55,8,13.59,15.41,24.51,20.59-1.85-3.78-3.17-6.44-4.48-9.09A64.65,64.65,0,0,1,920,1093.09q-4.32-16.85-8.66-33.67-1.19-13.53-2.37-27l-.06-18c0-7.49.06-15,.11-22.5-1.1-16.45-5.65-32.07-11.5-47.37-7.74-14.32-18.16-26.6-29.35-38.28-1.26-1.89-2.52-3.78-3.78-5.7,2.14-1.06,4.44-3.22,6.39-2.95,3,.43,5.88,2.5,8.78,3.88C895.36,905.61,908.57,914.68,921.44,924.11Zm-41.52-55c2.16-10.6,3.13-19.71-2.07-28-1.15-2.19-2.3-4.35-3.83-7.27a131,131,0,0,0,45.73-28.88c13.42-16.24,22.6-34.43,25.57-55.49.13-1,1-2,1.57-2.93V709c17.17,11.41,29.46,24.78,26.83,46.39,2.29,18.31-6.64,32.29-17.58,45.48L933.8,825.81c-.84,1.3-1.67,2.59-2.48,3.89,8.55,1.22,13.1-6.39,19.89-9.07,13.53-13.41,25.14-28.17,32.48-47.08l3.91,4.37c11.48,7.45,16,19.42,19.65,31.6.9,3-.11,8.05-2.23,10.24a111.19,111.19,0,0,1-51.22,30.42q-12.39,4.35-24.8,8.75l-27,6.6Z"/><path class="cls-13" d="M809,224.25c-29.54,32.29-76.13,46.13-118.91,38.69-34.7-5.07-72.48-29.49-102.95-.57-3.11-13.23,11.45-15.75,16.6-26.62-15.88,1.78-26-8.28-41.52-6.75-7.76-.81-17,2.9-22.3-4.32a1.34,1.34,0,0,0-.11-.14,123.06,123.06,0,0,1,16.32-3.6h0c34-5.15,67.83,3.72,101.42,12,5.27,1.3,10.51,2.59,15.76,3.8,7.81,1.8,15.59,3.47,23.38,4.8q4.73.84,9.34,1.28h.07a99.27,99.27,0,0,0,31.64-2.18c2.79-.66,5.51-1.42,8.19-2.32a99.92,99.92,0,0,0,20.57-9.5l.27-.18A106.49,106.49,0,0,0,788.55,211c1.35-1.42,2.66-2.86,3.94-4.34q.43-.54.9-1.08A117.72,117.72,0,0,0,815.33,165c.7-2.25,1.31-4.5,1.87-6.79,0-.07,0-.16.07-.25a112.13,112.13,0,0,0,2.2-12c.27-2,.5-4.09.63-6.16a.51.51,0,0,0,0-.21,109.17,109.17,0,0,0,.15-13A97.63,97.63,0,0,0,819,114a1.42,1.42,0,0,0-.07-.42A99.2,99.2,0,0,0,814.66,97c-.16-.5-.32-1-.52-1.47a104.51,104.51,0,0,0-11-22.07,119.86,119.86,0,0,0-20.3-22.33A116,116,0,0,0,750,31.23a106.46,106.46,0,0,0-73-2.41,93.27,93.27,0,0,0-27.16,11.5A113.32,113.32,0,0,0,621.51,66c-10.87,13.57-19.36,29.5-25.64,45.93q-2.39,6.18-4.32,12.42c-.22.63-.4,1.29-.58,1.92-1.53,5-2.86,10-4,14.9a3.13,3.13,0,0,1-1.62.09h0c-1.17-.3-2.14-1.38-2.91-3-1.46-3-2.29-8-2.86-13-.74-6.7-1-13.57-1.8-16.27-61.72-17.41-97.26,23.59-102.07,73.3a125.79,125.79,0,0,0,1.84,36.25.08.08,0,0,0,0,.07,123,123,0,0,0,15.37,40c-12.13-2.88-16-12.83-23.76-19.38-66.75,31.91-20.41,122.29,45.68,90.92q-3.37,13.67-6.79,27.34c-89.79,23.29-134.47-101.83-49.26-139.91C428.85,141.28,503.58,60,581.76,85,675-103.81,944.1,57.43,809,224.25Z"/><path class="cls-14" d="M1000.07,573.49c-2.5,7.79-5.54,15.4-8.37,23.16-9.9-5.06-19.33-9.9-28.78-14.74q-9.09-3.21-18.21-6.41l-21.13-2.3c-12.6-.7-23.63,4.77-34.93,9.11L884.13,587c-6.8-6.1-12.09,1.28-18.12,2-4.48,0-9-.56-13.39.16-7,1.12-14.74.18-20,6.52,0-6.16-4.59-4.52-8-4.61a219,219,0,0,1-59.23-10.31c-26.17-8.19-50.14-20.86-73.77-34.45-14.22-8.17-28.73-16-45.93-15.76H634.2c-3,.77-6,1.56-9,2.32q-8,1.05-16,2c6.87-14.2,19.47-18.86,33.94-20.46l11.36.27,11.1,2.37q11.31,4.46,22.57,8.95c22.28,11.82,44.06,24.76,67,35.13,18.21,8.22,38,12.4,58.09,14.27,35,3.26,67.74-6.17,100-18l20.32-.2c4.53.72,9,1.44,13.55,2.18q5.48,1.38,11,2.79c7.22,3.15,14.47,6.21,21.63,9.52,3.66,1.69,4.43-.49,5.1-3.22q3.66-18.93,7.32-37.85c.65-2.34,2-4.72,1.89-7-.52-10.51-1.42-21-2.18-31.46-2.12-13.57-4.89-26.94-13.28-38.32-3.67-10.67-11.66-17.85-19.87-24.85-9.39-11-20.19-20-34.23-24.51-9.23-7.42-20.17-10.87-31.48-13.32-9.1-1.55-18.14-4.07-27.26-4.45-24.82-1.11-48.7,3.82-71.54,13.66q-17,11-34,22.05-11.26,12.39-22.5,24.75-6.88,9-13.73,17.89c-3,3-5.92,6-8.89,8.94l-13.39,9.18-11.18,4.66q-11.38,3.24-22.71,6.5l-4.39.14-13.45.13h-9.07c-3.74-.06-7.48-.11-11.21-.18-4.5,0-9-.33-13.46,0-17.73,1.1-34.29,17-36,34.29-1.94,19.72,9.31,35.63,29,40.31,7.49,1.8,15.21,2.77,22.82,4.14,13.12,14.18,25.85,28.69,39.45,42.4,7,7,15.39,12.46,23.15,18.63,10.38,8.3,20.33,17.22,31.19,24.82,25.14,17.51,52.39,30.63,82.55,37.23,14.45,3.15,17.28,1.73,21.63-12.11,1-3.13,1.53-6.42,2.27-9.63.79-2.25,1.57-4.51,2.36-6.76s1.51-4.38,2.25-6.57l2.14-4.63,4.61-13.53q7.83-19.09,15.69-38.21c.67-1.51,1.37-3,2.07-4.52l.18-.07c5.76,0,11.54,0,17.33,0q-1.86,5.64-3.72,11.32-9.18,23.6-18.38,47.17-3.51,9.22-7,18.46c-2.07,5.91-4.14,11.86-6.19,17.77-.85,3.54-1.69,7.09-2.56,10.63-1.17,4.72-3.45,8-9.12,7.29a41.12,41.12,0,0,0-6.64.2q-16.74-2.32-33.53-4.61-19.07-6.82-38.17-13.66l-4.52-2.3c-5-3.1-10.08-6.14-15.1-9.29-10.67-6.66-21.33-13.39-32-20.1l-10.64-6.88q-7.2-6.45-14.41-12.92-12.34-11.41-24.73-22.78Q642,609.43,631.83,598.34c-5.42-11.62-16-13-26.93-13.53-2.39-.67-4.93-1-7.09-2-10.2-5.13-19.31-11.65-26.24-20.92-21.45-41.19,6.57-75.57,35.8-81.22,3.58-.65,7.14-1.8,10.71-1.83,13.42-.15,26.85.61,40.22-.11a96.24,96.24,0,0,0,25-4.66c19.18-6.27,30.81-21.24,40.85-37.71q19.07-18.19,38.19-36.41l12.13-10.06c2.79-.5,5.56-1,8.32-1.53l9.57-4.26q12.23-4.19,24.48-8.35L832.05,373q12.6-1.11,25.14-2.25l27,2.16c19.69,4.61,38.89,10.48,56.26,21.24,34.14,21.16,58.71,49.33,66.61,89.91C1013,514.49,1009.39,544.24,1000.07,573.49Z"/><path d="M603.7,235.75c-5.15,10.87-19.71,13.39-16.6,26.62-49.74,43.26-66.12,99.27-63.4,163,12.58.36,23.79,2.11,33.71,9.65-57.34,16-100.86,56.78-99.94,93.3,6.12-2.7,12.09-5.82,18.41-8,6.59-2.29,13.53-3.69,20.3-5.47.67.45,1.35.93,2,1.38-19.08,11.95-15,30.2-14.81,47.41a62.58,62.58,0,0,0,.27,6.73c1.22,9.5,2.53,19,4,29.77l25-33.37c7.47,21.36,14.45,40.22,20.66,59.34,6.53,20.17,9.21,40.85,5.87,62-2.18-2.49-4.14-5.24-6.57-7.45-1.75-1.57-5-4-6.14-3.35-6.05,3.13-4-3.91-6.55-4.75-1.33-19.53-7-38.07-13.37-58.06-12.35,16-11,35.27-18.13,54.6-7.32-20.55-15.33-38.42-19.88-57.14s-5.64-38.32-8.37-58.35c-12.4,10-19.64,24-30.06,38.48-.27-5.76-.59-9.52-.61-13.28,0-26.06,3.65-51.53,12.51-76.09,12.36-34.25,27.39-52.12,63.35-75.36-3.24-23.14-.52-46.52,2.66-69.9q3.41-13.67,6.79-27.34,4.77-11.14,9.48-22.24,6.59-11.34,13.14-22.66c14.63-19.26,30.74-37,51.71-49.66Z"/><path d="M879.25,344.18c-11.55-46.93-33.58-87-76-113.22l-7.59,5.71c-1.8,1.35-3.6,2.73-5.38,4.08s-3.53,2.65-5.28,4l25.31,17.42-.07,2.29c-23.4-.94-32.15,15.19-38.41,32.7C759.88,330.45,758,365,762.36,399.9l12.13-10.06c-2.21-11.32-1.8-22.31,4-32.63,8.44-15,25.88-23.66,42.53-21.14,19.2,2.88,31.71,14.88,36.12,34.64l27,2.16C882.55,363.3,881.56,353.58,879.25,344.18Zm-109.6,1.44q4.43-16.71,8.8-33.4c4.5-18,21.2-27,40.44-21.49,9,2.56,17.19,6.84,23.22,14.38,2.12,2.92,4.91,5.58,6.21,8.84a241.06,241.06,0,0,1,9.28,28.83C827,313.3,798.37,316.45,769.65,345.62Z"/><path class="cls-15" d="M888.65,582.31c11.31-4.33,22.32-9.8,34.94-9.1l18,25.61c1.21-9.19,2.15-16.26,3.08-23.33l18.2,6.42c-4.7,21.19-11.14,41.77-21.56,62.2-8-18.27-15.63-35.49-28-50.13,3.19,28.23,10.8,55.34,18.48,82.42l-9.33,1.14c1.25,4,3,7.93,3.66,12,1.79,11.57,3.14,23.21,4.57,34.84.06.52-.79,1.16-1.21,1.74a39.24,39.24,0,0,1-2.82-4.61c-11.55-26.09-20.18-53.18-27.33-80.76q-3.12-13.51-6.26-27Q890.89,598,888.65,582.31Z"/><path class="cls-16" d="M641,1502.64c-.74,1.15-2.07,2.28-2.16,3.47-.9,11.59-1.59,23.2-2.36,34.79-13.52-1.87-27.05-3.6-40.53-5.67-4.57-.7-9-2.16-13.5-3.29,0-10.08-.16-20.16.11-30.24.07-2.7,1.42-5.36,2.16-8,12.76,1.87,25.52,3.7,38.28,5.68C629,1500.28,635,1501.54,641,1502.64Z"/><path class="cls-17" d="M853,1487.21q-11.28,22.2-22.51,44.44l-41,7c0-10,.33-20-.14-30a11.49,11.49,0,0,1,4.61-10.35q25.77-5.1,51.54-10.15C848,1487.68,850.51,1487.52,853,1487.21Z"/><path class="cls-18" d="M789.34,1508.67c.47,10,.14,20,.14,30-11.26,1.51-22.53,3.15-33.83,4.41-4.41.5-8.91.12-13.39.14l-4.5-.07c-.72-3.53-2.14-7.09-2-10.6.29-9.22,1.26-18.41,2-27.61l56.21-6.62A11.49,11.49,0,0,0,789.34,1508.67Z"/><path class="cls-19" d="M742.26,1543.22c-2,.72-3.89,2.07-5.87,2.09-19,.16-38,.65-57-.11-14.33-.56-28.6-2.79-42.89-4.3.77-11.59,1.46-23.2,2.36-34.79.09-1.19,1.42-2.32,2.16-3.47l45,2.37v38.14h51.78Z"/><path class="cls-20" d="M582.55,1501.7c-.27,10.08-.11,20.16-.11,30.24-12.63-2.56-25.27-5.06-37.88-7.78-3.94-.86-7.74-2.32-11.61-3.49q0-20.25,0-40.51c16.09,3.76,32.16,7.5,48.23,11.34,1.28.32,2.36,1.42,3.55,2.16C584,1496.34,582.62,1499,582.55,1501.7Z"/><path class="cls-21" d="M451.91,1448.66q-2.22,20.25-4.5,40.5c-11.52-5.78-23-11.72-34.65-17.28-4.3-2.05-6-4.82-5.92-9.54.27-10.13-.11-20.28.36-30.38.09-2,2.74-3.87,4.21-5.81Q431.66,1437.43,451.91,1448.66Z"/><path class="cls-22" d="M490.19,1507.17l-42.78-18q2.26-20.25,4.5-40.5l42.76,18c-1.44,2.43-4.41,5.09-4.07,7.22C492.42,1485.07,488.71,1496.07,490.19,1507.17Z"/><path class="cls-23" d="M533,1520.67l-42.76-13.5c-1.48-11.1,2.23-22.1.41-33.29-.34-2.13,2.63-4.79,4.07-7.22l38.26,13.5Q533,1500.41,533,1520.67Z"/><path class="cls-24" d="M1435.21,827.92c0,16.57-1.15,33.13-1.78,49.69-.9-1-2.43-2-2.63-3.12-2.88-15.49-7.25-30.41-16.74-45-8.65,33.78-22.71,63.75-43.68,90.33l-11.08-8.21c-8.32,5-16.76,9.94-25.22,14.94-5.45,2.09-10.9,4.16-17.22,6.57a202.41,202.41,0,0,0-12.4-60.65c-7.27,11.55-13.59,21.56-19.89,31.58q-11.25,13.46-22.51,27-15.76,13.5-31.48,27.05L1205.8,976l-10.84,3.6c3.28-15.08,8.25-29.48,5.82-45.05l-40,25.76-36.14,17.92-4.59.09a9.46,9.46,0,0,1-.18-2.23c4.82-30.79-6.12-56.6-25.74-79.31q-24.67-28.51-51.38-55.36c9.5,24.51,20.23,48.07,35.42,69.38a262.5,262.5,0,0,1,15.89,25.64c2.09,3.75,2.57,8.41,3.76,12.64l-85.56,22.62Q1000.15,973.81,988,976c-19.51-41.43-51.69-69.77-95.31-90.09,8.51-1.8,14.38-3,20.23-4.3,27.5-6,54.15-14.56,78.3-29.25a159.77,159.77,0,0,0,26.33-20.64c7.13-6.75,9.13-15.53,6.68-25.76A81.74,81.74,0,0,0,1001,765.77c-5.42-5.27-8.86-10.53-8.86-18.28,0-4.77-1.51-9.51-2.32-14.29,29.07,3.42,58.19,5.59,87.43,2.16,19.28-2.25,38.5-5.13,57.61-7.71,2.56,15.61,4.34,32.36,8.23,48.58,6.53,27.19,19.36,51.06,42.33,68.19,6.24,4.66,13.3,8.3,20.24,11.93,7.71,4.07,15.25,3.35,21.8-2.75,5.94-5.53,6.87-12.62,3.15-21.71a11.93,11.93,0,0,1-1.37-4.46c21.51,10.94,43.1,21.06,68.1,19.44-19.38-10.57-38.53-21.47-54.13-37-15.25-15.26-29.27-31.73-44.24-48.09.68,22.26,2.59,44.85,7.52,67.22l-2,1.62c-3.15-2-6.61-3.62-9.43-6-17.48-15-26.66-34.77-32-56.66-7-28.81-7.11-58.13-3.46-87.14,5.31-42.44,10.21-84.75,7.58-127.6.9-1.48,2.18-2.86,2.59-4.45,4.16-15.49,13.37-25.5,29.86-27.21,10.29-1.08,20.64-1.53,31-2.28,4.75,1.6,10,2.35,14.13,5,8.37,5.33,16.11,11.65,24.12,17.57q10.14,14.63,20.24,29.26c7.53,14.44,18.22,26.48,29.3,38.23l38.21,36.08c6.52,7.62,13,15.28,19.6,22.86,3.87,4.43,7.9,8.75,11.86,13.12q14.68,25.86,29.32,51.74c3.58,11.7,7.34,23.33,10.69,35.1,2,7,3.38,14.14,5,21.2C1433.84,802.2,1435.21,815.07,1435.21,827.92Z"/><path class="cls-24" d="M1269.08,269.32c21.54,4.12,57.57,17,74.11,26.76-27.69,7.57-52.47,19.27-72.23,39.87-7.11,7.43-13.15,15.58-16.44,25.87,2.06-1.85,4.21-3.59,6.16-5.55a196.92,196.92,0,0,1,90.14-52.33c7.31-2,11.08-5.88,15.09-11.63,13.86-19.95,27.52-40.15,43-58.82,8.67-10.46,20.19-18.92,31.53-26.68,6.1-4.18,14.51-5,21.88-7.31l5.24,8.1c-4,4.49-8.24,9.34-12.56,14.12-13.93,15.43-28.37,30.43-41.67,46.38-12.54,15-24,31-35.64,46.77-1.81,2.46-2.61,6-3,9.13-1,9.55-1.59,19.14-2.34,28.71a128.66,128.66,0,0,1-29.12,50.47c-6.71,7.28-13.63,14.35-20.45,21.52l-29.25,22.52c-16.75,9.24-33.53,18.44-50.21,27.82-.93.53-1,2.56-1.51,3.88l-4.48,2.07c-1.71-.59-3.45-1.77-5.13-1.68-7.68.36-15.45,2.11-23,1.43-10.67-1-19.44,2.55-27.92,8.07-4.94,3.22-9.85,6.46-14.84,9.59-3.92,2.45-8,4.09-12.22.6l-11.11-21.3c14.5,2.8,26.82,8.81,40.15,2.21l-13.55-7.81a55.75,55.75,0,0,0-4-5.1c-11.09-11.26-22.4-22.3-33.3-33.73-3.73-3.91-6.48-8.74-9.68-13.15-.88-2.44-1.76-4.87-2.66-7.3q-3.25-8.69-6.52-17.35,1.13-13.5,2.26-27c2.87-9.72,5.79-19.43,8.52-29.2.16-.56-1.2-1.54-1.85-2.33,9.44-.6,19-2.37,28.31-1.54,15.8,1.41,31.37,4.83,46.28,11.56-6.37-11.85-17.23-18-31-23.21,4.45-5.37,8-10.48,12.35-14.76,16.45-16.15,35.86-28,56.65-37.65,7.09-3.28,11.23-7.46,13.93-15.44,9.65-28.5,25.16-53.2,51.43-69.67,12.6.68,14.9,3.88,11.36,15.75a11.51,11.51,0,0,0-.24,2.21l-15.81,27-13.37,29.32c-.17,4.26-3.09,4.31-6.26,4.25-4.9-.11-9.8,0-14.7,0l-.23,2.44Z"/><path class="cls-24" d="M1337.92,281.18l-33.33-11.49c1-2.74,1.81-5.5,3-8,13.37-27.55,28-54.33,47.1-78.49,15.51-19.62,35.24-31.72,60-35.39,6.21.4,11.72,2.12,15.74,8.79-2.59,3.2-5.18,6.75-8.14,9.95-6.85,7.39-13.88,14.6-20.84,21.89l-26.93,29.3-18,27c-3.35,6-6.88,11.9-10,18S1340.8,275,1337.92,281.18Z"/><path class="cls-25" d="M1322.82,424.7c6.82-7.17,13.74-14.24,20.45-21.52a128.66,128.66,0,0,0,29.12-50.47c2.5-2.19,5.56-4,7.42-6.64q15.59-22.26,30.65-44.88c4.68-7,8.7-14.43,13.52-21.32,7.41-10.61,15.26-20.91,22.88-31.37,6.43-8.82,13-17.58,19.16-26.56,5-7.21,9.57-14.71,14.33-22.08,2.22.1,4.46,0,6.65.36,1,.14,1.81,1,3.36,1.93-21.79,35.22-48.23,67.3-64.45,105.53-1.87,1-4.31,1.64-5.5,3.2-5.47,7.18-10.64,14.6-15.83,22q-13,18.58-25.95,37.27c-4.65,6.73-8.89,13.75-13.76,20.31-12.11,16.32-24.71,32.28-36.63,48.73-5.38,7.43-9.63,15.68-14.39,23.56l-18,6.62c7.18-10.54,14.56-20.94,21.41-31.68C1319.77,433.77,1321,429.05,1322.82,424.7Z"/><path class="cls-21" d="M1154.26,499c4.25,3.49,8.3,1.85,12.22-.6,5-3.13,9.9-6.37,14.84-9.59,8.48-5.52,17.25-9,27.92-8.07,7.55.68,15.32-1.07,23-1.43,1.68-.09,3.42,1.09,5.13,1.68,8.12,6.53,18.12,2.6,27,4.88l6.83,3.63c-4.53,3.26-8.35,6.46-12.59,9-7.24,4.27-15,7.75-22,12.32-2.7,1.75-4.06,5.58-6,8.46-10.32.74-20.68,1.19-31,2.26-16.5,1.73-25.71,11.73-29.85,27.22-.43,1.6-1.71,3-2.59,4.44Q1160.7,526.09,1154.26,499Z"/><path class="cls-26" d="M1230.56,519.24c2-2.88,3.34-6.71,6-8.46,7-4.57,14.77-8,22-12.32,4.24-2.5,8.06-5.7,12.59-9l-6.83-3.63,48.55-1.35c2,8.19,4,16.82,6.12,25.45-10.13,5.39-20.56,10.32-30.3,16.34-7.11,4.4-13.32,10.25-19.93,15.45-8-5.92-15.75-12.24-24.13-17.57C1240.59,521.59,1235.31,520.84,1230.56,519.24Z"/><path class="cls-18" d="M1124.64,978.21l36.16-17.92c1.21,3.05,1.91,6.44,3.71,9.09,14.23,21,28.67,41.87,43,62.78l-21.48,18.44c-7.08-7.71-14.59-15-18.77-25-.86-2.07-4.35-3-6.62-4.5V995.93l-2-1.14-9.76,12.65c-4.1-4.62-8.34-9.13-12.29-13.89C1132.49,988.56,1128.63,983.34,1124.64,978.21Z"/><path class="cls-27" d="M1207.56,1032.16c-14.38-20.91-28.82-41.77-43-62.78-1.8-2.65-2.5-6-3.71-9.09l40-25.76c2.43,15.56-2.53,30-5.83,45.05l10.84-3.59c5.27,9.07,10.38,18.25,15.92,27.16,1.65,2.65,4.54,4.54,6.87,6.79Q1218.07,1021,1207.56,1032.16Z"/><path class="cls-28" d="M1480.35,199.86c-4.76,7.37-9.34,14.87-14.33,22.08-6.2,9-12.73,17.74-19.16,26.56-7.62,10.46-15.47,20.76-22.88,31.37-4.82,6.89-8.84,14.33-13.52,21.32q-15.12,22.59-30.65,44.88c-1.86,2.65-4.92,4.45-7.42,6.64.75-9.57,1.32-19.16,2.34-28.71.34-3.14,1.14-6.67,3-9.13,11.64-15.77,23.1-31.72,35.64-46.77,13.3-16,27.74-31,41.67-46.38,4.32-4.78,8.57-9.63,12.56-14.12l-5.24-8.1Z"/><path class="cls-24" d="M1088.79,292.22c15.2.07,30.63-2.85,45.24,4.19,10.6,5.1,19.32,11.45,19.85,24.5l-30.5,9.68-32.33-4.89c-.8-.7-1.5-1.81-2.43-2.06-6.65-1.79-11.81-6.22-12.9-12.46-1.26-7.22,3.59-12.42,10.21-15.65C1087.14,294.94,1087.85,293.35,1088.79,292.22Z"/><path class="cls-20" d="M1318.34,609.25c-11.07-11.74-21.75-23.79-29.29-38.24l43.1-27.14,22.08,40.87c-3,2.59-5.75,5.83-9.2,7.63a141.62,141.62,0,0,1-18.42,7.72C1322,601.72,1318.63,604,1318.34,609.25Z"/><path class="cls-29" d="M1097.83,949.06c-.14,10.15.09,20.3-.59,30.41-.33,5-2.34,9.81-3.6,14.71q-3.51,13.47-7,26.92-6.75,20.33-13.52,40.64-6.72,17-13.46,33.89-6.59,14.92-13.21,29.82-7,13.9-14,27.82-9,16.9-17.89,33.82-10,17.55-19.9,35.13-10.35,16.14-20.72,32.27l-6.48,10c-40.56,66.37-70.71,138-105.8,207.2-2.67,5.26-5.71,10.35-8.59,15.53-2.52.31-5.07.47-7.54,1q-25.75,5-51.54,10.15l-56.21,6.62L686,1505l-45-2.37c-6-1.1-12-2.36-18-3.3-12.76-2-25.52-3.81-38.28-5.68-1.19-.74-2.27-1.84-3.55-2.16-16.07-3.84-32.14-7.58-48.23-11.34l-38.26-13.5-42.76-18q-20.25-11.25-40.5-22.51-2.27-6.86-4.57-13.7,5.84-12.2,11.7-24.4c.63,1.29,1.67,2.5,1.8,3.81,1.73,16,9.61,27.65,24,35.06,13.37,6.84,27.51,10.73,42.25,13.41,23.08,4.23,44.94,1.73,63.34-13.17,7.52-6.07,15.31-8.16,23.88-10,2.52-.51,5.07-1,7.52-1.78,27.72-8.41,44.44-27.88,52.86-54.61,4.23-13.42,9-25.25,18.54-36.66,15.1-18.1,20.41-40.78,15.53-64.88-1.33-6.51-1.75-13.21-2.61-19.81-2.9-6.77-5.78-13.56-8.69-20.34q-2.38-12.36-4.79-24.73-5.78-14.38-11.57-28.74l2.5-2.79q5.67-15.76,11.39-31.48,3.35-18,6.7-36c.77-4.5,1.54-9,2.3-13.52,1.28-2.77,2.57-5.54,4.19-9h11.45c7.29,25,22.62,45.21,38.39,65.19l58.63,47.22c12.4,6.48,24.77,13,38.07,19.94v-17.58l26.92,13.95v-11.72c-2.68-15.75-3.92-31.51-.09-47.26q2.63-13.39,5.29-26.83c1.39,1,3.17,1.62,4.07,2.91,6,8.66,11.9,17.44,17.82,26.17a73.42,73.42,0,0,1,6,5c13.59,13.84,30.18,23.16,47.75,30.65,14.52,6.17,14.68,5.79,25.19-4.27l17.21,5.92q2.73-4,5.4-8,6.72-15.77,13.39-31.51,4.66-14.68,9.34-29.32,3.27-14.61,6.59-29.26c.77-6,1.51-12,2.26-18q-1.59-30.29-3.22-60.56Q993.09,990.73,988,976q12.12-2.16,24.26-4.28Z"/><path class="cls-23" d="M1332.15,543.87,1289.05,571l-20.24-29.25c6.61-5.2,12.82-11,19.93-15.45,9.74-6,20.17-10.95,30.3-16.34Z"/><path class="cls-30" d="M1313.85,462.75c4.76-7.88,9-16.13,14.39-23.56,11.92-16.45,24.52-32.41,36.63-48.73,4.87-6.56,9.11-13.58,13.76-20.31q12.9-18.69,25.95-37.27c5.19-7.4,10.36-14.82,15.83-22,1.19-1.56,3.63-2.16,5.5-3.2l-17.81,45.06c-6.62,7.38-13.89,14.28-19.74,22.23-12.41,16.86-24.3,34.13-36,51.53-4.43,6.61-7.65,14-11.42,21.09Z"/><path class="cls-16" d="M1318.34,609.25c.29-5.28,3.66-7.53,8.27-9.16a141.62,141.62,0,0,0,18.42-7.72c3.45-1.8,6.16-5,9.2-7.63l30,42.28-27.64,18.3Z"/><path class="cls-31" d="M1284.57,904.05l19.88-31.56a201.68,201.68,0,0,1,12.41,60.65l17.23-6.57c3,8.41,5.66,17.1,15.57,20.2l-20.78,20.17a11.77,11.77,0,0,1-2.5-2.18c-8.67-13.33-17.08-26.84-26-40C1295.54,917.56,1289.87,910.93,1284.57,904.05Z"/><path class="cls-32" d="M1284.57,904.05c5.3,6.88,11,13.51,15.83,20.7,8.9,13.17,17.31,26.68,26,40a11.77,11.77,0,0,0,2.5,2.18l-29.15,24.8c-1.28-14.5-1.92-26.53-3.51-38.43a185.48,185.48,0,0,0-8.17-35.38l-12.86,24.37L1262.06,931Z"/><path class="cls-33" d="M1124.64,978.21c4,5.13,7.85,10.35,12,15.34,3.95,4.76,8.19,9.27,12.29,13.89-10,19.83-26.75,32.64-46.37,44.73.71-3.34,1.13-5.54,1.66-7.72q7.9-33.08,15.85-66.16Z"/><path class="cls-34" d="M1356.55,645.32l27.64-18.3,26.33,38.92L1388,681.3c-4-4.37-8-8.67-11.86-13.12C1369.57,660.61,1363.09,653,1356.55,645.32Z"/><path class="cls-35" d="M1388,681.3l22.49-15.36c12.42,15.32,20.27,33.06,27.11,51.33-5.41,2.81-11.05,5.26-16.1,8.61-2.07,1.38-2.83,4.72-4.18,7.16Q1402.68,707.18,1388,681.3Z"/><path class="cls-36" d="M1433.43,877.62c.64-16.57,1.76-33.13,1.77-49.69,0-12.86-1.37-25.72-2.13-38.58,4.24-8.32,12.15-11.13,20.32-13.56,5.11,24.5,1.68,48.42-6,71.71C1443.91,857.93,1438.15,867.6,1433.43,877.62Z"/><path class="cls-37" d="M1453.39,775.79c-8.17,2.43-16.08,5.24-20.32,13.56-1.66-7.07-3-14.22-5-21.2-3.36-11.76-7.1-23.41-10.68-35.11,1.35-2.44,2.11-5.78,4.18-7.16,5-3.35,10.69-5.8,16.1-8.61,7.22,14.85,12.31,30.3,13.79,46.86C1451.76,768,1452.71,771.9,1453.39,775.79Z"/><path class="cls-28" d="M1401.54,188.4c7-7.29,14-14.5,20.84-21.89,3-3.2,5.55-6.75,8.14-9.95-4-6.67-9.53-8.39-15.74-8.79,15.19-4.72,35.43-3.5,54.52,3.71L1442,179.37c-6.06,1.2-12.14,2.27-18.16,3.63C1416.34,184.67,1409,186.59,1401.54,188.4Z"/><path class="cls-38" d="M1228.58,1009.94c-2.33-2.25-5.22-4.14-6.87-6.79-5.54-8.91-10.65-18.09-15.92-27.16l24.78-17.91c1.51,1.5,3.11,2.93,4.52,4.53,5.27,5.95,10.47,12,15.7,18Z"/><path class="cls-16" d="M1250.79,980.57c-5.23-6-10.43-12-15.7-18-1.41-1.6-3-3-4.52-4.53L1262.06,931l13.13,11.27Z"/><path class="cls-25" d="M1401.54,188.4c7.41-1.81,14.8-3.73,22.25-5.4,6-1.36,12.1-2.43,18.16-3.63-4.21,4-8.36,8.08-12.66,12-7.34,6.68-14.79,13.26-22.19,19.88-5.92,1.93-11.73,4.6-17.81,5.56-4.75.75-9.58,5-14.68.9Z"/><path class="cls-33" d="M1341,447.59c3.77-7.06,7-14.48,11.42-21.09,11.66-17.4,23.55-34.67,36-51.53,5.85-8,13.12-14.85,19.74-22.23-12.7,33-30.54,62.62-56.48,87C1348.43,442.71,1344.54,445,1341,447.59Z"/><path class="cls-39" d="M1337.92,281.18c2.88-6.16,5.59-12.4,8.69-18.45s6.67-12,10-18c3.41,0,7,.7,10.18-.22,5.84-1.69,11.4-4.33,17.08-6.58-3,5-6,10-9.1,14.89-7.28,11.59-14.62,23.15-22.58,35.73Z"/><path class="cls-40" d="M1122.74,420.12c3.2,4.41,6,9.24,9.68,13.15,10.9,11.43,22.21,22.47,33.3,33.73a55.75,55.75,0,0,1,4,5.1c-5.93-3-12.32-5.3-17.7-9.07-16.76-11.73-33.14-24-49.67-36.08Z"/><path class="cls-17" d="M1160.69,1021.09c2.27,1.47,5.76,2.43,6.62,4.5,4.18,10,11.69,17.3,18.77,25l-31.28,22.65Z"/><path class="cls-41" d="M1088.79,292.22c-.94,1.13-1.65,2.72-2.86,3.31-6.62,3.23-11.47,8.43-10.21,15.65,1.09,6.24,6.25,10.67,12.9,12.46.93.25,1.63,1.36,2.43,2.06l-16.59,7.11-26.25-15C1059.76,305.42,1071,293.67,1088.79,292.22Z"/><path class="cls-30" d="M1122.74,420.12,1102.38,427c-9.42-3.4-12.82-11.08-13.07-20.1-.21-7.73.92-15.5,1.45-23.24v17.94l22.8-6.08q3.26,8.67,6.52,17.35C1121,415.25,1121.86,417.68,1122.74,420.12Z"/><path class="cls-42" d="M1311.59,204.19a11.51,11.51,0,0,1,.24-2.21c3.54-11.87,1.24-15.07-11.36-15.75,14.16-11.22,30.88-15.41,50.31-18.52l-26.12,34.2Z"/><path class="cls-19" d="M1122.49,336.94c.65.79,2,1.77,1.85,2.33-2.73,9.77-5.65,19.48-8.52,29.2-5.34,1.17-10.65,2.6-16,3.38-2.08.31-4.38-.84-6.58-1.33.76-3.9,1.46-7.81,2.31-11.68.77-3.5,2.76-7-.8-10.19,7.56-4,16.31-6,21.56-13.71.28-.41,1.39-.24,2.11-.35Z"/><path class="cls-43" d="M1349.66,946.77c-9.91-3.1-12.56-11.79-15.57-20.2l25.22-15,11.07,8.21Z"/><path class="cls-30" d="M1383.89,237.92c-5.68,2.25-11.24,4.89-17.08,6.58-3.15.92-6.77.2-10.18.22l18-27c5.1,4.06,9.93-.15,14.68-.9,6.08-1,11.89-3.63,17.81-5.56Z"/><path class="cls-25" d="M1093.19,370.52c2.2.49,4.5,1.64,6.58,1.33,5.4-.78,10.71-2.21,16-3.38q-1.14,13.5-2.26,27l-22.8,6.08V383.61Z"/><path class="cls-38" d="M1322.82,424.7c-1.81,4.35-3,9.07-5.55,13-6.85,10.74-14.23,21.14-21.41,31.68l-18,4.58c1.73-6.67,6-11.52,10.69-16.38,2.53-2.62,3.41-6.85,5-10.35Z"/><path class="cls-44" d="M1118.37,334.59c-.72.11-1.83-.06-2.11.35-5.25,7.66-14,9.74-21.56,13.71l-20.24-15.84,16.59-7.11,32.33,4.89Z"/><path class="cls-16" d="M1293.57,447.22c-1.62,3.5-2.5,7.73-5,10.35-4.69,4.86-9,9.71-10.69,16.38l-36,5c.48-1.32.58-3.35,1.51-3.88C1260,465.66,1276.82,456.46,1293.57,447.22Z"/><path class="cls-45" d="M1311.59,204.19l13.07-2.28-17.58,29.28-11.3,0Z"/><path class="cls-46" d="M1295.78,231.15l11.3,0q-6.66,13.51-13.33,27l-11.34,2.26Q1289.1,245.81,1295.78,231.15Z"/><path class="cls-47" d="M1282.41,260.47l11.34-2.26-2.48,8.41c-6.44,0-11.88-.21-17.29.12-1.68.1-3.27,1.68-4.9,2.58l-7.86-2.19.23-2.44c4.9,0,9.8-.08,14.7,0C1279.32,264.78,1282.24,264.73,1282.41,260.47Z"/><path class="cls-30" d="M652.76,1324.12c-9.52,11.41-14.31,23.24-18.54,36.66-8.42,26.73-25.14,46.2-52.86,54.61-2.45.75-5,1.27-7.52,1.78-8.57,1.83-16.36,3.92-23.88,10-18.4,14.9-40.26,17.4-63.34,13.17-14.74-2.68-28.88-6.57-42.25-13.41-14.42-7.41-22.3-19-24-35.06-.13-1.31-1.17-2.52-1.8-3.81.65-1.69,1.24-3.44,2-5.08a26.91,26.91,0,0,1,2.25-3.38,136.49,136.49,0,0,0,50.8,18.3c25.72,3.78,50.07,1.86,69.6-18.39a11.32,11.32,0,0,1,6.77-2.83c38.87-3.16,65.76-28.29,75.28-70.15,1-4.5,2.48-9.77,5.56-12.8,19.13-18.8,27.23-41.5,26.1-67.92-.09-2.23.05-4.48.09-6.71,2.91,6.78,5.79,13.57,8.69,20.34.86,6.6,1.28,13.3,2.61,19.81C673.17,1283.34,667.86,1306,652.76,1324.12Z"/><path class="cls-48" d="M737.76,1543.15H686V1505l51.76-.07c-.72,9.2-1.69,18.39-2,27.61C735.62,1536.06,737,1539.62,737.76,1543.15Z"/><path class="cls-24" d="M478.89,740c-7.68,16.86-6.07,33.54,2.36,49.36C488,802,496.1,813.86,503.6,826.08c-.53,3.14-1.53,5.84,1.41,9,11.89,12.67,23,26,35.11,38.52,4.16,4.33,10.15,6.89,15.31,10.26,12.26,11.69,27.06,19,42.77,24.71,1.71.74,3.37,1.63,5.13,2.2,18.39,6,37.38,9.36,56.56,11,7.83.7,15.9-1.22,23.86-1.95,7.22-.73,14.44-1.59,21.67-2.14,4-.31,8-.12,12-.15-2.88,3.27-5.7,6.6-8.65,9.81-23.16,25.23-34.29,55.35-36.34,89.17l0,0-20.5.22c-1.67-8-2.92-16.08-5.09-23.93-7.81-28.36-24.84-49.8-49.91-65a165.74,165.74,0,0,0-41.76-17.7c-2.2,12.12-4,23.76-6.45,35.27-6.64,31.52-16.25,62.08-31.9,90.38-10.53,19.06-22.81,36.84-42,48.55a23.89,23.89,0,0,1-2.55-3.35q-9.11-17.52-18.11-35.12l-21.69-39.62c-3.93,3.69-6.6,5.74-8.72,8.26-5,6-9.79,12.12-14.67,18.2-11.76-7.9-23.09-16.55-35.37-23.54C345.67,993.22,316,988,284,995.67a225.57,225.57,0,0,0-79.9,36.7c-15.27,11-28.8,23.87-38.9,40.7,2.64-2,5.33-4,7.91-6.12,25.64-21,53-39,85.07-48.69q63-19.1,117.87,17.21c22.1,14.67,40.56,33.08,53.92,56.25,2.05,3.55,3.92,7.22,5.69,10.92a42.51,42.51,0,0,1,1.76,5.6l-25,14.93.53,2c11.81-2.09,23.78-3.52,35.38-6.43,15.18-3.81,29.9-9.45,45.1-13.12,20.33-4.92,40.81-9.74,62.07-7.69,3.91,5.79,0,11.44-1,16.79-2.75,14.67-6.75,29.11-10.26,43.64l-20.24,51.78c-1.26,1.75-2.88,3.33-3.71,5.25-8.11,18.7-19.85,35.08-32.29,51-13.4,16.18-29,29.61-48.15,38.66-12.71-7.88-26.06-13.44-41.49-11.45-4.29-.83-8.55-2-12.88-2.4-9.38-.74-18.27-2.13-23.52-11.32q-4.51-10.12-9-20.25c-2.07-10.06-4.14-20.12-6.47-31.37-6.12.65-13,2.08-19.81,2-17.48-.31-35-1.31-52.43-2q-16.51-2.23-33-4.48a317.9,317.9,0,0,1-103.67-32.52c-15.55-8-30.39-17.36-45.55-26.11-2-2.12-3.75-4.58-6-6.31-15.07-11.38-29.19-23.61-40.66-38.84-7.05-9.36-15.15-17.92-22.77-26.83-1.35-3.8-2.69-7.6-4.4-12.45,14.43-4.31,26,3.86,39.2,6.31.17-40.6-4.64-81.55,22-118.53,14.88,24.73,17.31,51.69,26.29,76.84A110,110,0,0,0,136,1022.67c15.51-16.22,31.37-32.54,49.21-46,29.36-22.14,53.79-48.76,77.22-76.62,29.5-35.07,60.6-68.55,97.39-96.24C396.25,776.43,435.59,754.49,478.89,740Z"/><path class="cls-24" d="M621.39,987c7.33,14,8.71,29.22,8.34,44.67-.78,32.83-11.18,63-23.93,90.39l-34.59-31.26c-4.69-17.72-5-35.82-4.52-54,0-2.26,0-4.51,0-6.77a108.15,108.15,0,0,1,11.21-40.52c.52-1,1-2,1.57-2.93,9.79-16.37,21-17.8,34.94-4.62C616.46,984,619.05,985.35,621.39,987Z"/><path class="cls-28" d="M91.91,1165.07c15.16,8.75,30,18.11,45.55,26.11a317.9,317.9,0,0,0,103.67,32.52q16.51,2.22,33,4.48c6.68,3.65,13,8.14,20.09,10.8,19.39,7.29,39.06,13.82,58.62,20.65q4.53,10.13,9,20.25c-5.4,4.92-11-1.4-16.45.27-1.14-2.18-2.27-4.36-3.71-7.13l-15.65,5.09c-2-1.51-3.85-3.59-6.12-4.42-11.84-4.31-23.84-8.17-35.71-12.42-29.67-10.61-59.28-21.42-89-32-27.91-10-55.7-20.3-83.93-29.25-10-3.19-19.53-9.76-30.95-7.82l-27.29-35.91c8.23-.86,15.09,2.94,22.22,6.19C80.51,1164.82,85.66,1169,91.91,1165.07Z"/><path class="cls-32" d="M439.79,1305.05c19.13-9,34.75-22.48,48.15-38.66,1.55.65,3.33,2.15,4.63,1.81A64.76,64.76,0,0,0,504,1264c19.48-9.28,38.8-18.89,58.37-28,7-3.25,14.56-5.29,21.86-7.87,8,10.21,15.52,20.68,18.3,33.73-5-3.69-9.73-2-14.62.52q-16.31,8.41-32.79,16.46c-7.95,3.87-16.15,7.21-24,11.25-1.5.78-1.88,3.73-2.78,5.68l-4.34-.19-9-2.17c-4,2-7.94,4-12,5.9q-25.73,11.76-51.49,23.43Z"/><path class="cls-35" d="M80.42,1192.19c11.42-1.94,20.91,4.63,31,7.82,28.23,9,56,19.3,83.93,29.25,29.68,10.59,59.29,21.4,89,32,11.87,4.25,23.87,8.11,35.71,12.42,2.27.83,4.09,2.91,6.12,4.42a82.12,82.12,0,0,1-37.71,8.76c-4.14-1.24-8.34-2.3-12.39-3.78-8.69-3.19-17.26-6.71-26-9.86-3.09-1.12-6.86-.83-9.55-2.45-10.91-6.57-22.86-10-34.94-13.57-10.88-3.19-21.24-8.11-32-11.74-17.13-5.76-33.67-13.64-52-15.22Z"/><path class="cls-49" d="M523.94,1210.12l20.24-51.78c.19,3.18,1,5.06,4.83,3.25,6.72-3.19,13.55-6.16,20.39-9.1,9.54-4.1,19.14-8.09,28.71-12.13l20.12,31.51c-3.93.84-8.13,1.07-11.74,2.64-10.88,4.74-21.68,9.72-32.21,15.19-4.43,2.3-8.08,6.08-12.09,9.19-3.5,1-7.17,1.56-10.46,3-6.09,2.68-12,5.88-17.93,8.83C530.42,1212.39,527,1214.13,523.94,1210.12Z"/><path class="cls-50" d="M530.51,1322.64c4.91,11.16,4.54,22.66,1.58,34.08-3.08,11.87-11.83,17.82-23.33,19.94-22.19,4.09-43.12-.67-63.37-9.61l6.63-8.39c2.65-6.14,9.07-3.62,13.47-5.84q29.17-14.7,58.54-29C525.93,1322.89,528.34,1323,530.51,1322.64Z"/><path class="cls-45" d="M523.94,1210.12c3,4,6.48,2.27,9.86.61,6-3,11.84-6.15,17.93-8.83,3.29-1.45,7-2,10.46-3l2.33,4.67q9.88,12.29,19.75,24.58c-7.3,2.58-14.86,4.62-21.86,7.87-19.57,9.06-38.89,18.67-58.37,28a64.76,64.76,0,0,1-11.47,4.24c-1.3.34-3.08-1.16-4.63-1.81,12.44-15.94,24.18-32.32,32.29-51C521.06,1213.45,522.68,1211.87,523.94,1210.12Z"/><path class="cls-31" d="M530.51,1322.64c-2.17.37-4.58.25-6.48,1.18q-29.36,14.33-58.54,29c-4.4,2.22-10.82-.3-13.47,5.84,3-9.74.18-19.53.25-29.29l-.66-6.62q25.75-11.71,51.49-23.43c4-1.85,8-3.93,12-5.9C522.14,1302.15,528.4,1311.3,530.51,1322.64Z"/><path class="cls-42" d="M528.38,1295.78c.9-2,1.28-4.9,2.78-5.68,7.85-4,16.05-7.38,24-11.25q16.5-8,32.79-16.46c4.89-2.53,9.6-4.21,14.62-.52,4.27,11.15,6.33,22.46,2.58,34.22-.06-3.51-1.42-4.36-4.77-2.88-9.36,4.14-18.91,7.84-28.22,12.08-7.22,3.29-14.2,7.13-21.29,10.73Z"/><path class="cls-51" d="M121.5,1230.25c18.36,1.58,34.9,9.46,52,15.22,10.77,3.63,21.13,8.55,32,11.74,12.08,3.53,24,7,34.94,13.57,2.69,1.62,6.46,1.33,9.55,2.45,8.7,3.15,17.27,6.67,26,9.86,4.05,1.48,8.25,2.54,12.39,3.78-13.68-.1-27.58,1.34-41-.59C200.29,1279.5,158.42,1260.25,121.5,1230.25Z"/><path class="cls-50" d="M550.87,1316c7.09-3.6,14.07-7.44,21.29-10.73,9.31-4.24,18.86-7.94,28.22-12.08,3.35-1.48,4.71-.63,4.77,2.88-1.6,27.54-18.84,49.91-43,55.76-.7-4.64-.75-9.5-2.24-13.87C557.4,1330.5,554,1323.32,550.87,1316Z"/><path class="cls-46" d="M598.11,1140.36c-9.57,4-19.17,8-28.71,12.13-6.84,2.94-13.67,5.91-20.39,9.1-3.82,1.81-4.64-.07-4.83-3.25,3.51-14.53,7.51-29,10.26-43.64,1-5.35,4.9-11,1-16.79,3.2,1.59,7.09,2.49,9.47,4.89,11.13,11.25,21.86,22.89,32.65,34.47C598.15,1137.92,597.94,1139.31,598.11,1140.36Z"/><path class="cls-40" d="M661.22,1095.36q-3.33,18-6.7,36-5.7,15.72-11.39,31.48l-2.5,2.79c-5.71-9.54-11.43-19.08-17-28.33,6.7-17.87,13.32-35.51,19.93-53.18,4.87.92,8.87,2.77,11.46,7.54C656.05,1093.47,659.11,1094.15,661.22,1095.36Z"/><path class="cls-45" d="M564.52,1203.56l-2.33-4.67c4-3.11,7.66-6.89,12.09-9.19,10.53-5.47,21.33-10.45,32.21-15.19,3.61-1.57,7.81-1.8,11.74-2.64l11.31,27c-9.82-2.55-29.44,6.68-33.61,15.8-2.2-1-4.36-2.23-6.63-3.11-5.27-2-10.6-3.94-15.91-5.9Z"/><path class="cls-38" d="M621.39,987c-2.34-1.66-4.93-3.06-7-5-14-13.18-25.15-11.75-34.94,4.62-.57,1-1.05,2-1.57,2.93l-20,6.77c4.89-18.6,9.77-37.19,15-56.91C594.36,950,612.66,963.45,621.39,987Z"/><path class="cls-52" d="M345.45,1280.15c5.46-1.67,11.05,4.65,16.45-.27,5.25,9.19,14.14,10.58,23.52,11.32,4.33.35,8.59,1.57,12.88,2.4L422,1307.4C396.92,1329.1,358.78,1315.26,345.45,1280.15Z"/><path class="cls-53" d="M409.07,1032.71c4.88-6.08,9.64-12.25,14.67-18.2,2.12-2.52,4.79-4.57,8.72-8.26l21.69,39.62c-2.88,6.66-8.83,4-13.69,4.44-3.86.38-8.74-1.3-9,5.17Z"/><path class="cls-41" d="M595.93,1214.65c4.17-9.12,23.79-18.35,33.61-15.8,1.94,8.53,5.06,17,5.49,25.62s-1.81,17.5-2.88,26.26c-10.21-13-20.07-26.24-35.15-34.19C596.46,1216.26,596.28,1215.3,595.93,1214.65Z"/><path class="cls-23" d="M566.67,1030.07c0,2.26,0,4.51,0,6.77-.75,5.32-1.76,10.62-2.16,16-.3,3.94-.61,7-5.16,8.75-7.24,2.71-14.11,6.38-21.25,9.35-7.45,3.1-14.5,7.83-23.22,6.43l25.17-38.22Z"/><path class="cls-16" d="M91.91,1165.07c-6.25,3.89-11.4-.25-16.56-2.6-7.13-3.25-14-7-22.22-6.19-13.42-19.52-24-40.41-30.7-63.19,7.62,8.91,15.72,17.47,22.77,26.83,11.47,15.23,25.59,27.46,40.66,38.84C88.16,1160.49,89.9,1163,91.91,1165.07Z"/><path class="cls-51" d="M431.42,1055.48c.3-6.47,5.18-4.79,9-5.17,4.86-.48,10.81,2.22,13.69-4.44q9,17.58,18.11,35.12a23.89,23.89,0,0,0,2.55,3.35l-17.36,10.46Z"/><path class="cls-26" d="M514.9,1077.33c8.72,1.4,15.77-3.33,23.22-6.43,7.14-3,14-6.64,21.25-9.35,4.55-1.7,4.86-4.81,5.16-8.75.4-5.34,1.41-10.64,2.16-16-.49,18.15-.17,36.25,4.52,54-11.32-7.84-23.93-7.23-36.69-5.6-8.75,1.12-17.48,2.32-27.56,1.64Z"/><path class="cls-37" d="M595.93,1214.65c.35.65.53,1.61,1.07,1.89,15.08,8,24.94,21.24,35.15,34.19A39.29,39.29,0,0,1,620.7,1275c-7.93-29.23-24.46-51.53-47.31-69.32,5.31,2,10.64,3.86,15.91,5.9C591.57,1212.42,593.73,1213.61,595.93,1214.65Z"/><path class="cls-33" d="M452.27,1329.37c-.07,9.76,2.77,19.55-.25,29.29l-6.63,8.39c-11.41-3.82-16.29-12.48-16.24-23.77,0-8.67,1.48-17.34,2.51-28.24,6.43,5.23,10.86,9,15.52,12.51C448.55,1328.58,450.55,1328.78,452.27,1329.37Z"/><path class="cls-54" d="M663.52,1081.84c-.76,4.5-1.53,9-2.3,13.52-2.11-1.21-5.17-1.89-6.16-3.71-2.59-4.77-6.59-6.62-11.46-7.54a278.47,278.47,0,0,0,8.38-65.28c1.68,3.15,3.78,6.12,5,9.43C663.41,1045.58,664.11,1063.66,663.52,1081.84Z"/><path class="cls-49" d="M679.16,1072.86H667.71c-1.62,3.44-2.91,6.21-4.19,9,.59-18.18-.11-36.26-6.55-53.58-1.21-3.31-3.31-6.28-5-9.43-.05-.7-.07-1.4-.09-2.1,6.81-.06,13.66-.15,20.47-.22C671.4,1035.68,674.82,1054.34,679.16,1072.86Z"/><path class="cls-55" d="M566.67,1030.07l-26.6,9,17.85-42.79,20-6.77A108.15,108.15,0,0,0,566.67,1030.07Z"/><path class="cls-56" d="M550.87,1316c3.08,7.3,6.53,14.48,9.08,22,1.49,4.37,1.54,9.23,2.24,13.87l-15.43,4.29c-.33-6.42-.39-11.57-.89-16.67A67,67,0,0,0,524,1295.59l4.34.19Z"/><path class="cls-24" d="M865.5,818c-4.57,1.33-7.7.27-11.23-2.48-9.82-7.65-20.44-13.57-33-15.77a38.23,38.23,0,0,0-28.8,6.17c-5.31,3.48-10.94,6.88-15.21,11.43-6.06,6.41-12.25,7.4-20.84,6.19q-132.2-19-212.17-125.67c-2.18-2.9-3.4-6.5-5.07-9.79,3.34-21.15.66-41.83-5.87-62-6.21-19.12-13.19-38-20.66-59.34l-25,33.37c-1.44-10.8-2.75-20.27-4-29.77a62.58,62.58,0,0,1-.27-6.73c-.22-17.21-4.27-35.46,14.81-47.41-.65-.45-1.33-.93-2-1.38-6.77,1.78-13.71,3.18-20.3,5.47-6.32,2.19-12.29,5.31-18.41,8-.92-36.52,42.6-77.32,99.94-93.3-9.92-7.54-21.13-9.29-33.71-9.65-2.72-63.71,13.66-119.72,63.4-163,2.16-1.42,4.43-2.68,6.45-4.27A49.87,49.87,0,0,1,605.77,251a.17.17,0,0,1,.12-.05c10.35-4.12,21.4-4.07,33.19-.79l1.78.52.11,0,.16,0c11.34,3.19,22.71,6.5,34.16,9.15.63.16,1.26.32,1.91.45,4.26,1,8.55,1.85,12.85,2.62,1,.18,2,.33,3,.49a130.69,130.69,0,0,0,46.49-1.08,5.58,5.58,0,0,0,.68-.16,141.19,141.19,0,0,0,40.73-15.62q.89-.47,1.8-.87s0,0,0,0c.74-.31,1.51-.6,2.23-.94l25.31,17.42-.07,2.29c-23.4-.94-32.15,15.19-38.41,32.7C759.88,330.45,758,365,762.36,399.9q-19.11,18.19-38.19,36.41a33.32,33.32,0,0,1,0-5.38c4.07-26.85-4.59-48.86-24.89-66.57-2.79-13.07-11.32-22.55-20.12-31.84a106.2,106.2,0,0,0-6.53-8.6c-.76-.83-2.74-.56-4.16-.79-1.44-1.32-2.88-2.67-4.32-4-.49-1.38-.58-3.22-1.55-4.08-11.37-10.06-23.92-18.23-39.2-20.52-15.91-2.41-28.9,3.24-37.41,17.08A61,61,0,0,0,578.12,330c-2.23,10.17-3,20.68-4.35,31.05l-.27,5.13c.75,5.27,1.51,10.51,2.28,15.76.72,3,1.44,6,2.16,9,1.91,8.26,3.53,16.59,5.89,24.71.54,1.89,3.54,3.06,5.4,4.55.39,17.71,9.41,31.93,19.94,46.47-14.4.16-27,2.47-37.8,11,5.53.81,10.89.42,16.24,0,6.82-.52,13.8-2.27,19.76,2.93-29.23,5.65-57.25,40-35.8,81.22-3.8,1.91-2.25,4.47-1.28,7.4,4,12.26,13.09,19.89,23.44,26.49l24.69,13.57q7.91,10.1,15.82,20.18,12.36,13.5,24.73,27c3,2.63,5.92,5.29,8.87,7.92-3.8,9-7.38,17.42-11,25.88-3.42,9-4,18.27.18,26.92,7.81,16.29,20.14,28.73,35.27,38.5,14.42,9.3,28.42,19.31,43.36,27.68,12.18,6.84,18,3.67,22.51-9.77a38.07,38.07,0,0,0,2.13-8.66c1-11.16,1.78-22.35,2.61-33.51.45-6.07.77-12.22,8.42-13.91q4.32,15.2,8.66,30.41c2.7,9.43,8.78,15.7,18,19,10.26,11.37,23.06,11.14,36.25,7.4,17.31-4.92,31.71-15,44.67-27.11,10.46-9.81,10.67-12.47,1.35-23.25-12.33-14.24-22.8-29.62-30.47-46.85q3.48-9.23,7-18.46c6.86-4.07,13.43-8.82,20.68-12.06,6.86-3.06,13.14-9.45,21.87-5.85,7.16,27.59,15.8,54.68,27.35,80.77a38.35,38.35,0,0,0,2.81,4.61A88.67,88.67,0,0,1,865.5,818Z"/><path class="cls-57" d="M814.25,1187.63v17.58c-13.3-7-25.67-13.46-38.07-19.94l-58.63-47.22c-15.77-20-31.1-40.21-38.39-65.19-4.34-18.52-7.76-37.18-6.8-56.35l0,0,26.71-2.27c-.63,21.76,1.26,43.09,9.36,63.64,13,32.9,35.09,58.74,62.66,80C784.93,1168.57,799.83,1177.77,814.25,1187.63Z"/><path class="cls-52" d="M699.12,1014.26l-26.71,2.27c2.05-33.82,13.18-63.94,36.34-89.17,3-3.21,5.77-6.54,8.65-9.81,5.13-4.74,10.53-9.23,15.26-14.33,1.74-1.89,1.92-5.24,2.81-7.92l25.92-5.44C730.6,927,705.5,965.87,699.12,1014.26Z"/><path class="cls-58" d="M947.19,1176.2c-10.51,10.06-10.67,10.44-25.19,4.27-17.57-7.49-34.16-16.81-47.75-30.65a73.42,73.42,0,0,0-6-5c-5.92-8.73-11.77-17.51-17.82-26.17-.9-1.29-2.68-2-4.07-2.91,4.45-13.75,8.91-27.5,13.88-42.82,2.12,6.23,3.83,10.94,5.31,15.68,12.7,41.14,39.68,69.07,79,85.7A15.25,15.25,0,0,1,947.19,1176.2Z"/><path class="cls-59" d="M683.75,919.84c-8,.73-16,2.65-23.86,1.95-19.18-1.69-38.17-5-56.56-11-1.76-.57-3.42-1.46-5.13-2.2-1.22-2.61-3-4.93-.11-7.91,2.47-2.53,5.18-5.56,2.4-9.65l58.54,9,15.35,3.17-12.2,16.73Z"/><path class="cls-60" d="M764.16,863.32,731,870.21l-27,2.29-22.5-.06c-7.49-.75-15-1.47-22.51-2.21-2.25,0-4.52.07-6.77.11q-7.89-2.19-15.77-4.41l-24.67-4.79c-7.54-2.18-15-4.34-22.59-6.5l.09-.23c-13-6.82-26.15-13.41-38.89-20.7-2.14-1.22-3.62-5.63-3.33-8.33.2-1.75,4.07-4.21,6.46-4.41,6.55-.56,13.18-.09,19.78,0l13.7,6.44,4.19-.45c-1.64-2.34-2.95-4.21-4.25-6.08l-38.4-33.33a104.21,104.21,0,0,1-33-50.29c.54-2.41.92-4.87,1.69-7.21,1.62-5,3.44-9.92,5.4-15.5,9.41,12.35,17.76,23.29,26.08,34.23,2.27,3,4.52,6,6.8,8.93l36,31.53,9,4.55,11.3,8.86,24.73,13.57,15.6,4.8c0,.67.07,1.35.13,2,7.52,3,15,5.92,22.53,8.87L695,836.48c.77.74,1.51,1.5,2.25,2.27L722,843.38q20.14,3.29,40.3,6.6Q763.23,856.66,764.16,863.32Z"/><path class="cls-61" d="M863.49,991.82c-3.17,15.57-5.29,31.44-9.74,46.65-8.13,27.77-18.41,54.94-26.24,82.77-4,14.14-4.5,29.24-6.57,43.91-3.94-10.53-6-21.54-3.65-32.5,5.67-26.78,12.2-53.4,18.23-80.13.83-3.58.9-7.34,1.3-11q2.29-13.6,4.57-27.19c.7-3,1.4-6,2.12-9q1.14-16.85,2.27-33.68c5.29-4.46-.76-8.83-.16-13.46,1.92-14.74-3-28.63-6.68-42.6,5.9-1.94,7.74,2.29,10,6.32C861.42,943.64,865.9,967,863.49,991.82Z"/><path class="cls-28" d="M683.75,919.84H662.18l12.2-16.73L659,899.94c16.63-.14,33.27.17,49.87-.59,8.9-.4,17.72-2.64,26.57-4.05-.89,2.68-1.07,6-2.81,7.92-4.73,5.1-10.13,9.59-15.26,14.33-4,0-8-.16-12,.15C698.19,918.25,691,919.11,683.75,919.84Z"/><path class="cls-62" d="M979,822.1c-6.82,10.24-13.41,20.52-25.16,25.9,0,.72-.07,1.44-.07,2.18q-12.39,4.35-24.8,8.75l-27,6.6-22.08,3.55c2.16-10.6,3.13-19.71-2.07-28L902,832q11.24-10.12,22.48-20.3l4.52-2.2q9-14.62,18-29.26c.65-3.51,1.21-7,2-10.51,1.57-7,3.26-14,4.9-20.93,1.06-5.51,2.12-11,3.51-18.27,3.31,4.34,6.3,7.81,8.78,11.63,2.77,4.23,5,8.8,7.54,13.24,2.29,18.31-6.64,32.29-17.58,45.48L933.8,825.81c-.84,1.3-1.67,2.59-2.48,3.89,8.55,1.22,13.1-6.39,19.89-9.07,13.53-13.41,25.14-28.17,32.48-47.08l3.91,4.37C988.05,793.27,988.1,808.48,979,822.1Z"/><path class="cls-63" d="M1005,819.76a111.19,111.19,0,0,1-51.22,30.42c0-.74,0-1.46.07-2.18,11.75-5.38,18.34-15.66,25.16-25.9,9.07-13.62,9-28.83,8.57-44.18,11.48,7.45,16,19.42,19.65,31.6C1008.15,812.51,1007.14,817.57,1005,819.76Z"/><path class="cls-64" d="M758.06,872.62c-34.18,7.31-68.66,10.75-103.61,8.73-22.59-.41-44.11-6-65.22-13.53a129,129,0,0,1-45.05-26.71Q527.3,823.05,510.45,805c-5.65-9.84-12.2-19.27-16.72-29.6-5.47-12.42-1.2-26.31,9.65-35.42,5.38,9.79,10.69,19.42,16,29.08q14.72,16.8,29.46,33.62L573.28,821c-6.6-.09-13.23-.56-19.78,0-2.39.2-6.26,2.66-6.46,4.41-.29,2.7,1.19,7.11,3.33,8.33,12.74,7.29,25.88,13.88,38.89,20.7l-.09.23c7.54,2.16,15.05,4.32,22.59,6.5l24.67,4.79q7.89,2.21,15.77,4.41c2.25,0,4.52-.06,6.77-.11,7.5.74,15,1.46,22.51,2.21l22.5.06,27-2.29,33.17-6.89C765.62,868.72,763.87,871.38,758.06,872.62Z"/><path class="cls-65" d="M755.72,1041.35q0,7.88,0,15.73h0l-.07,4.53c.77,3,1.51,6,2.28,9q1.11,7.86,2.23,15.73l9,27q14.55,20.36,29.08,40.69c-3.69-2.32-7.79-4.16-11-7-9.92-8.8-19.49-18-29.21-27q-10.1-13.53-20.18-27c-3-6-6-12-9-17.93q-3.35-10.12-6.66-20.23c-5.6-26.2-3.4-51.88,5.85-76.9,2.55-6.89,6.37-13.3,9.61-19.92q5.61-10.12,11.23-20.25l17.85-22.64c4.12-5.42,8.21-10.87,12.62-16.68a76.16,76.16,0,0,0,33.87,17.09c7.9,1.75,7.47,9.06,7.85,15.37-5.26.13-10.53.24-15.79.36-3-.12-6-.21-9-.3-5.29-2.22-10.55-4.45-15.82-6.7q-5.74,14.64-11.45,29.27Q765.7,967,762.43,980.5l-2.37,6.82-2,13.5c0,1.49-.07,2.95-.11,4.44-.72,6-1.47,12.06-2.19,18.07Q755.71,1032.34,755.72,1041.35Z"/><path class="cls-66" d="M982.83,1057.13q-2.08,15.73-4.21,31.48-4.41,16.92-8.82,33.8c-3.08,12.54-7,24.74-13.86,36.89-24.19-11-46.07-23.61-58.69-47.8-10.13-12.67-14.81-27.55-17.58-43.19q-2.46-18.06-4.93-36.07,3.38-16.92,6.71-33.8c-.65-14.09-1-28.22-2.07-42.29-.36-4.95-2.36-9.79-4.23-17,3,2.41,5.33,3.37,6.28,5.08a107.4,107.4,0,0,1,13.73,46.63c.47,7.79-.07,15.66-.14,23.5q.21,15.58.43,31.19c1.33,7,2.7,14.08,4,21.13.79,4.27,1.44,8.57,2.16,12.85q6.79,15.8,13.57,31.62c6.55,8,13.59,15.41,24.51,20.59-1.85-3.78-3.17-6.44-4.48-9.09A64.65,64.65,0,0,1,920,1093.09q-4.32-16.85-8.66-33.67-1.19-13.53-2.37-27l-.06-18c0-7.49.06-15,.11-22.5-1.1-16.45-5.65-32.07-11.5-47.37-7.74-14.32-18.16-26.6-29.35-38.28l15.91,8.86c5.2,3.9,10.4,7.77,15.6,11.66,3.78,3,7.54,5.92,11.3,8.87l6.75,6.84q6.72,6.78,13.43,13.55,10.26,19,20.53,38c2.16,6,4.29,12,6.46,18.05.85,3,1.68,6,2.54,9-.07.74-.14,1.51-.21,2.27q2.21,10.12,4.42,20.25v11.26l2.16,2.34c.06,8.55.36,17.12.11,25.65-.09,3.49-1.33,6.91-2,10.38l2.16,2.25,2.39-2.34q2.19-16.89,4.41-33.76l-.07-29.3c-.72,0-1.44,0-2.18-.07q-1.12-7.86-2.28-15.73c-.76-5.24-1.5-10.49-2.27-15.71l-4.5-9c-3.92-18.09-15.44-31.55-27.12-44.94q-10.1-9-20.14-18.12-13.5-9-27-17.93c-3-2.39-6-4.75-8.93-7.13,15.8,4.16,29,13.23,41.88,22.66,23.58,17.26,41.7,39,52.1,66.68a15.92,15.92,0,0,1,.49,3.28q3.42,14.52,6.84,29Q981.86,1040.11,982.83,1057.13Z"/><path class="cls-67" d="M762.29,842.19V850q-20.14-3.32-40.3-6.6l-24.76-4.63c-.74-.77-1.48-1.53-2.25-2.27l-20.23-4.57c-7.52-2.95-15-5.92-22.53-8.87-.06-.67-.11-1.35-.13-2l-15.6-4.8-24.73-13.57-11.3-8.86-9-4.55-36-31.53c-2.28-3-4.53-5.94-6.8-8.93-8.32-10.94-16.67-21.88-26.08-34.23-2,5.58-3.78,10.51-5.4,15.5-.77,2.34-1.15,4.8-1.69,7.21-1.06-8.08-2.23-16.14-3.08-24.24-.75-7,2.45-12.15,8.86-15.8l33.56,42.62q21.57,19,43.14,38.13c2.47,2.18,5,4.32,7.49,6.48L656.86,814q17.82,6.62,35.65,13.28c1.64.61,3.21,1.49,4.81,2.25,14.22,3.09,28.42,6.35,42.67,9.23C747.17,840.21,754.48,841,762.29,842.19Z"/><path class="cls-32" d="M600.49,891c2.78,4.09.07,7.12-2.4,9.65-2.92,3-1.11,5.3.11,7.91-15.71-5.71-30.51-13-42.77-24.71q2.25-4.32,4.51-8.64c9.53,3.86,19,7.78,28.6,11.56C592.47,888.3,596.5,889.58,600.49,891Z"/><path class="cls-67" d="M973.72,755.42c-2.5-4.44-4.77-9-7.54-13.24-2.48-3.82-5.47-7.29-8.78-11.63-1.39,7.25-2.45,12.76-3.51,18.27-1.64,7-3.33,13.93-4.9,20.93-.77,3.49-1.33,7-2,10.51q-9,14.61-18,29.26l-4.52,2.2Q913.23,821.89,902,832l-24.15,9.05c-1.15-2.19-2.3-4.35-3.83-7.27a131,131,0,0,0,45.73-28.88c13.42-16.24,22.6-34.43,25.57-55.49.13-1,1-2,1.57-2.93V709C964.06,720.44,976.35,733.81,973.72,755.42Z"/><path class="cls-68" d="M559.94,875.19q-2.27,4.32-4.51,8.64c-5.16-3.37-11.15-5.93-15.31-10.26-12.06-12.49-23.22-25.85-35.11-38.52-2.94-3.13-1.94-5.83-1.41-9,8.48,8.78,17.17,17.36,25.38,26.38C537.81,862.16,548.47,869.19,559.94,875.19Z"/><path class="cls-69" d="M845.78,971.64q-1.14,16.85-2.27,33.68c-.72,3-1.42,6-2.12,9q-2.29,13.61-4.57,27.19c-.4,3.69-.47,7.45-1.3,11-6,26.73-12.56,53.35-18.23,80.13-2.32,11-.29,22,3.65,32.5-.12,1-.21,2.07-.5,5.17L798.3,1154q-14.52-20.35-29.08-40.69l-9-27q-1.12-7.86-2.23-15.73c-.77-3-1.51-6-2.28-9l.07-4.53h0q0-7.86,0-15.73,0-9,0-18c.72-6,1.47-12,2.19-18.07,0-1.49.06-3,.11-4.44l2-13.5,2.37-6.82Q765.7,967,769,953.56q5.73-14.61,11.45-29.27c5.27,2.25,10.53,4.48,15.82,6.7,3,.09,6,.18,9,.3,5.26-.12,10.53-.23,15.79-.36,1.38,6.68,4.21,13.48,3.74,20-.88,12.25-3.71,24.33-5.74,36.46q-5.51,17-11,33.89c-3.19,8.17-6.41,16.36-9.6,24.53q-2.24,9-4.48,18c.74,11.85,1.08,23.76,2.38,35.55.5,4.5,3.22,8.78,6,13-3.1-20.12-1-39.27,7.47-57.57,3.88-9.74,7.72-19.47,11.59-29.21q6.66-21.43,13.3-42.85c.72-8.41,2.23-16.88,2-25.27-.36-13.52-1.85-27-2.93-41.32,1-.11,3-.33,5.11-.58,3.69,14,8.6,27.86,6.68,42.6C845,962.81,851.07,967.18,845.78,971.64Z"/><path class="cls-70" d="M861.65,859.39c.6,6.57-1,12.17-6.37,16.58-1.46,1.19-1.94,3.62-2.88,5.49l-6.66-6.66c-.77-2.23-1.53-4.48-2.3-6.71-2.27-3-4.52-6-6.8-9-3.73-3-7.47-6-11.2-9l-20.21-7,0,.32-13.52-.23c-3.15-.79-6.33-1.6-9.48-2.38,3.22-3.72,6.46-7.43,9.68-11.14,7.38-7,15-13.75,26.31-11.41,4.2.88,8.14,3,12.22,4.54,1.44.77,2.9,1.53,4.34,2.28l8.93,6.41c2.12,1.85,4.23,3.67,6.33,5.49,2.41,2.7,4.79,5.38,7.2,8.06C861.29,849.08,866.17,852.79,861.65,859.39Z"/><path class="cls-61" d="M974.08,1059.38q-2.19,16.88-4.41,33.76l-2.39,2.34-2.16-2.25c.72-3.47,2-6.89,2-10.38.25-8.53,0-17.1-.11-25.65l-2.16-2.34V1043.6q-2.21-10.12-4.42-20.25c.07-.76.14-1.53.21-2.27-.86-3-1.69-6-2.54-9-2.17-6-4.3-12-6.46-18.05q-10.28-19-20.53-38-6.72-6.76-13.43-13.55L911,935.61c-3.76-3-7.52-5.92-11.3-8.87-5.2-3.89-10.4-7.76-15.6-11.66l-15.91-8.86c-1.26-1.89-2.52-3.78-3.78-5.7,2.14-1.06,4.44-3.22,6.39-2.95,3,.43,5.88,2.5,8.78,3.88,3,2.38,6,4.74,8.93,7.13q13.51,9,27,17.93,10.07,9.09,20.14,18.12c11.68,13.39,23.2,26.85,27.12,44.94l4.5,9c.77,5.22,1.51,10.47,2.27,15.71s1.53,10.49,2.28,15.73c.74,0,1.46.07,2.18.07Z"/><path class="cls-71" d="M652.18,231.29c-11.21-2.38-22.69-3.89-33.51-7.38-12.76-4.12-25.61-3.94-38.59-4.07-4.48,0-8.94-.14-13.42-.2q9-1,18-2.07c2.81-.18,5.6-.39,7.49-.52-1.82-11.57-3.56-22.35-5.27-33.13.45-3.42.88-6.86,1.49-11.74,8.69,9.45,16,17.37,23.25,25.29,9.54,12.63,21.69,22.17,35.35,30A55.93,55.93,0,0,1,652.18,231.29Z"/><path class="cls-72" d="M589.14,235.53c-56.12,27-59.25,97.84-95.61,100.71-50.17,9.43-80.15-68.13-32.79-91.8-15.72,27.85,36.93,71.61,49.67,34-.26-22,13.67-40.12,29.52-53.81C552.93,235.8,574.94,222.84,589.14,235.53Z"/><path class="cls-73" d="M579.56,125.25l-15.13-1.93c-6.75-.07-13.5-.11-20.23-.18-3.75,1.51-7.49,3-11.25,4.55l-13.59,8.7-2.32.21c-2.95,3-5.92,6.05-8.87,9.07l-4.38,6.77c-1.53,2.25-3.09,4.48-4.64,6.71-1.49,3-3,6-4.48,9,0,.77,0,1.51,0,2.27-.81,1.62-1.68,3.24-2.45,4.91-5.65,12.44-5.62,12.47-17.71,6.37.77-4.53,1.51-9,2.27-13.55,1.49-4.5,3-9,4.44-13.48q4.35-8.1,8.66-16.18,4.53-5.61,9-11.25c11.18-13.41,25.88-19.9,42.91-21.74,11.95-1.06,23.83-1.28,35.89,3.46C578.34,114.32,579,119.79,579.56,125.25Z"/><path class="cls-74" d="M771.36,717.57c-7.65,1.69-8,7.82-8.43,13.89-.83,11.18-1.58,22.36-2.6,33.52a38.29,38.29,0,0,1-2.13,8.67c-4.55,13.44-10.33,16.6-22.52,9.76C720.75,775,706.74,765,692.33,755.74c-5.45-6.53-11.2-12.85-16.3-19.64-9.77-13-11.46-27.05-4.41-42a70.28,70.28,0,0,0,2.74-8.31q8.5-14.8,17-29.61L702,663.09l-5,11.34-6.53,11.32q-3.41,7.82-6.82,15.65c-5.54,11.23-3.4,21.22,6.79,31.65,14.08,17.79,31.82,30.66,54,40.08.82-6.28,1.55-12,2.29-17.62q1-4.49,2-9l.45-8.82c.67-1.6,1.81-3.18,1.93-4.82,1-12.7,1.72-25.41,2.54-38.12l38.17,13.66,9,31.33,6.69,15.77c4.68,7.27,10.18,10.11,19.51,7.48a90.89,90.89,0,0,0,43.53-26.73c.53-.58,0-2.15-.07-3.26L855,714.55l-11.42-19.63,6.19-17.77c7.69,17.22,18.15,32.61,30.48,46.85,9.33,10.78,9.11,13.43-1.36,23.24-12.95,12.15-27.36,22.2-44.66,27.12-13.19,3.75-26,4-36.25-7.4-3.07-7.08-6.51-14-9.12-21.25-2.49-6.92-4-14.18-6.12-21.25C781.09,718.79,777.93,715.29,771.36,717.57Z"/><path class="cls-15" d="M824.58,591.07a219,219,0,0,1-59.23-10.31c-26.17-8.19-50.14-20.86-73.77-34.45-14.22-8.17-28.73-16-45.93-15.76q13,18.24,26,36.46,3.81,5.37,7.61,10.76,18.09,16.14,36.21,32.31c1.35,1.22,2.61,2.55,3.91,3.81q18.24,12.29,36.46,24.59,12.77,6.63,25.52,13.21c9.38,3.52,18.81,6.87,28.13,10.56,4,1.57,6.44,1,7.36-3.47.58-2.27,1.17-4.54,1.73-6.82.2-1.5.41-3,.61-4.5.72-3,1.46-6,2.18-8.93q5.1-19.28,10.24-38.55c.34-1.44.68-2.86,1-4.3C832.62,589.52,828,591.16,824.58,591.07Zm-8.23,27.07c-.75,3.8-1.49,7.58-2.23,11.39-1.44,7.42-2.88,14.87-4.55,23.54-8.59-3.81-15.57-6.89-22.55-10q-19.1-10-38.25-19.89c-8.13-5.63-16.66-10.78-24.26-17.06-7.36-6.1-6.6-8.69,2.16-14.56l17.82-2.09L758,591.2l11.72,4.28c9.12,4,15.1,10.76,17.69,20.43q1.13,3.32,2.21,6.6c.83-2.19,1.69-4.35,2.52-6.53q-.48-7.72-1-15.46c-1.91-1.08-3.82-2.14-5.76-3.2.65-1,1.31-2,2-2.94,12.06-2.91,23.38-1.53,34.34,7.33C819.92,607.14,818.12,612.65,816.35,618.14Z"/><path class="cls-75" d="M699.28,364.36A79.58,79.58,0,0,0,650,350.41,88,88,0,0,0,609.29,370l-15.46,23.62c-4.87,8.31-3.11,17.74-4.6,26.63.39,17.71,9.41,31.93,19.94,46.47-14.4.16-27,2.47-37.8,11,5.53.81,10.89.42,16.24,0,6.82-.52,13.8-2.27,19.76,2.93,3.58-.65,7.14-1.8,10.71-1.83,13.42-.15,26.85.61,40.22-.11a96.24,96.24,0,0,0,25-4.66c19.18-6.27,30.81-21.24,40.85-37.71a33.32,33.32,0,0,1,0-5.38C728.24,404.08,719.58,382.07,699.28,364.36ZM654.86,473.71a54.78,54.78,0,0,1,.9-109.55c29.72.22,54.28,24.87,54.34,54.62C710.19,448.84,684.83,474.05,654.86,473.71Z"/><path class="cls-76" d="M983.06,561.41c-.88-5.79-1.53-11.61-2.3-17.42v-13.5h-2.25c-.74-3-1.48-6-2.23-9s-1.5-6-2.25-9c0-2.25,0-4.47,0-6.73-.74,0-1.49,0-2.25,0L965.05,490c-1.5-3.76-3-7.52-4.52-11.25l0,0c-3-4.5-6-9-9-13.5L940.28,454v-2.25c-3-2.25-6-4.5-9-6.75L911,431.47c-.76-1.51-1.51-3-2.27-4.48q-9-3.4-18-6.77l-13.5-6.75c-17.57-3.34-34.74-8.69-52.91-9.21-10.08-.27-20.09-2.5-30.13-3.82q-17,11-34,22.05-11.26,12.39-22.5,24.75-6.88,9-13.73,17.89c-3,3-5.92,6-8.89,8.94l-13.39,9.18-11.18,4.66q-11.38,3.24-22.71,6.5l-4.39.14-13.45.13h-9.07c-3.74-.06-7.48-.11-11.21-.18-4.5,0-9-.33-13.46,0-17.73,1.1-34.29,17-36,34.29-1.94,19.72,9.31,35.63,29,40.31,7.49,1.8,15.21,2.77,22.82,4.14a12.52,12.52,0,0,0,1.5-1.35c-6.41-10.1-9.15-22.59-19.6-30.07-7.45-.78-7.62-1-4.77-6.86,6.87-14.2,19.47-18.86,33.94-20.46l11.36.27,11.1,2.37q11.31,4.46,22.57,8.95c22.28,11.82,44.06,24.76,67,35.13,18.21,8.22,38,12.4,58.09,14.27,35,3.26,67.74-6.17,100-18l20.32-.2c4.53.72,9,1.44,13.55,2.18q5.48,1.38,11,2.79c7.22,3.15,14.47,6.21,21.63,9.52,3.66,1.69,4.43-.49,5.1-3.22C984.23,566.18,983.42,563.84,983.06,561.41ZM742.6,459.28l29.12-25.45,4.25-.07q-3.54,11.17-7.06,22.35c-2.16,5.24-4.35,10.47-6.51,15.71-7.49,7.79-12.91,11.57-22.39-2.25C740.87,466.22,741.72,462.75,742.6,459.28Z"/><path class="cls-77" d="M834.64,667.78c-.79,2.25-1.57,4.51-2.36,6.76-3.26,1.5-6.53,3.1-9.84,4.54-11.43,5-22.7,1.13-33.55-1.71C760.76,670,735,657.14,710.33,641.88c-4.93-3-10.44-5.13-15.69-7.65-7.76-6.17-16.2-11.66-23.15-18.63-13.6-13.71-26.33-28.22-39.45-42.4a12.52,12.52,0,0,0,1.5-1.35c-6.41-10.1-9.15-22.59-19.6-30.07l18,4.53c0,.69.05,1.42.09,2.11,5.25,17.17,17.69,29.8,28.72,42.94,11.68,13.91,26.58,24.67,41,36C723,644,747.69,651.6,771.88,660.43,791.79,667.69,813.6,666.14,834.64,667.78Z"/><path class="cls-78" d="M774.5,389.84c-2.22-11.32-1.8-22.3,4-32.64,8.45-15,25.9-23.64,42.55-21.14,19.19,2.9,31.7,14.9,36.11,34.65L832.06,373c-3.23-8.17-8.93-13.7-17.51-15.88-20.16-5.13-36.8,12.72-31.73,31.23Z"/><path class="cls-79" d="M994,523.69c.11,2.3-1.24,4.68-1.89,7q-3.67,18.94-7.32,37.85c-.6-2.38-1.41-4.72-1.77-7.15-.88-5.79-1.53-11.61-2.3-17.42v-13.5h-2.25c-.74-3-1.48-6-2.23-9s-1.5-6-2.25-9c0-2.25,0-4.47,0-6.73-.74,0-1.49,0-2.25,0L965.05,490c-1.5-3.76-3-7.52-4.52-11.25l0,0c-3-4.5-6-9-9-13.5L940.28,454v-2.25c-3-2.25-6-4.5-9-6.75L911,431.47c-.76-1.51-1.51-3-2.27-4.48q-9-3.4-18-6.77l-13.5-6.75c-17.57-3.34-34.74-8.69-52.91-9.21-10.08-.27-20.09-2.5-30.13-3.82,22.84-9.84,46.72-14.77,71.54-13.66,9.12.38,18.16,2.9,27.26,4.45,11.31,2.45,22.25,5.9,31.48,13.32,14,4.48,24.84,13.53,34.23,24.51,8.21,7,16.2,14.18,19.87,24.85,8.39,11.38,11.16,24.75,13.28,38.32C992.62,502.72,993.52,513.18,994,523.69Z"/><path class="cls-80" d="M832.28,674.54c-.74,3.21-1.28,6.5-2.27,9.63-4.35,13.84-7.18,15.26-21.63,12.11-30.16-6.6-57.41-19.72-82.55-37.23-10.86-7.6-20.81-16.52-31.19-24.82,5.25,2.52,10.76,4.61,15.69,7.65C735,657.14,760.76,670,788.89,677.37c10.85,2.84,22.12,6.69,33.55,1.71C825.75,677.64,829,676,832.28,674.54Z"/><path class="cls-81" d="M690.45,685.75,697,674.43c2.93,2,6.95,3.27,8.57,6,3.32,5.62,7.91,8.49,13.87,10,5,1.29,10.17,2.19,14.69,4.43,5.95,3,10.51,1.61,15-2.43l4.52,2.3c-.82,12.71-1.58,25.42-2.54,38.12-.12,1.64-1.26,3.22-1.93,4.82v-11.1c-9.59-6.76-18-12.87-26.61-18.6-2-1.32-4.82-1.35-7.27-2C705.94,700.55,696.66,695,690.45,685.75Z"/><path class="cls-82" d="M899.37,640.79c-8.73-3.6-15,2.77-21.87,5.84-7.25,3.24-13.83,8-20.7,12.07q9.21-23.6,18.4-47.17l17.91,2.22Q896.25,627.27,899.37,640.79Z"/><path class="cls-83" d="M691.35,656.2q-8.49,14.81-17,29.61l-17.48,4.5,11-25.89L659,656.5c4.11-2.4,8.37-4.58,12.27-7.29,2.21-1.53,3.81-3.93,5.69-5.94Z"/><path class="cls-84" d="M861.4,600.32c-.7,1.51-1.4,3-2.07,4.52q-7.86,19.11-15.69,38.21L839,656.58l-2.14,4.63c-.74,2.19-1.51,4.39-2.25,6.57-21-1.64-42.85-.09-62.76-7.35C747.69,651.6,723,644,701.75,627.34c-14.44-11.31-29.34-22.07-41-36-11-13.14-23.47-25.77-28.72-42.94,12.81,3,18.68,14.18,26.92,22.6q9,10.13,18,20.27c1.42,2.5,2.3,5.56,4.32,7.41,7.38,6.73,15.12,13.07,22.73,19.55,6.59,5.2,12.51,11.84,19.92,15.26,13.32,6.17,27.45,10.65,41.43,15.3,5.08,1.71,10.66,2,16,2.88,9.38,3.52,18.81,6.87,28.13,10.56,4,1.57,6.44,1,7.36-3.47.58-2.27,1.17-4.54,1.73-6.82.2-1.5.41-3,.61-4.5.72-3,1.46-6,2.18-8.93q5.1-19.28,10.24-38.55Z"/><path class="cls-52" d="M676.94,643.27c-1.88,2-3.48,4.41-5.69,5.94-3.9,2.71-8.16,4.89-12.27,7.29q-12.37-13.51-24.74-27l18-9Z"/><path class="cls-85" d="M800.8,739.76l-9-31.33,33.54,4.6c-4,5.9-1.46,10.82,2.34,15.55C820.41,736.43,810.53,737.92,800.8,739.76Z"/><path class="cls-86" d="M749.08,692.47c-4.46,4-9,5.38-15,2.43-4.52-2.24-9.73-3.14-14.69-4.43-6-1.55-10.55-4.42-13.87-10-1.62-2.73-5.64-4-8.57-6l5-11.34q16,10,32,20.09C739,686.32,744.05,689.37,749.08,692.47Z"/><path class="cls-87" d="M782.82,388.31c-5.07-18.51,11.57-36.36,31.73-31.23,8.58,2.18,14.28,7.71,17.51,15.88l-15.2,2.74c-1.42-6.71-5.87-10.18-12.43-10.43-5.07-.18-9.85,1.93-11.46,7-1.16,3.62-.47,7.84-.6,11.79Z"/><path class="cls-88" d="M827.65,728.58c-3.8-4.73-6.35-9.65-2.34-15.55a42,42,0,0,1,6.62-.18c5.67.69,8-2.57,9.13-7.31.88-3.53,1.7-7.08,2.55-10.62L855,714.55c-2.72,3-5.09,6.41-8.23,8.84-3.81,2.93-8.27,5-12.45,7.49Z"/><path class="cls-59" d="M652.21,620.51l-18,9-15.81-20.19c2.93-2.3,5.88-4.56,8.78-6.9,1.59-1.29,3.08-2.7,4.62-4.06Z"/><path class="cls-89" d="M631.83,598.33c-1.54,1.36-3,2.77-4.62,4.06-2.9,2.34-5.85,4.6-8.78,6.9l-24.71-13.56,11.17-10.92C615.86,585.35,626.41,586.73,631.83,598.33Z"/><path class="cls-90" d="M604.89,584.81l-11.17,10.92c-10.33-6.6-19.43-14.22-23.44-26.48-1-2.94-2.51-5.51,1.29-7.4,6.92,9.26,16,15.79,26.24,20.91C600,583.85,602.52,584.15,604.89,584.81Z"/><path class="cls-91" d="M781.33,651.69c-5.36-.9-10.94-1.17-16-2.88-14-4.65-28.11-9.13-41.43-15.3-7.41-3.42-13.33-10.06-19.92-15.26-7.61-6.48-15.35-12.82-22.73-19.55-2-1.85-2.9-4.91-4.32-7.41q-9-10.15-18-20.27c-8.24-8.42-14.11-19.65-26.92-22.6,0-.69-.06-1.42-.09-2.11l-18-4.53c-7.45-.78-7.62-1-4.77-6.86q8-1,16-2c3-.76,6-1.55,9-2.32h11.45q13,18.24,26,36.46,3.81,5.37,7.61,10.76,18.09,16.14,36.21,32.31c1.35,1.22,2.61,2.55,3.91,3.81q18.24,12.29,36.46,24.59Q768.58,645.11,781.33,651.69Z"/><path class="cls-92" d="M792.37,384.05c.13-3.95-.56-8.17.6-11.79,1.61-5.06,6.39-7.17,11.46-7,6.56.25,11,3.72,12.43,10.43Z"/><path class="cls-93" d="M866,589c-1.48,3.76-3,7.49-4.43,11.25l-.18.07L831.58,600c.34-1.44.68-2.86,1-4.3,5.31-6.34,13.1-5.4,20-6.52C857,588.44,861.53,589,866,589Z"/><path class="cls-83" d="M893.11,613.75l-17.91-2.22q1.86-5.67,3.71-11.34L884.13,587q2.26-2.31,4.52-4.64Q890.89,598,893.11,613.75Z"/><path class="cls-94" d="M944.72,575.49c-.93,7.07-1.87,14.14-3.08,23.33l-18-25.61Z"/><path class="cls-95" d="M884.13,587c-1.73,4.41-3.49,8.82-5.22,13.25-5.79,0-11.57,0-17.33,0,1.46-3.76,2.95-7.49,4.43-11.25C872,588.23,877.33,580.85,884.13,587Z"/><path class="cls-96" d="M631.92,546.31l-18-4.53c-7.45-.78-7.62-1-4.77-6.86q8-1,16-2C623.51,539.31,630.1,541.63,631.92,546.31Z"/><path class="cls-97" d="M857.6,342.78c-30.61-29.48-59.23-26.33-88,2.84q4.43-16.71,8.8-33.4c4.5-18,21.2-27,40.44-21.49,9,2.56,17.19,6.84,23.22,14.38,2.12,2.92,4.91,5.58,6.21,8.84A241.06,241.06,0,0,1,857.6,342.78Z"/><path class="cls-16" d="M352.86,1259.63c-19.56-6.83-39.23-13.36-58.62-20.65-7.05-2.66-13.41-7.15-20.09-10.8,17.47.73,35,1.73,52.43,2,6.83.12,13.69-1.31,19.81-2C348.72,1239.51,350.79,1249.57,352.86,1259.63Z"/><path class="cls-98" d="M664.15,319.11l-16.09-2.57c-21.42-7.47-52.86,6.53-62.92,27.18-3.78,5.79-7.59,11.55-11.37,17.33,1.38-10.37,2.12-20.88,4.35-31.05A61,61,0,0,1,586,311.59c8.51-13.84,21.5-19.49,37.41-17.08C638.68,296.8,651.23,305,662.6,315,663.57,315.89,663.66,317.73,664.15,319.11Z"/><path class="cls-99" d="M656.88,690.31l17.48-4.5a70.28,70.28,0,0,1-2.74,8.31c-7,14.93-5.36,29,4.41,42,5.1,6.79,10.85,13.11,16.3,19.64-15.12-9.77-27.45-22.23-35.27-38.52C652.92,708.58,653.46,699.31,656.88,690.31Z"/><path class="cls-100" d="M771.36,717.57c6.57-2.28,9.73,1.22,11.41,6.89,2.09,7.07,3.63,14.33,6.12,21.25C791.5,753,794.94,759.88,798,767c-9.22-3.28-15.28-9.56-18-19Q775.67,732.77,771.36,717.57Z"/><path class="cls-81" d="M852.4,881.46c-.7,2.3-1.4,4.59-2.07,6.91-11.34,10.76-33.85,12.54-48.61,3.78-8.31-4.9-14.7-11.72-16.65-21.22-2-9.83-7.23-19.56-2.82-30,3.15.78,6.33,1.59,9.48,2.38l13.52.23,0-.32,20.21,7c3.73,3,7.47,6,11.2,9,2.28,3,4.53,6,6.8,9,.77,2.23,1.53,4.48,2.3,6.71Z"/><path class="cls-101" d="M746.71,755.51c-.74,5.67-1.47,11.34-2.29,17.62-22.18-9.42-39.92-22.29-54-40.08,4.18.93,8.36,1.82,12.53,2.79,5.55,1.29,11.08,2.65,16.61,4C726.25,749.13,735.17,754.59,746.71,755.51Z"/><path class="cls-102" d="M870.46,733c0,1.11.6,2.68.07,3.26A90.89,90.89,0,0,1,827,763c-9.33,2.63-14.83-.21-19.51-7.48a61.26,61.26,0,0,0,6.51-1c11.92-3.18,23.06-7.88,31.82-17C854.4,738,862.75,737.3,870.46,733Z"/><path class="cls-103" d="M719.56,739.81c-5.53-1.32-11.06-2.68-16.61-4-4.17-1-8.35-1.86-12.53-2.79-10.19-10.43-12.33-20.42-6.79-31.65,7.37,11.89,20.7,15.52,31.5,22.65Q717.35,731.93,719.56,739.81Z"/><path class="cls-104" d="M845.82,737.49c-8.76,9.13-19.9,13.83-31.82,17a61.26,61.26,0,0,1-6.51,1l-6.69-15.77c9.73-1.84,19.61-3.33,26.85-11.18l6.7,2.3Z"/><path class="cls-105" d="M715.13,724.05c-10.8-7.13-24.13-10.76-31.5-22.65q3.4-7.83,6.82-15.65c6.21,9.28,15.49,14.8,24.8,20.28l.06,6.77Z"/><path class="cls-106" d="M715.13,724.05l.18-11.25c1.94,1.69,4.77,3,5.65,5.11,5.06,12.14,18,17.16,24.57,27.92.39.63,2.07.49,3.15.7q-1,4.5-2,9c-11.54-.92-20.46-6.38-27.15-15.7Q717.36,731.94,715.13,724.05Z"/><path class="cls-107" d="M748.68,746.53c-1.08-.21-2.76-.07-3.15-.7C739,735.07,726,730.05,721,717.91c-.88-2.12-3.71-3.42-5.65-5.11l-.06-6.77c2.45.63,5.29.66,7.27,2,8.64,5.73,17,11.84,26.61,18.6v11.1Z"/><path class="cls-108" d="M845.82,737.49l-11.47-6.61c4.18-2.46,8.64-4.56,12.45-7.49,3.14-2.43,5.51-5.86,8.23-8.84L870.46,733C862.75,737.3,854.4,738,845.82,737.49Z"/><path class="cls-109" d="M816.34,618.15l-2.22,11.37c-8.22,6.14-17,11.07-27.09,13.6l-38.26-19.89q-2.16-9.19-4.33-18.4L758,611.41c2.57,4.25,4.22,10.67,7.94,12.26,6.35,2.72,14,2.54,21.13,3.15.7.06,1.66-2.8,2.51-4.31l2.5-6.54c.62,0,1.24.07,1.85.07Z"/><path class="cls-110" d="M744.44,604.83q2.16,9.2,4.33,18.4c-8.12-5.64-16.67-10.78-24.26-17.07-7.35-6.09-6.6-8.68,2.16-14.54l17.84,13.08Z"/><path class="cls-111" d="M816.34,618.15,794,616c1.86,0,3.81.27,5.57-.17,5.46-1.34,10.77-8.52,10-13.12-.72-4.13-5.9-6-13.28-4.51-1.76.35-3.38,1.49-5.06,2.27l-5.77-3.18,2-3c12.06-2.89,23.39-1.52,34.35,7.33C819.92,607.14,818.13,612.65,816.34,618.15Z"/><path class="cls-112" d="M789.6,622.51c-.85,1.51-1.81,4.37-2.51,4.31-7.14-.61-14.78-.43-21.13-3.15-3.72-1.59-5.37-8-7.94-12.26l4.49,0L776,613.74l11.39,2.17Z"/><path class="cls-113" d="M791.15,600.51c1.68-.78,3.3-1.92,5.06-2.27,7.38-1.48,12.56.38,13.28,4.51.8,4.6-4.51,11.78-10,13.12-1.76.44-3.71.14-5.57.17-.61,0-1.23,0-1.85-.07Q791.62,608.25,791.15,600.51Z"/><path class="cls-114" d="M787,643.12c10-2.53,18.87-7.46,27.09-13.6-1.44,7.44-2.87,14.88-4.55,23.54Z"/><path class="cls-115" d="M762.51,611.38l-4.49,0-13.58-6.58.07-.13q0-7.59,0-15.17L758,591.21C758.08,598.25,756.5,605.67,762.51,611.38Z"/><path class="cls-116" d="M762.51,611.38c-6-5.71-4.43-13.13-4.53-20.17l11.72,4.28c-.74,1.09-2.38,2.64-2.09,3.21,2.6,5.11,5.54,10,8.38,15Z"/><path class="cls-117" d="M776,613.74c-2.84-5-5.78-9.93-8.38-15-.29-.57,1.35-2.12,2.09-3.21,9.11,4,15.1,10.74,17.68,20.42Z"/><path class="cls-118" d="M744.49,589.53q0,7.58,0,15.17l-17.84-13.08Z"/><path class="cls-24" d="M600.59,419a54.91,54.91,0,0,1,55.16-54.84c29.74.21,54.28,24.87,54.36,54.61.08,30.07-25.27,55.27-55.26,55A55.18,55.18,0,0,1,600.59,419Zm70.13,24.11c9.43-15.56,8.33-30.65-2.57-41.69a32.2,32.2,0,0,0-53.67,32c4.16,13.89,17,22.56,32.39,21.88C648.66,440.47,656.48,436.74,670.72,443.11Z"/><path class="cls-119" d="M776,433.76q-3.54,11.17-7.06,22.35c-2.16,5.24-4.35,10.47-6.51,15.71-7.49,7.79-12.91,11.57-22.39-2.25.86-3.35,1.71-6.82,2.59-10.29l29.12-25.45Z"/><path class="cls-120" d="M699.28,364.36A79.58,79.58,0,0,0,650,350.41,88,88,0,0,0,609.29,370l-15.46,23.62c-4.87,8.31-3.11,17.74-4.6,26.63-1.86-1.49-4.86-2.66-5.4-4.55-2.36-8.12-4-16.45-5.89-24.71-.72-3-1.44-6-2.16-9-.77-5.25-1.53-10.49-2.28-15.76l.27-5.13c3.78-5.78,7.59-11.54,11.37-17.33,10.06-20.65,41.5-34.65,62.92-27.18l16.09,2.57c1.44,1.35,2.88,2.7,4.32,4,1.42.23,3.4,0,4.16.79a106.2,106.2,0,0,1,6.53,8.6C688,341.81,696.49,351.29,699.28,364.36Z"/><path class="cls-75" d="M670.72,443.11c-14.24-6.37-22.06-2.64-23.85,12.23-15.4.68-28.23-8-32.39-21.88a32.2,32.2,0,0,1,53.67-32C679.05,412.46,680.15,427.55,670.72,443.11Zm-18-27.11a15,15,0,0,0-14.23-15.65c-8.36-.43-15.74,6.84-15.67,15.43.07,8.11,6.93,15.1,14.88,15.17A15.23,15.23,0,0,0,652.75,416Z"/><path class="cls-121" d="M652.75,416a15.23,15.23,0,0,1-15,14.95c-8-.07-14.81-7.06-14.88-15.17-.07-8.59,7.31-15.86,15.67-15.43A15,15,0,0,1,652.75,416Z"/><path class="cls-122" d="M719.13,242.79c-4.46.23-8.82.23-13,.05H706A165.57,165.57,0,0,1,657.53,233c-1.17-.45-1.89-.74-2.11-.86,6,1.47,11.9,3.13,17.87,4.66,7.81,1.8,15.59,3.47,23.38,4.8A148.14,148.14,0,0,0,719.13,242.79Z"/><path class="cls-123" d="M793.82,206.4a96.48,96.48,0,0,1-41.12,29.67c-2.25.85-4.52,1.59-6.79,2.27a99.92,99.92,0,0,0,20.57-9.5l.27-.18c.92-.58,1.84-1.19,2.74-1.84q5.58-4.53,11.19-9l7.87-6.82c1.35-1.42,2.66-2.86,3.94-4.34q.43-.54.9-1.08Z"/><path class="cls-14" d="M794.2,400.44S923,340.82,986.35,468.65V450.36l-16.87-26.69s-15.43-20.08-18.27-18.39-25.42-8.45-25.42-8.45L899.37,385,866,381.59l-35.5.35"/></g></g></svg>