<?xml version="1.0" encoding="utf-8"?>
<!-- Generator: Adobe Illustrator 26.0.1, SVG Export Plug-In . SVG Version: 6.00 Build 0)  -->
<svg version="1.1" id="Capa_1" xmlns="http://www.w3.org/2000/svg" xmlns:xlink="http://www.w3.org/1999/xlink" x="0px" y="0px"
	 viewBox="0 0 48 48" style="enable-background:new 0 0 48 48;" xml:space="preserve">
<style type="text/css">
	.st0{opacity:8.000000e-02;}
	.st1{fill:#FFFFFF;}
</style>
<g id="Capa_2_00000124859306281209248450000017951469256147274643_" class="st0">
	<g id="Capa_1-2">
		<path class="st1" d="M5.2,39c-0.3-0.4-0.6-0.7-0.9-1.2c-0.1-0.1-0.1-0.2-0.2-0.3S4,37.3,4.2,37.2l1.2-0.8l3.4-2.2l4.9-3.2l4.8-3.2
			l4.6-3c0.1-0.1,0.2-0.1,0.2-0.2L2.5,34.8l-0.8-1.9c2.4-1,4.8-1.9,7.2-2.9l7.2-2.9l7.2-2.8l0,0L0.8,30c0-0.1-0.1-0.3-0.1-0.4
			l-0.2-0.9c0-0.2-0.1-0.4-0.1-0.6s0-0.3,0.2-0.3l0.9-0.1l3.2-0.5l4.6-0.8l7.2-1.2l5.6-1c0.4-0.1,0.9-0.1,1.3-0.2h-1.1l-1.8,0.1
			l-3.3,0.1l-1.8,0.1l-2.8,0.1h-1.2c-0.6,0-1.1,0-1.7,0.1l-2.9,0.1H5.6l-1.9,0.1L1,25l-1,0.1V23h0.3l2.3,0.1l1.3,0.1l1.9,0.1
			l2.8,0.1l1.5,0.1l2.9,0.1l4.2,0.2l2.9,0.1l2.2,0.1c0.3,0,0.6,0,0.9,0l-1.1-0.2l-3.7-0.6L11.5,22l-5.8-1l-5-0.9
			C0.4,20,0.3,20,0.4,19.6s0.2-0.6,0.2-0.9c0-0.1,0-0.3,0.1-0.4C0.7,18,0.8,18,1,18.1L4.6,19l4,1l5,1.3l4.7,1.2l4.6,1.2
			c0.1,0,0.2,0.1,0.4,0L22,23.3l-10.4-4.1l-6.5-2.6L2,15.3H1.9c-0.2-0.1-0.2-0.1-0.1-0.3S2,14.6,2,14.4l0.1-0.3
			c0.1-0.2,0.2-0.4,0.3-0.6s0.1-0.3,0.4-0.1l2.7,1.3l13.1,6.5l4.4,2.2c0.1,0.1,0.3,0.1,0.5,0.2L4,10.8c0.2-0.3,0.4-0.6,0.6-0.9
			S5,9.5,5.1,9.3s0.1-0.2,0.3,0l1.7,1.3c1.3,1,2.7,2.1,4,3.2l4.8,3.8l5.3,4.2l2.1,1.7h0.1c0-0.1-0.1-0.1-0.1-0.2
			c-1.2-1.2-2.4-2.5-3.6-3.7l-2.8-2.9L14.2,14l-2.7-2.7L9,8.8L7.3,7c0,0-0.1-0.1-0.1-0.2l0,0c0.4-0.3,0.7-0.6,1.1-1l0.2-0.2
			C8.7,5.4,8.8,5.4,9,5.7l2.5,3l4.2,5.1l4.2,5.1l3.5,4.2l0.1,0.1l0,0L23,22.5l-5.7-8.9l-4.1-6.4l-2-3.2c-0.1-0.2-0.1-0.2,0.1-0.4
			s0.6-0.3,0.9-0.5l0.7-0.4l10.8,20.7C21,16.1,18.3,8.8,15.6,1.5L17.3,1c0.3-0.1,0.3-0.1,0.4,0.2L19,6.1c0.7,2.4,1.3,4.8,2,7.1
			l1.5,5.4c0.4,1.4,0.8,2.9,1.2,4.3c0,0.1,0.1,0.2,0.1,0.2c0-0.3-0.1-0.6-0.1-1L23,17.6c-0.2-1.4-0.4-2.8-0.6-4.2
			c-0.3-2-0.6-4-0.9-6c-0.2-1.3-0.4-2.5-0.6-3.8l-0.4-3.1c0-0.2,0-0.2,0.2-0.2c0.4,0,0.8-0.1,1.2-0.1c0.2,0,0.4-0.1,0.6-0.1
			c0,0.2,0,0.4,0.1,0.5l0.1,1.9c0,0.7,0.1,1.3,0.1,2c0,0.3,0,0.6,0.1,1c0,0.9,0.1,1.9,0.2,2.8c0.1,1.2,0.2,2.3,0.2,3.5
			c0.1,1,0.1,1.9,0.2,2.9l0.2,3.5c0,0.7,0.1,1.4,0.1,2s0.1,1.3,0.1,2c0,0.4,0,0.8,0.1,1.2c0-0.3,0-0.6,0.1-0.9
			c0-0.7,0.1-1.4,0.1-2.1c0-0.9,0.1-1.9,0.2-2.8c0-0.6,0.1-1.2,0.1-1.8c0-0.6,0.1-1.4,0.1-2.1l0.1-1c0.1-1,0.1-2.1,0.2-3.1
			c0-0.7,0.1-1.3,0.1-2c0.1-0.9,0.1-1.8,0.2-2.8l0.1-0.9c0-0.7,0.1-1.4,0.1-2c0-0.5,0.1-1,0.1-1.5c0-0.2,0.1-0.3,0.3-0.3L27,0.2h0.6
			c-0.3,2.6-0.8,5.1-1.1,7.7s-0.8,5.1-1.1,7.7s-0.8,5.1-1.1,7.7c0.1-0.3,0.2-0.5,0.2-0.8c1-3.8,2.1-7.6,3.2-11.4l2.6-9.2
			c0.1-0.2,0.1-0.5,0.2-0.8s0.1-0.2,0.3-0.2l1.5,0.5c0.2,0.1,0.2,0.1,0.2,0.3c-0.3,0.7-0.5,1.5-0.8,2.2c-0.6,1.7-1.3,3.4-1.9,5.1
			c-1,2.5-1.9,5.1-2.8,7.6L24.4,23c0,0.1-0.1,0.2-0.1,0.3l0.1-0.1l3.6-7l2.9-5.6c0.8-1.6,1.6-3.2,2.4-4.7l1.7-3l0.1-0.1h0.1l1.1,0.6
			l0.4,0.2C37,3.7,37,3.8,36.8,4l-1.3,2.1l-3.2,5.1l-2.7,4.2l-4.3,6.8l-0.7,1.1c0,0-0.1,0.1-0.1,0.2l14.8-18l1.3,1.2
			c0.2,0.2,0.2,0.2,0,0.4l-0.5,0.6l-4.2,4.2l-2.7,2.8l-2.8,2.8l-2.5,2.6l-3.3,3.4c0,0-0.1,0-0.1,0.1l0,0L42.8,9.1
			c0.5,0.5,0.9,1.1,1.2,1.7L24.7,23.6l0,0l20.8-10.3l0.8,1.9l-0.2,0.1l-8.9,3.5l-7.3,2.9l-5,2c-0.1,0-0.1,0-0.1,0.1L47.3,18
			c0,0.1,0,0.1,0,0.2c0,0.3,0,0.5,0.1,0.7c0,0.1,0.1,0.3,0.1,0.4c0,0.2,0.1,0.4,0.2,0.7c-7.6,1.3-15.2,2.6-22.9,3.9
			c0.2,0,0.4,0,0.6,0l1.7-0.1l3.3-0.1l1.8-0.1l2.9-0.1h1.2l3-0.1l3.6-0.1l2.5-0.1l2.2-0.1h0.2c0.1,0,0.2,0.1,0.2,0.2c0,0,0,0,0,0.1
			c0,0.2,0,0.3,0,0.5v1.3h-0.8h-0.4l-2-0.1L41.7,25l-3.1-0.1L37,24.6l-3-0.1h-1.2l-3.3-0.1L26,24.2c-0.5,0-0.9,0-1.4-0.1L47.7,28
			c-0.1,0.4-0.2,0.8-0.3,1.2c0,0.2-0.1,0.4-0.1,0.5c0,0.2,0,0.3-0.3,0.2l-3.2-0.8l-7-1.8L30,25.6l-5.2-1.3h-0.1l21.7,8.6l-0.9,1.9
			L24.7,24.4l0,0L44,37.3c-0.3,0.6-0.8,1.2-1.2,1.7L24.6,24.5l0,0l0.1,0.1l3.5,3.6l3,3l2.6,2.6l2.7,2.7l2.5,2.7l1.7,1.7l0.1,0.2
			l-0.2,0.2l-1,1c-0.1,0.1-0.2,0.1-0.3,0.2c-4.9-6-9.9-12-14.8-17.9v0.1l0.1,0.1c1.9,2.9,3.7,5.8,5.6,8.8c1.2,1.8,2.3,3.7,3.5,5.5
			c0.8,1.2,1.6,2.5,2.4,3.7l0.8,1.2c0.1,0.2,0.1,0.2-0.1,0.3L35.6,45l-0.4,0.2L35,45.1l-0.8-1.6c-0.9-1.7-1.8-3.4-2.7-5.1
			c-1.3-2.4-2.5-4.8-3.8-7.2l-3-5.9c-0.1-0.2-0.2-0.4-0.3-0.5c2.7,7.3,5.4,14.5,8.1,21.8L32,46.7l-1.2,0.4c-0.2,0.1-0.2,0-0.3-0.2
			c-0.3-1-0.6-2-0.9-3c-0.7-2.7-1.5-5.3-2.2-8l-1.8-6.5c-0.4-1.5-0.9-3.1-1.3-4.6c0,0,0-0.1-0.1-0.1c0.4,2.6,0.8,5.1,1.1,7.7
			s0.8,5.1,1.1,7.7s0.8,5.1,1.1,7.7c-0.3-0.1-0.6-0.1-0.9,0s-0.6,0.1-0.9,0.1c-0.2,0-0.3,0-0.3-0.3c0-0.9-0.1-1.8-0.2-2.8
			s-0.1-2.1-0.2-3.2v-3.1c-0.1-1.1-0.1-2.1-0.2-3.2s-0.2-2.4-0.2-3.5c0-0.7-0.1-1.4-0.1-2.1c-0.1-1-0.1-1.9-0.2-2.9
			c0-0.7-0.1-1.5-0.1-2.2c0,0.2,0,0.4,0,0.6c0,0.7-0.1,1.4-0.1,2.1c-0.1,1.1-0.1,2.2-0.2,3.3s-0.1,2.1-0.2,3.2l-0.2,3.5
			c0,0.7-0.1,1.3-0.1,2s-0.1,1.3-0.1,2s-0.1,1.3-0.1,2s-0.1,1.3-0.1,2c0,0.4,0,0.8-0.1,1.2s-0.1,1-0.1,1.5c-0.7-0.2-1.4-0.2-2-0.3
			c0.3-2.5,0.8-5.1,1.1-7.7s0.8-5.1,1.1-7.7s0.8-5.1,1.1-7.7c-2.1,7.5-4.2,15-6.3,22.5l-2-0.7c0.5-1.5,1.1-2.9,1.6-4.4
			s1.1-2.9,1.6-4.3s1.1-2.9,1.6-4.4l1.6-4.4c0.5-1.5,1.1-2.9,1.6-4.4l-11,20.8l-0.2-0.1c-0.2-0.1-0.5-0.2-0.7-0.4s-0.3-0.2-0.4-0.3
			c-0.1-0.1-0.2-0.1-0.3-0.2c-0.2-0.1-0.2-0.1-0.1-0.3l3.1-4.8c2.1-3.3,4.1-6.5,6.2-9.8c1-1.5,2-3,2.9-4.6c0.1-0.1,0.1-0.2,0.1-0.2
			c-5,6-9.9,12-14.9,18l-1.5-1.4c0-0.1,0.1-0.1,0.1-0.2c0.9-1,1.8-1.9,2.8-2.8l3-3l2.6-2.7l2.8-2.9l2.7-2.7l2.1-2.2l0.1-0.1L5.2,39z
			"/>
	</g>
</g>
</svg>
