<svg xmlns="http://www.w3.org/2000/svg" viewBox="0 0 1638.34 871.1"><defs><style>.cls-1{fill:#fee723;}.cls-2{fill:#fff;}</style></defs><g id="Capa_2" data-name="Capa 2"><g id="Capa_1-2" data-name="Capa 1"><path class="cls-1" d="M102.4,102c1.6-1.6,3-2.4,4.4-2.4,3,0,4.6,3.2,2.2,6.2C98.8,118.8,74,149,46.4,149,6,149-5.39,121.6,2.21,97.6c6-19.2,23.4-30.4,41.6-31-16-4.4-19-18-12.6-31.4C40.21,16.6,64.61,0,89,0c51.6,0,20,55.4,2.61,55.4-2.41,0-8.61-5.2-11-8.2-.61-1-.81-3.4,1-3.8,19.19-4.2,30.59-32,17-32-16.8,0-38.79,13.4-45,27.6C47,54.2,57,65.2,74.2,65.2c5,0,1.41,15.6-5.59,15.6-19,0-37.8,5.4-43.2,24-4.8,16.4,2.8,30.6,25.4,30.6C71.4,135.4,89.4,116.4,102.4,102Z"/><path class="cls-1" d="M144,102c1.6-1.6,3-2.4,4.4-2.4,3,0,4.6,3.2,2.2,6.2-13.4,17.2-28.8,34.2-34,34.2-4.4,0-20.79-5.8-20.79-16.2C95.81,105.8,146,16,146,16c2.6-4,4.6-5.2,9-5.2s12.6,3,9.8,8.4c-1,2-47,92.6-47,106.6a.53.53,0,0,0,.6.6C121.8,126.4,132.8,114.4,144,102Z"/><path class="cls-1" d="M163,179.4c0-18,49.8-108.2,49.8-108.2,3-4.8,4.6-5.2,9-5.2s11.6,3,8.8,8.4c-1.8,3.4-4.6,9.4-8,16.6,10-12.8,23.6-25,33-25,34.2,0,1.4,74-21.6,74-12.8,0-21.6-9.4-24.6-20.2-13,29.2-26.8,62.4-27.8,72.8-.2,2-1,2.6-3,2.6C172.6,193.6,163,188,163,179.4Zm52.2-67c.4,7,4,14,10.8,14,10.2,0,33.8-49.2,24-49.2C241.6,77.2,222.2,101.2,215.2,112.4Z"/><path class="cls-1" d="M318.2,102c1.6-1.6,3-2.4,4.4-2.4,3,0,4.6,3.2,2.2,6.2C311.4,123,296,140,290.8,140c-4.4,0-20.8-5.8-20.8-16.2,0-18,50.2-107.8,50.2-107.8,2.6-4,4.6-5.2,9-5.2s12.6,3,9.8,8.4c-1,2-47,92.6-47,106.6a.53.53,0,0,0,.6.6C296,126.4,307,114.4,318.2,102Z"/><path class="cls-1" d="M359.4,66c10,0,14.6,4.2,16.4,9.8q2.7-4.2,4.2-6.6a6.06,6.06,0,0,1,5.2-3.2c4.2,0,14,4,10.2,10-5,8-24.2,50.4-19.4,50.4,3.4,0,14.4-12,25.6-24.4,1.6-1.6,3-2.4,4.4-2.4,2.8,0,4.6,3.2,2.2,6.2-13.6,17.2-28.8,34.2-34,34.2-4.4,0-19-5.6-19.2-16-7.8,9-16.4,16-23,16-8.8,0-18.6-6.2-18.6-16.2C313.4,103.4,332.4,66,359.4,66Zm-23.6,60.4c16.4,0,42.8-49.2,27.2-49.2C344.2,77.2,326.2,126.4,335.8,126.4Z"/><path class="cls-1" d="M398.6,116c0-17.4,19.8-50,40.4-50,24.6,0,23,26,10.8,32.6a3.77,3.77,0,0,1-1.6.4c-3,0-7.2-3.8-4.8-5.2,5.2-3.4,9-16.6,1.6-16.6-9,0-25.4,22.6-25.4,38.6,0,3.8,1.6,10.6,11.6,10.6,10.8,0,21.8-12,33-24.4,1.6-1.6,3-2.4,4.4-2.4,3,0,4.6,3.2,2.2,6.2C457.4,123,442,140,425.4,140,402,140,398.6,124.8,398.6,116Z"/><path class="cls-1" d="M501.6,66c13.8,0,19.4,8.2,19.4,16.6,0,16-14.2,23.2-28.6,23.2a36.81,36.81,0,0,1-8.2-.8,35.35,35.35,0,0,0-2,10.8c0,3.8,1.6,10.6,11.6,10.6,10.8,0,21.8-12,33-24.4,1.6-1.6,3-2.4,4.4-2.4,3,0,4.6,3.2,2.2,6.2C520,123,504.6,140,488,140c-23.4,0-26.8-15.2-26.8-24C461.2,98.6,481,66,501.6,66ZM492,96.4c9.8,0,19.8-4,19.8-14.4,0-2.6-1.2-4.8-4.2-4.8-5.6,0-14,8.6-19.6,19A26.8,26.8,0,0,0,492,96.4Z"/><path class="cls-1" d="M529.79,107.8c-3,0-5.2-3.2-3-5.8,6.4-7.2,12.6-14.8,17.4-20.6h-2.4c-5.8,0-9-8.4-9.8-12.2-.6-2.2.8-3.8,2.4-3.8.2,0,.4.2.6.2,1.2.4,10.4.6,20.2.6,12,0,25-.2,26.8-.2,4.2,0,14,4,10.2,10-5,8-24.2,50.4-19.4,50.4,3.4,0,14.4-12,25.6-24.4,1.6-1.6,3-2.4,4.4-2.4,3,0,4.6,3.2,2.2,6.2-13.4,17.2-28.8,34.2-34,34.2-4.4,0-19.2-5.8-19.2-16.2,0-11,10.2-30,17.8-43-5.8.2-12,.4-17.2.4-4.6,6-11.6,15.4-19,24.6A4.78,4.78,0,0,1,529.79,107.8Z"/><path class="cls-1" d="M645.59,123.8c0-20.4,19-57.8,46-57.8,8.6,0,13.2,3,15.6,7.4,14-28.2,30.2-57.4,30.2-57.4,2.6-4,4.6-5.2,9-5.2s12.6,3,9.8,8.4c-1,2-47,92.6-47,106.6a.53.53,0,0,0,.6.6c3.4,0,14.4-12,25.6-24.4,1.6-1.6,3-2.4,4.4-2.4,3,0,4.6,3.2,2.2,6.2-13.4,17.2-28.8,34.2-34,34.2-4.4,0-20.6-5.6-20.8-16-7.8,9-16.4,16-23,16C655.39,140,645.59,133.8,645.59,123.8Zm22.4,2.6c16.4,0,42.8-49.2,27.2-49.2C676.39,77.2,658.39,126.4,668,126.4Z"/><path class="cls-1" d="M772.79,66c13.8,0,19.4,8.2,19.4,16.6,0,16-14.2,23.2-28.6,23.2a36.81,36.81,0,0,1-8.2-.8,35.35,35.35,0,0,0-2,10.8c0,3.8,1.6,10.6,11.6,10.6,10.8,0,21.8-12,33-24.4,1.6-1.6,3-2.4,4.4-2.4,3,0,4.6,3.2,2.2,6.2-13.4,17.2-28.8,34.2-45.4,34.2-23.4,0-26.8-15.2-26.8-24C732.39,98.6,752.19,66,772.79,66Zm-9.6,30.4c9.8,0,19.8-4,19.8-14.4,0-2.6-1.2-4.8-4.2-4.8-5.6,0-14,8.6-19.6,19A26.8,26.8,0,0,0,763.19,96.4Z"/><path class="cls-1" d="M891.59,102c1.6-1.6,3-2.4,4.39-2.4,3,0,4.6,3.2,2.21,6.2-13.41,17.2-28.8,34.2-34,34.2-4.4,0-20.8-5.8-20.8-16.2,0-18,50.2-107.8,50.2-107.8,2.6-4,4.6-5.2,9-5.2s12.61,3,9.8,8.4c-1,2-47,92.6-47,106.6a.53.53,0,0,0,.6.6C869.39,126.4,880.39,114.4,891.59,102Z"/><path class="cls-1" d="M932.78,66c10,0,14.6,4.2,16.4,9.8q2.7-4.2,4.2-6.6a6.06,6.06,0,0,1,5.2-3.2c4.2,0,14,4,10.2,10-5,8-24.2,50.4-19.4,50.4,3.4,0,14.4-12,25.6-24.4,1.6-1.6,3-2.4,4.4-2.4,2.8,0,4.6,3.2,2.2,6.2-13.6,17.2-28.8,34.2-34,34.2-4.4,0-19-5.6-19.2-16-7.8,9-16.4,16-23,16-8.8,0-18.6-6.2-18.6-16.2C886.78,103.4,905.78,66,932.78,66Zm-23.6,60.4c16.4,0,42.8-49.2,27.2-49.2C917.58,77.2,899.58,126.4,909.18,126.4Z"/><path class="cls-1" d="M1020.38,123.8c0-15.2,19.6-46.2,25-54.6a6.06,6.06,0,0,1,5.2-3.2c4.2,0,14,4,10.2,10-4.4,7.2-20.2,41.6-20.2,46.4,0,2.6.8,4,4,4,6.8,0,28.8-21,37.8-44,2.6-6.4,6-16,4.4-23-.2-1.4,1.4-2.6,3.4-2.6,9,0,15.6,8.6,15.6,17a24.67,24.67,0,0,1-2.4,10.8c-10.6,23.8-51.6,55.4-61,55.4C1035.18,140,1020.38,134.2,1020.38,123.8Z"/><path class="cls-1" d="M1147.18,66c10,0,14.6,4.2,16.4,9.8q2.7-4.2,4.2-6.6A6.06,6.06,0,0,1,1173,66c4.2,0,14,4,10.2,10-5,8-24.2,50.4-19.4,50.4,3.4,0,14.4-12,25.6-24.4,1.6-1.6,3-2.4,4.4-2.4,2.8,0,4.6,3.2,2.2,6.2-13.6,17.2-28.8,34.2-34,34.2-4.4,0-19-5.6-19.2-16-7.8,9-16.4,16-23,16-8.8,0-18.6-6.2-18.6-16.2C1101.18,103.4,1120.18,66,1147.18,66Zm-23.6,60.4c16.4,0,42.8-49.2,27.2-49.2C1132,77.2,1114,126.4,1123.58,126.4Z"/><path class="cls-1" d="M1192.38,107.8c-3,0-5.2-3.2-3-5.8,6.4-7.2,12.6-14.8,17.4-20.6h-2.4c-5.8,0-9-8.4-9.8-12.2-.6-2.2.8-3.8,2.4-3.8.2,0,.4.2.6.2,1.2.4,10.4.6,20.2.6,12,0,25-.2,26.8-.2,4.2,0,14,4,10.2,10-5,8-24.2,50.4-19.4,50.4,3.4,0,14.4-12,25.6-24.4,1.6-1.6,3-2.4,4.4-2.4,3,0,4.6,3.2,2.2,6.2-13.4,17.2-28.8,34.2-34,34.2-4.4,0-19.2-5.8-19.2-16.2,0-11,10.2-30,17.8-43-5.8.2-12,.4-17.2.4-4.6,6-11.6,15.4-19,24.6A4.78,4.78,0,0,1,1192.38,107.8Z"/><path class="cls-1" d="M1301,102c1.6-1.6,3-2.4,4.4-2.4,3,0,4.6,3.2,2.2,6.2-13.4,17.2-28.8,34.2-34,34.2-4.4,0-19.2-5.8-19.2-16.2,0-15.2,19.6-46.2,25-54.6a6.06,6.06,0,0,1,5.2-3.2c4.2,0,14,4,10.19,10-5,8-24.19,50.4-19.39,50.4C1278.78,126.4,1289.78,114.4,1301,102Zm-3-42.4c-4.2,0-12-4-10.6-8,.6-1.8,5.6-16,8.6-21.8,1.4-2.6,3.79-3.6,6.6-3.6,7,0,16.19,7,13.4,11.2-3.6,5.6-13.21,17.4-15.6,21.2A2.73,2.73,0,0,1,1298,59.6Z"/><path class="cls-1" d="M1338.37,66c13.8,0,19.4,8.2,19.4,16.6,0,16-14.2,23.2-28.6,23.2a36.66,36.66,0,0,1-8.19-.8,35.05,35.05,0,0,0-2,10.8c0,3.8,1.59,10.6,11.59,10.6,10.8,0,21.8-12,33-24.4,1.6-1.6,3-2.4,4.4-2.4,3,0,4.6,3.2,2.2,6.2-13.4,17.2-28.8,34.2-45.4,34.2-23.4,0-26.79-15.2-26.79-24C1298,98.6,1317.77,66,1338.37,66Zm-9.6,30.4c9.8,0,19.8-4,19.8-14.4,0-2.6-1.2-4.8-4.2-4.8-5.6,0-14,8.6-19.6,19A26.8,26.8,0,0,0,1328.77,96.4Z"/><path class="cls-1" d="M1358.77,123.8c0-20.4,19-57.8,46-57.8,8.6,0,13.2,3,15.6,7.4,14-28.2,30.2-57.4,30.2-57.4,2.6-4,4.6-5.2,9-5.2s12.6,3,9.8,8.4c-1,2-47,92.6-47,106.6a.53.53,0,0,0,.6.6c3.4,0,14.4-12,25.6-24.4,1.6-1.6,3-2.4,4.4-2.4,3,0,4.6,3.2,2.2,6.2-13.4,17.2-28.8,34.2-34,34.2-4.4,0-20.6-5.6-20.8-16-7.8,9-16.4,16-23,16C1368.57,140,1358.77,133.8,1358.77,123.8Zm22.4,2.6c16.4,0,42.8-49.2,27.2-49.2C1389.57,77.2,1371.57,126.4,1381.17,126.4Z"/><path class="cls-1" d="M1489.77,66c10,0,14.6,4.2,16.4,9.8q2.7-4.2,4.2-6.6a6.06,6.06,0,0,1,5.2-3.2c4.2,0,14,4,10.2,10-5,8-24.2,50.4-19.4,50.4,3.4,0,14.4-12,25.6-24.4,1.6-1.6,3-2.4,4.4-2.4,2.8,0,4.6,3.2,2.2,6.2-13.6,17.2-28.8,34.2-34,34.2-4.4,0-19-5.6-19.2-16-7.8,9-16.4,16-23,16-8.8,0-18.6-6.2-18.6-16.2C1443.77,103.4,1462.77,66,1489.77,66Zm-23.6,60.4c16.4,0,42.8-49.2,27.2-49.2C1474.57,77.2,1456.57,126.4,1466.17,126.4Z"/><path class="cls-1" d="M1527.17,123.8c0-20.4,19-57.8,46-57.8,8.6,0,13.2,3,15.6,7.4,14-28.2,30.2-57.4,30.2-57.4,2.6-4,4.6-5.2,9-5.2s12.6,3,9.8,8.4c-1,2-47,92.6-47,106.6a.53.53,0,0,0,.6.6c3.4,0,14.4-12,25.6-24.4,1.6-1.6,3-2.4,4.4-2.4,3,0,4.6,3.2,2.2,6.2-13.4,17.2-28.8,34.2-34,34.2-4.4,0-20.6-5.6-20.8-16-7.8,9-16.4,16-23,16C1537,140,1527.17,133.8,1527.17,123.8Zm22.4,2.6c16.4,0,42.8-49.2,27.2-49.2C1558,77.2,1540,126.4,1549.57,126.4Z"/><path class="cls-2" d="M102.59,276.67q5.4,0,5.4,19.87a92,92,0,0,1-1.28,14q-1.27,8.09-4.68,8.09H66v28.39h52.24q4.82,0,6.53,12.49a74.78,74.78,0,0,1,.85,11.5,95,95,0,0,1-1.7,15.75q-1.71,9.66-5.68,9.65H21.12q-10.79,0-10.79-8.8V205.13q0-7.38,6.53-7.38H118.49q6,0,6,25.12t-6,25.13H66v28.67Z"/><path class="cls-2" d="M305.85,390.22q0,6-26.69,6t-29-4.26L202.8,303.35v88.29q0,5.1-26.26,5.11t-26.25-5.11V201.72q0-4.25,22.42-4.25A159.29,159.29,0,0,1,193.29,199q11.78,1.56,14.34,5.82l45.42,87.43V203.14q0-5.38,26.4-5.39t26.4,5.39Z"/><path class="cls-2" d="M480.43,203.43q0-5.69,30.8-5.68t30.8,5.68v130.3q0,28.95-20.72,47.26t-57.2,18.31q-36.5,0-59.34-18.88t-22.85-50.95V203.71q0-5.67,30.8-5.68t30.8,5.68v128q0,5.68,6,9.08a27,27,0,0,0,13.06,3.41,24.69,24.69,0,0,0,12.35-3.12,10.12,10.12,0,0,0,5.54-9.37Z"/><path class="cls-2" d="M721.43,390.22q0,6-26.68,6t-29-4.26l-47.41-88.57v88.29q0,5.1-26.26,5.11t-26.26-5.11V201.72q0-4.25,22.43-4.25A159.54,159.54,0,0,1,608.88,199q11.77,1.56,14.33,5.82l45.42,87.43V203.14q0-5.38,26.4-5.39t26.4,5.39Z"/><path class="cls-2" d="M810.57,327.2q5.38,4.26,18.59,11.64t25.27,7.38q12.06,0,12.06-9.37a10.13,10.13,0,0,0-3.41-7.52q-3.41-3.27-12.49-7.53T837,315.13a104,104,0,0,1-12.07-7.95,47.11,47.11,0,0,1-11.49-11.49Q802,279.51,802.05,254.53t18.59-42.16q18.6-17.18,48.69-17.17a152.68,152.68,0,0,1,37.75,4.4Q924.41,204,925,211.09v1.71q0,9.93-6.25,25.12t-8.8,16.89q-18.17-9.37-32.5-9.37t-14.34,10.22q0,6.25,10.51,11.07,2.26,1.14,6.53,3.12t9.79,4.69a117.54,117.54,0,0,1,11.92,6.81,103.57,103.57,0,0,1,13.77,10.93q15,14.21,15,37.47,0,30.38-16.75,49.68T862.23,399.3a153.26,153.26,0,0,1-30.8-2.84,55.43,55.43,0,0,1-24-11.07q-10.22-8.24-10.22-19.87a66.11,66.11,0,0,1,4.26-23.13Q805.74,330.89,810.57,327.2Z"/><path class="cls-2" d="M1038.37,399.3q-39.88,0-65-26.12T948.24,297q0-50.08,25.41-75.93t65.58-25.83q40.15,0,64.86,25.4t24.7,76.93q0,51.53-25.27,76.65T1038.37,399.3Zm.15-149.6q-13.63,0-22.86,12.49t-9.22,35.06q0,22.56,8.8,34.63T1038.37,344q14.34,0,23.28-12.21t8.94-34.92q0-22.71-9.22-34.91T1038.52,249.7Z"/><path class="cls-2" d="M1148.66,379.71V203.14q0-6,28.81-6t28.82,6v139.1H1250q5.1,0,7.09,13.35a102.63,102.63,0,0,1,.85,13.34,116.24,116.24,0,0,1-.85,13.91q-2.28,13.62-7.38,13.62h-87.43a11.63,11.63,0,0,1-9.94-5.11A19.35,19.35,0,0,1,1148.66,379.71Z"/><path class="cls-2" d="M1359.44,399.3q-39.89,0-65-26.12T1269.31,297q0-50.08,25.4-75.93t65.58-25.83q40.17,0,64.86,25.4t24.7,76.93q0,51.53-25.26,76.65T1359.44,399.3Zm.14-149.6q-13.62,0-22.85,12.49t-9.23,35.06q0,22.56,8.8,34.63T1359.44,344q14.32,0,23.28-12.21t8.94-34.92q0-22.71-9.23-34.91T1359.58,249.7Z"/><path class="cls-2" d="M35,638.33q-25.83,0-25.83-5.68V448.7Q9.2,439,18,439H68q42,0,60.61,17.32t18.59,50.25q0,27.25-17.6,50-8.81,11.35-25.83,18.17T64,581.55v50.81q0,3.4-10.65,4.69A157.38,157.38,0,0,1,35,638.33ZM64,488.44v44.85h3.69a23.9,23.9,0,0,0,16.75-6.24q6.81-6.25,6.81-17.61t-4.68-16.18q-4.69-4.81-16.61-4.82Z"/><path class="cls-2" d="M169.3,621V444.44q0-6,28.82-6t28.81,6v139.1h43.72q5.1,0,7.09,13.34a102.63,102.63,0,0,1,.85,13.34,116.24,116.24,0,0,1-.85,13.91q-2.26,13.64-7.38,13.63H182.93a11.65,11.65,0,0,1-9.94-5.11A19.4,19.4,0,0,1,169.3,621Z"/><path class="cls-2" d="M429.05,638.33q-24.71,0-26.69-8L393,593.76H347.86L339.63,629q-1.71,8.81-27.26,8.8-13.62,0-20.15-1.56c-4.36-1-6.53-1.85-6.53-2.42L335.94,441.6q0-2.27,38.89-2.27t38.89,2.27l49.11,192.47c0,1.32-4.36,2.37-13.06,3.12S434.16,638.33,429.05,638.33ZM355,557.7h29.8L372,498.94h-1.71Z"/><path class="cls-2" d="M559.92,633.22q0,5.67-28.11,5.67t-28.1-5.67V490.71H469.64q-4.83,0-6.81-13.06a96.43,96.43,0,0,1,0-25.55q2-13.05,6.81-13.06H593.13q4.82,0,6.81,13.06a96.43,96.43,0,0,1,0,25.55q-2,13.07-6.81,13.06H559.92Z"/><path class="cls-2" d="M701.43,640.6q-39.88,0-65-26.12T611.3,538.26q0-50.1,25.4-75.94t65.58-25.83q40.17,0,64.86,25.41t24.7,76.93q0,51.52-25.26,76.64T701.43,640.6ZM701.57,491q-13.62,0-22.85,12.49t-9.23,35.06q0,22.58,8.8,34.64t23.14,12.06q14.33,0,23.28-12.21t8.94-34.91q0-22.71-9.23-34.92T701.57,491Z"/><path class="cls-1" d="M192.59,790.56q-2.26-2.23-7.18-2.23h-.77v23a5.46,5.46,0,0,0,.23,2c.16.28.62.42,1.39.42a7.32,7.32,0,0,0,6.41-3.15q2.19-3.15,2.19-10.49C194.86,795.23,194.1,792.05,192.59,790.56Zm0,0q-2.26-2.23-7.18-2.23h-.77v23a5.46,5.46,0,0,0,.23,2c.16.28.62.42,1.39.42a7.32,7.32,0,0,0,6.41-3.15q2.19-3.15,2.19-10.49C194.86,795.23,194.1,792.05,192.59,790.56Zm0,0q-2.26-2.23-7.18-2.23h-.77v23a5.46,5.46,0,0,0,.23,2c.16.28.62.42,1.39.42a7.32,7.32,0,0,0,6.41-3.15q2.19-3.15,2.19-10.49C194.86,795.23,194.1,792.05,192.59,790.56Zm97.61-.62h-.47l-4.14,15.91h8.06Zm66.79.62q-2.26-2.23-7.18-2.23H349v23a5.46,5.46,0,0,0,.23,2q.24.42,1.38.42a7.32,7.32,0,0,0,6.42-3.15q2.19-3.15,2.19-10.49C359.26,795.23,358.5,792.05,357,790.56Zm0,0q-2.26-2.23-7.18-2.23H349v23a5.46,5.46,0,0,0,.23,2q.24.42,1.38.42a7.32,7.32,0,0,0,6.42-3.15q2.19-3.15,2.19-10.49C359.26,795.23,358.5,792.05,357,790.56Zm-66.79-.62h-.47l-4.14,15.91h8.06Zm-97.61.62q-2.26-2.23-7.18-2.23h-.77v23a5.46,5.46,0,0,0,.23,2c.16.28.62.42,1.39.42a7.32,7.32,0,0,0,6.41-3.15q2.19-3.15,2.19-10.49C194.86,795.23,194.1,792.05,192.59,790.56Zm0,0q-2.26-2.23-7.18-2.23h-.77v23a5.46,5.46,0,0,0,.23,2c.16.28.62.42,1.39.42a7.32,7.32,0,0,0,6.41-3.15q2.19-3.15,2.19-10.49C194.86,795.23,194.1,792.05,192.59,790.56Zm97.61-.62h-.47l-4.14,15.91h8.06Zm66.79.62q-2.26-2.23-7.18-2.23H349v23a5.46,5.46,0,0,0,.23,2q.24.42,1.38.42a7.32,7.32,0,0,0,6.42-3.15q2.19-3.15,2.19-10.49C359.26,795.23,358.5,792.05,357,790.56Zm53.7.54a7.39,7.39,0,0,0-12.37.07q-2.49,3.39-2.49,9.49c0,4.07.79,7.2,2.38,9.37a7.38,7.38,0,0,0,6.26,3.27,7.49,7.49,0,0,0,6.3-3.3q2.42-3.32,2.42-9.45C413.19,796.45,412.35,793.3,410.69,791.1Zm0,0a7.39,7.39,0,0,0-12.37.07q-2.49,3.39-2.49,9.49c0,4.07.79,7.2,2.38,9.37a7.38,7.38,0,0,0,6.26,3.27,7.49,7.49,0,0,0,6.3-3.3q2.42-3.32,2.42-9.45C413.19,796.45,412.35,793.3,410.69,791.1Zm-53.7-.54q-2.26-2.23-7.18-2.23H349v23a5.46,5.46,0,0,0,.23,2q.24.42,1.38.42a7.32,7.32,0,0,0,6.42-3.15q2.19-3.15,2.19-10.49C359.26,795.23,358.5,792.05,357,790.56Zm-66.79-.62h-.47l-4.14,15.91h8.06Zm-97.61.62q-2.26-2.23-7.18-2.23h-.77v23a5.46,5.46,0,0,0,.23,2c.16.28.62.42,1.39.42a7.32,7.32,0,0,0,6.41-3.15q2.19-3.15,2.19-10.49C194.86,795.23,194.1,792.05,192.59,790.56Zm0,0q-2.26-2.23-7.18-2.23h-.77v23a5.46,5.46,0,0,0,.23,2c.16.28.62.42,1.39.42a7.32,7.32,0,0,0,6.41-3.15q2.19-3.15,2.19-10.49C194.86,795.23,194.1,792.05,192.59,790.56Zm97.61-.62h-.47l-4.14,15.91h8.06Zm66.79.62q-2.26-2.23-7.18-2.23H349v23a5.46,5.46,0,0,0,.23,2q.24.42,1.38.42a7.32,7.32,0,0,0,6.42-3.15q2.19-3.15,2.19-10.49C359.26,795.23,358.5,792.05,357,790.56Zm53.7.54a7.39,7.39,0,0,0-12.37.07q-2.49,3.39-2.49,9.49c0,4.07.79,7.2,2.38,9.37a7.38,7.38,0,0,0,6.26,3.27,7.49,7.49,0,0,0,6.3-3.3q2.42-3.32,2.42-9.45C413.19,796.45,412.35,793.3,410.69,791.1Zm0,0a7.39,7.39,0,0,0-12.37.07q-2.49,3.39-2.49,9.49c0,4.07.79,7.2,2.38,9.37a7.38,7.38,0,0,0,6.26,3.27,7.49,7.49,0,0,0,6.3-3.3q2.42-3.32,2.42-9.45C413.19,796.45,412.35,793.3,410.69,791.1Zm-53.7-.54q-2.26-2.23-7.18-2.23H349v23a5.46,5.46,0,0,0,.23,2q.24.42,1.38.42a7.32,7.32,0,0,0,6.42-3.15q2.19-3.15,2.19-10.49C359.26,795.23,358.5,792.05,357,790.56Zm-66.79-.62h-.47l-4.14,15.91h8.06Zm-97.61.62q-2.26-2.23-7.18-2.23h-.77v23a5.46,5.46,0,0,0,.23,2c.16.28.62.42,1.39.42a7.32,7.32,0,0,0,6.41-3.15q2.19-3.15,2.19-10.49C194.86,795.23,194.1,792.05,192.59,790.56Zm0,0q-2.26-2.23-7.18-2.23h-.77v23a5.46,5.46,0,0,0,.23,2c.16.28.62.42,1.39.42a7.32,7.32,0,0,0,6.41-3.15q2.19-3.15,2.19-10.49C194.86,795.23,194.1,792.05,192.59,790.56Zm97.61-.62h-.47l-4.14,15.91h8.06Zm66.79.62q-2.26-2.23-7.18-2.23H349v23a5.46,5.46,0,0,0,.23,2q.24.42,1.38.42a7.32,7.32,0,0,0,6.42-3.15q2.19-3.15,2.19-10.49C359.26,795.23,358.5,792.05,357,790.56Zm53.7.54a7.39,7.39,0,0,0-12.37.07q-2.49,3.39-2.49,9.49c0,4.07.79,7.2,2.38,9.37a7.38,7.38,0,0,0,6.26,3.27,7.49,7.49,0,0,0,6.3-3.3q2.42-3.32,2.42-9.45C413.19,796.45,412.35,793.3,410.69,791.1Zm0,0a7.39,7.39,0,0,0-12.37.07q-2.49,3.39-2.49,9.49c0,4.07.79,7.2,2.38,9.37a7.38,7.38,0,0,0,6.26,3.27,7.49,7.49,0,0,0,6.3-3.3q2.42-3.32,2.42-9.45C413.19,796.45,412.35,793.3,410.69,791.1Zm-53.7-.54q-2.26-2.23-7.18-2.23H349v23a5.46,5.46,0,0,0,.23,2q.24.42,1.38.42a7.32,7.32,0,0,0,6.42-3.15q2.19-3.15,2.19-10.49C359.26,795.23,358.5,792.05,357,790.56Zm-66.79-.62h-.47l-4.14,15.91h8.06Zm-97.61.62q-2.26-2.23-7.18-2.23h-.77v23a5.46,5.46,0,0,0,.23,2c.16.28.62.42,1.39.42a7.32,7.32,0,0,0,6.41-3.15q2.19-3.15,2.19-10.49C194.86,795.23,194.1,792.05,192.59,790.56Zm0,0q-2.26-2.23-7.18-2.23h-.77v23a5.46,5.46,0,0,0,.23,2c.16.28.62.42,1.39.42a7.32,7.32,0,0,0,6.41-3.15q2.19-3.15,2.19-10.49C194.86,795.23,194.1,792.05,192.59,790.56Zm97.61-.62h-.47l-4.14,15.91h8.06Zm66.79.62q-2.26-2.23-7.18-2.23H349v23a5.46,5.46,0,0,0,.23,2q.24.42,1.38.42a7.32,7.32,0,0,0,6.42-3.15q2.19-3.15,2.19-10.49C359.26,795.23,358.5,792.05,357,790.56Zm53.7.54a7.39,7.39,0,0,0-12.37.07q-2.49,3.39-2.49,9.49c0,4.07.79,7.2,2.38,9.37a7.38,7.38,0,0,0,6.26,3.27,7.49,7.49,0,0,0,6.3-3.3q2.42-3.32,2.42-9.45C413.19,796.45,412.35,793.3,410.69,791.1Zm298.53,0a7.39,7.39,0,0,0-12.37.07c-1.66,2.26-2.5,5.42-2.5,9.49s.8,7.2,2.39,9.37A7.38,7.38,0,0,0,703,813.3a7.49,7.49,0,0,0,6.3-3.3q2.41-3.32,2.42-9.45C711.72,796.45,710.88,793.3,709.22,791.1Zm0,0a7.39,7.39,0,0,0-12.37.07c-1.66,2.26-2.5,5.42-2.5,9.49s.8,7.2,2.39,9.37A7.38,7.38,0,0,0,703,813.3a7.49,7.49,0,0,0,6.3-3.3q2.41-3.32,2.42-9.45C711.72,796.45,710.88,793.3,709.22,791.1Zm-298.53,0a7.39,7.39,0,0,0-12.37.07q-2.49,3.39-2.49,9.49c0,4.07.79,7.2,2.38,9.37a7.38,7.38,0,0,0,6.26,3.27,7.49,7.49,0,0,0,6.3-3.3q2.42-3.32,2.42-9.45C413.19,796.45,412.35,793.3,410.69,791.1Zm-53.7-.54q-2.26-2.23-7.18-2.23H349v23a5.46,5.46,0,0,0,.23,2q.24.42,1.38.42a7.32,7.32,0,0,0,6.42-3.15q2.19-3.15,2.19-10.49C359.26,795.23,358.5,792.05,357,790.56Zm-66.79-.62h-.47l-4.14,15.91h8.06Zm-97.61.62q-2.26-2.23-7.18-2.23h-.77v23a5.46,5.46,0,0,0,.23,2c.16.28.62.42,1.39.42a7.32,7.32,0,0,0,6.41-3.15q2.19-3.15,2.19-10.49C194.86,795.23,194.1,792.05,192.59,790.56Zm533.27-60.34H71.33a70.44,70.44,0,0,0,0,140.88H725.86a70.44,70.44,0,0,0,0-140.88ZM125.41,805.54a16.1,16.1,0,0,1-7,4.92,28.78,28.78,0,0,1-10.75,1.84v13.75c0,.62-1,1-2.88,1.27a42.39,42.39,0,0,1-5,.34q-7,0-7-1.53V776.35c0-1.74.8-2.62,2.38-2.62h13.52q11.37,0,16.41,4.69t5,13.6A21.55,21.55,0,0,1,125.41,805.54Zm39,18.67c-.36,2.2-1,3.3-1.84,3.3H136.71q-1.31,0-1.77-3.3a17.77,17.77,0,0,1,0-6.61q.47-3.3,1.77-3.3H142V787h-5.46c-.87,0-1.48-1.1-1.84-3.31a23.79,23.79,0,0,1,0-6.6c.36-2.2,1-3.31,1.84-3.31h25.82c.87,0,1.46,1.11,1.76,3.31a17.72,17.72,0,0,1,0,6.6c-.3,2.21-.89,3.31-1.76,3.31h-5.15V814.3h5.38c.87,0,1.48,1.1,1.84,3.3a17.77,17.77,0,0,1,0,6.61Zm22.51,3.3H173.81q-3.92,0-3.92-3.53v-46.1a4.48,4.48,0,0,1,1-3,3.15,3.15,0,0,1,2.5-1.12h12.83q12.21,0,18.55,6.15t6.34,19.36Q211.07,827.52,187,827.51Zm61-2.61c-.3,1.74-.82,2.61-1.53,2.61H220.13c-1.94,0-2.91-.79-2.91-2.38v-49.4c0-1.33.58-2,1.76-2h27.5q1.62,0,1.62,6.8c0,4.54-.54,6.8-1.62,6.8H232.27v7.76h9.91c1,0,1.46,1.79,1.46,5.38a24.84,24.84,0,0,1-.34,3.8c-.23,1.46-.66,2.19-1.27,2.19h-9.76v7.68h14.14c.87,0,1.46,1.13,1.76,3.38a19.24,19.24,0,0,1,.24,3.11A25.42,25.42,0,0,1,247.94,824.9Zm63.31,2.46q-3.54.3-5.61.3c-4.46,0-6.87-.71-7.22-2.15l-2.54-9.91H283.67l-2.23,9.53q-.46,2.39-7.38,2.38a25.67,25.67,0,0,1-5.45-.42c-1.18-.28-1.77-.5-1.77-.65l13.6-52q0-.61,10.52-.62t10.53.62l13.29,52.08C314.78,826.87,313.6,827.15,311.25,827.36Zm40.1.15H338.21q-3.91,0-3.92-3.53v-46.1a4.48,4.48,0,0,1,1-3,3.15,3.15,0,0,1,2.5-1.12h12.83q12.21,0,18.55,6.15t6.34,19.36Q375.47,827.52,351.35,827.51Zm70.75-6q-6.84,6.79-17.63,6.8t-17.59-7.07q-6.81-7.07-6.8-20.63T387,780q6.89-7,17.75-7t17.55,6.88q6.69,6.87,6.69,20.82T422.1,821.48Zm72.06,5.72a41.72,41.72,0,0,1-5.3.39q-6.84,0-6.84-1.54l-1.61-30.8L471,826.44q-.32.91-5.23.92c-3.28,0-5-.28-5.07-.85l-9.68-31.57L450,825.59c-.06.77-1,1.29-2.92,1.57a32.26,32.26,0,0,1-4.73.43,29,29,0,0,1-3.65-.23c-2.46-.36-3.66-1-3.61-1.92l1.77-49.94q0-1.85,9.37-1.84a66.19,66.19,0,0,1,6.76.42q4,.42,4.46,1.65l8.6,24.2,7.53-24.27q.69-2,10.6-2a65.75,65.75,0,0,1,6.8.42q4,.42,4,1.5L497.15,826C497.15,826.54,496.16,827,494.16,827.2Zm38.1-3c-.36,2.2-1,3.3-1.84,3.3H504.53q-1.3,0-1.77-3.3a18.36,18.36,0,0,1,0-6.61q.47-3.3,1.77-3.3h5.3V787h-5.45c-.88,0-1.49-1.1-1.85-3.31a23.79,23.79,0,0,1,0-6.6c.36-2.2,1-3.31,1.85-3.31h25.81c.87,0,1.46,1.11,1.77,3.31a18.3,18.3,0,0,1,0,6.6c-.31,2.21-.9,3.31-1.77,3.31H525V814.3h5.38c.87,0,1.48,1.1,1.84,3.3a17.77,17.77,0,0,1,0,6.61Zm38,2.3a30.39,30.39,0,0,1-10.91,1.77,21.56,21.56,0,0,1-16.67-7.15Q536.18,814,536.18,801t6.72-20.47A21.68,21.68,0,0,1,559.69,773a28.39,28.39,0,0,1,9.87,1.58q4.26,1.57,4.26,4.26a15.35,15.35,0,0,1-2,6.65c-1.36,2.64-2.5,4-3.42,4a1.48,1.48,0,0,1-.89-.42,7,7,0,0,0-2.3-.92,12,12,0,0,0-3.11-.5,9,9,0,0,0-7.18,3.15q-2.73,3.15-2.73,9.64t2.8,9.64a9.11,9.11,0,0,0,7.11,3.15,17.41,17.41,0,0,0,3.95-.5,6.39,6.39,0,0,0,3.12-1.42.88.88,0,0,1,.61-.15c.31,0,.88.57,1.73,1.73a19.76,19.76,0,0,1,2.34,4.53,13.17,13.17,0,0,1,1.08,4.34C574.9,823.75,573.36,825.33,570.29,826.51Zm38-2.3c-.35,2.2-1,3.3-1.84,3.3H580.58c-.87,0-1.46-1.1-1.76-3.3a17.77,17.77,0,0,1,0-6.61c.3-2.2.89-3.3,1.76-3.3h5.3V787h-5.45c-.87,0-1.49-1.1-1.85-3.31a23.79,23.79,0,0,1,0-6.6c.36-2.2,1-3.31,1.85-3.31h25.81c.87,0,1.46,1.11,1.77,3.31a18.3,18.3,0,0,1,0,6.6c-.31,2.21-.9,3.31-1.77,3.31h-5.15V814.3h5.38c.87,0,1.49,1.1,1.84,3.3a17.77,17.77,0,0,1,0,6.61Zm34-.39c-.41,2.46-1.08,3.69-2,3.69H616.69a3.14,3.14,0,0,1-2.69-1.38,5.21,5.21,0,0,1-1-3.15V775.19q0-1.61,7.8-1.61t7.79,1.61v37.65h11.84c.92,0,1.56,1.2,1.92,3.61a28.56,28.56,0,0,1,.23,3.61A32.27,32.27,0,0,1,642.35,823.82Zm32.34.39c-.36,2.2-1,3.3-1.85,3.3H647c-.88,0-1.46-1.1-1.77-3.3a17.77,17.77,0,0,1,0-6.61c.31-2.2.89-3.3,1.77-3.3h5.3V787H646.8c-.87,0-1.48-1.1-1.84-3.31a23.79,23.79,0,0,1,0-6.6c.36-2.2,1-3.31,1.84-3.31h25.81c.87,0,1.46,1.11,1.77,3.31a17.72,17.72,0,0,1,0,6.6c-.31,2.21-.9,3.31-1.77,3.31h-5.14V814.3h5.37c.87,0,1.49,1.1,1.85,3.3a17.77,17.77,0,0,1,0,6.61Zm45.94-2.73q-6.84,6.79-17.63,6.8t-17.6-7.07q-6.79-7.07-6.8-20.63T685.48,780q6.87-7,17.75-7t17.55,6.88q6.69,6.87,6.68,20.82T720.63,821.48ZM703,787.79a7.46,7.46,0,0,0-6.18,3.38c-1.66,2.26-2.5,5.42-2.5,9.49s.8,7.2,2.39,9.37A7.38,7.38,0,0,0,703,813.3a7.49,7.49,0,0,0,6.3-3.3q2.41-3.32,2.42-9.45c0-4.1-.84-7.25-2.5-9.45A7.53,7.53,0,0,0,703,787.79Zm-298.52,0a7.48,7.48,0,0,0-6.19,3.38q-2.49,3.39-2.49,9.49c0,4.07.79,7.2,2.38,9.37a7.38,7.38,0,0,0,6.26,3.27,7.49,7.49,0,0,0,6.3-3.3q2.42-3.32,2.42-9.45c0-4.1-.84-7.25-2.5-9.45A7.5,7.5,0,0,0,404.51,787.79Zm-54.7.54H349v23a5.46,5.46,0,0,0,.23,2q.24.42,1.38.42a7.32,7.32,0,0,0,6.42-3.15q2.19-3.15,2.19-10.49c0-4.89-.76-8.07-2.27-9.56S353.09,788.33,349.81,788.33Zm-60.08,1.61-4.14,15.91h8.06l-3.45-15.91Zm-104.32-1.61h-.77v23a5.46,5.46,0,0,0,.23,2c.16.28.62.42,1.39.42a7.32,7.32,0,0,0,6.41-3.15q2.19-3.15,2.19-10.49c0-4.89-.76-8.07-2.27-9.56S188.69,788.33,185.41,788.33Zm7.18,2.23q-2.26-2.23-7.18-2.23h-.77v23a5.46,5.46,0,0,0,.23,2c.16.28.62.42,1.39.42a7.32,7.32,0,0,0,6.41-3.15q2.19-3.15,2.19-10.49C194.86,795.23,194.1,792.05,192.59,790.56Zm97.61-.62h-.47l-4.14,15.91h8.06Zm66.79.62q-2.26-2.23-7.18-2.23H349v23a5.46,5.46,0,0,0,.23,2q.24.42,1.38.42a7.32,7.32,0,0,0,6.42-3.15q2.19-3.15,2.19-10.49C359.26,795.23,358.5,792.05,357,790.56Zm53.7.54a7.39,7.39,0,0,0-12.37.07q-2.49,3.39-2.49,9.49c0,4.07.79,7.2,2.38,9.37a7.38,7.38,0,0,0,6.26,3.27,7.49,7.49,0,0,0,6.3-3.3q2.42-3.32,2.42-9.45C413.19,796.45,412.35,793.3,410.69,791.1Zm0,0a7.39,7.39,0,0,0-12.37.07q-2.49,3.39-2.49,9.49c0,4.07.79,7.2,2.38,9.37a7.38,7.38,0,0,0,6.26,3.27,7.49,7.49,0,0,0,6.3-3.3q2.42-3.32,2.42-9.45C413.19,796.45,412.35,793.3,410.69,791.1Zm-53.7-.54q-2.26-2.23-7.18-2.23H349v23a5.46,5.46,0,0,0,.23,2q.24.42,1.38.42a7.32,7.32,0,0,0,6.42-3.15q2.19-3.15,2.19-10.49C359.26,795.23,358.5,792.05,357,790.56Zm-66.79-.62h-.47l-4.14,15.91h8.06Zm-97.61.62q-2.26-2.23-7.18-2.23h-.77v23a5.46,5.46,0,0,0,.23,2c.16.28.62.42,1.39.42a7.32,7.32,0,0,0,6.41-3.15q2.19-3.15,2.19-10.49C194.86,795.23,194.1,792.05,192.59,790.56Zm0,0q-2.26-2.23-7.18-2.23h-.77v23a5.46,5.46,0,0,0,.23,2c.16.28.62.42,1.39.42a7.32,7.32,0,0,0,6.41-3.15q2.19-3.15,2.19-10.49C194.86,795.23,194.1,792.05,192.59,790.56Zm97.61-.62h-.47l-4.14,15.91h8.06Zm66.79.62q-2.26-2.23-7.18-2.23H349v23a5.46,5.46,0,0,0,.23,2q.24.42,1.38.42a7.32,7.32,0,0,0,6.42-3.15q2.19-3.15,2.19-10.49C359.26,795.23,358.5,792.05,357,790.56Zm53.7.54a7.39,7.39,0,0,0-12.37.07q-2.49,3.39-2.49,9.49c0,4.07.79,7.2,2.38,9.37a7.38,7.38,0,0,0,6.26,3.27,7.49,7.49,0,0,0,6.3-3.3q2.42-3.32,2.42-9.45C413.19,796.45,412.35,793.3,410.69,791.1Zm0,0a7.39,7.39,0,0,0-12.37.07q-2.49,3.39-2.49,9.49c0,4.07.79,7.2,2.38,9.37a7.38,7.38,0,0,0,6.26,3.27,7.49,7.49,0,0,0,6.3-3.3q2.42-3.32,2.42-9.45C413.19,796.45,412.35,793.3,410.69,791.1Zm-53.7-.54q-2.26-2.23-7.18-2.23H349v23a5.46,5.46,0,0,0,.23,2q.24.42,1.38.42a7.32,7.32,0,0,0,6.42-3.15q2.19-3.15,2.19-10.49C359.26,795.23,358.5,792.05,357,790.56Zm-66.79-.62h-.47l-4.14,15.91h8.06Zm-97.61.62q-2.26-2.23-7.18-2.23h-.77v23a5.46,5.46,0,0,0,.23,2c.16.28.62.42,1.39.42a7.32,7.32,0,0,0,6.41-3.15q2.19-3.15,2.19-10.49C194.86,795.23,194.1,792.05,192.59,790.56Zm0,0q-2.26-2.23-7.18-2.23h-.77v23a5.46,5.46,0,0,0,.23,2c.16.28.62.42,1.39.42a7.32,7.32,0,0,0,6.41-3.15q2.19-3.15,2.19-10.49C194.86,795.23,194.1,792.05,192.59,790.56Zm97.61-.62h-.47l-4.14,15.91h8.06Zm66.79.62q-2.26-2.23-7.18-2.23H349v23a5.46,5.46,0,0,0,.23,2q.24.42,1.38.42a7.32,7.32,0,0,0,6.42-3.15q2.19-3.15,2.19-10.49C359.26,795.23,358.5,792.05,357,790.56Zm53.7.54a7.39,7.39,0,0,0-12.37.07q-2.49,3.39-2.49,9.49c0,4.07.79,7.2,2.38,9.37a7.38,7.38,0,0,0,6.26,3.27,7.49,7.49,0,0,0,6.3-3.3q2.42-3.32,2.42-9.45C413.19,796.45,412.35,793.3,410.69,791.1Zm0,0a7.39,7.39,0,0,0-12.37.07q-2.49,3.39-2.49,9.49c0,4.07.79,7.2,2.38,9.37a7.38,7.38,0,0,0,6.26,3.27,7.49,7.49,0,0,0,6.3-3.3q2.42-3.32,2.42-9.45C413.19,796.45,412.35,793.3,410.69,791.1Zm-53.7-.54q-2.26-2.23-7.18-2.23H349v23a5.46,5.46,0,0,0,.23,2q.24.42,1.38.42a7.32,7.32,0,0,0,6.42-3.15q2.19-3.15,2.19-10.49C359.26,795.23,358.5,792.05,357,790.56Zm-66.79-.62h-.47l-4.14,15.91h8.06Zm-97.61.62q-2.26-2.23-7.18-2.23h-.77v23a5.46,5.46,0,0,0,.23,2c.16.28.62.42,1.39.42a7.32,7.32,0,0,0,6.41-3.15q2.19-3.15,2.19-10.49C194.86,795.23,194.1,792.05,192.59,790.56Zm0,0q-2.26-2.23-7.18-2.23h-.77v23a5.46,5.46,0,0,0,.23,2c.16.28.62.42,1.39.42a7.32,7.32,0,0,0,6.41-3.15q2.19-3.15,2.19-10.49C194.86,795.23,194.1,792.05,192.59,790.56Zm97.61-.62h-.47l-4.14,15.91h8.06Zm66.79.62q-2.26-2.23-7.18-2.23H349v23a5.46,5.46,0,0,0,.23,2q.24.42,1.38.42a7.32,7.32,0,0,0,6.42-3.15q2.19-3.15,2.19-10.49C359.26,795.23,358.5,792.05,357,790.56Zm53.7.54a7.39,7.39,0,0,0-12.37.07q-2.49,3.39-2.49,9.49c0,4.07.79,7.2,2.38,9.37a7.38,7.38,0,0,0,6.26,3.27,7.49,7.49,0,0,0,6.3-3.3q2.42-3.32,2.42-9.45C413.19,796.45,412.35,793.3,410.69,791.1Zm0,0a7.39,7.39,0,0,0-12.37.07q-2.49,3.39-2.49,9.49c0,4.07.79,7.2,2.38,9.37a7.38,7.38,0,0,0,6.26,3.27,7.49,7.49,0,0,0,6.3-3.3q2.42-3.32,2.42-9.45C413.19,796.45,412.35,793.3,410.69,791.1Zm-53.7-.54q-2.26-2.23-7.18-2.23H349v23a5.46,5.46,0,0,0,.23,2q.24.42,1.38.42a7.32,7.32,0,0,0,6.42-3.15q2.19-3.15,2.19-10.49C359.26,795.23,358.5,792.05,357,790.56Zm-66.79-.62h-.47l-4.14,15.91h8.06Zm-97.61.62q-2.26-2.23-7.18-2.23h-.77v23a5.46,5.46,0,0,0,.23,2c.16.28.62.42,1.39.42a7.32,7.32,0,0,0,6.41-3.15q2.19-3.15,2.19-10.49C194.86,795.23,194.1,792.05,192.59,790.56Zm0,0q-2.26-2.23-7.18-2.23h-.77v23a5.46,5.46,0,0,0,.23,2c.16.28.62.42,1.39.42a7.32,7.32,0,0,0,6.41-3.15q2.19-3.15,2.19-10.49C194.86,795.23,194.1,792.05,192.59,790.56Zm97.61-.62h-.47l-4.14,15.91h8.06Zm0,0h-.47l-4.14,15.91h8.06Zm-97.61.62q-2.26-2.23-7.18-2.23h-.77v23a5.46,5.46,0,0,0,.23,2c.16.28.62.42,1.39.42a7.32,7.32,0,0,0,6.41-3.15q2.19-3.15,2.19-10.49C194.86,795.23,194.1,792.05,192.59,790.56Zm0,0q-2.26-2.23-7.18-2.23h-.77v23a5.46,5.46,0,0,0,.23,2c.16.28.62.42,1.39.42a7.32,7.32,0,0,0,6.41-3.15q2.19-3.15,2.19-10.49C194.86,795.23,194.1,792.05,192.59,790.56Zm0,0q-2.26-2.23-7.18-2.23h-.77v23a5.46,5.46,0,0,0,.23,2c.16.28.62.42,1.39.42a7.32,7.32,0,0,0,6.41-3.15q2.19-3.15,2.19-10.49C194.86,795.23,194.1,792.05,192.59,790.56Z"/><path class="cls-1" d="M115,792.79a6.13,6.13,0,0,1-1.84,4.76,6.44,6.44,0,0,1-4.53,1.69h-1V787.1h1.61c2.15,0,3.65.44,4.5,1.31S115,790.74,115,792.79Z"/></g></g></svg>