<?xml version="1.0" encoding="utf-8"?>
<!-- Generator: Adobe Illustrator 26.0.1, SVG Export Plug-In . SVG Version: 6.00 Build 0)  -->
<svg version="1.1" id="Capa_1" xmlns="http://www.w3.org/2000/svg" xmlns:xlink="http://www.w3.org/1999/xlink" x="0px" y="0px"
	 viewBox="0 0 1829.6 346" style="enable-background:new 0 0 1829.6 346;" xml:space="preserve">
<style type="text/css">
	.st0{fill:#FFFFFF;}
	.st1{fill:#1E1E1E;}
	.st2{fill:#1E1E1E;stroke:#1E1E1E;stroke-width:0.25;stroke-miterlimit:10;}
</style>
<path class="st0" d="M263.7,175h1290.1c36.9,0,66.8,38.3,66.8,85.5v0c0,47.2-29.9,85.5-66.8,85.5H263.7c-36.9,0-66.8-38.3-66.8-85.5
	v0C196.9,213.3,226.8,175,263.7,175z"/>
<path class="st1" d="M89,3.5h1651.6c47.2,0,85.5,38.3,85.5,85.5v0c0,47.2-38.3,85.5-85.5,85.5H89c-47.2,0-85.5-38.3-85.5-85.5v0
	C3.5,41.8,41.8,3.5,89,3.5z"/>
<path class="st0" d="M121.4,40.9c-27.2,0-49.2,22-49.2,49.2s22,49.2,49.2,49.2c27.2,0,49.2-22,49.2-49.2
	C170.7,63,148.7,40.9,121.4,40.9C121.5,40.9,121.4,40.9,121.4,40.9z M119.3,72h2.8c0.3-0.1,0.7-0.1,1,0c1.2,0.4,2.4,0.8,3.5,1.3
	c5.1,2.4,8.8,6.9,10.1,12.4c0.1,0.2,0.1,0.5,0,0.8v2.4c0,0.9,0,0.8-0.5,0.5h-2.8v-2.8c0.1-0.6,0.1-1.1,0-1.7c-0.6-2.3-2-4.4-3.8-6
	c-1.6-1.6-3.6-2.8-5.7-3.5c-0.5-0.1-1.1-0.1-1.6,0h-2.4l-0.5,0.1L119.3,72z M126.8,88.6v0.7h-3c-0.5,0-0.5,0-0.5-0.5
	c-0.2-1.5-1.3-2.7-2.7-3l-0.5,0.8c0,0-0.5,0-0.5-0.7v-3c1,0,2,0.2,2.9,0.5h1.3c0.7,0.4,1.2,0.9,1.7,1.6l0.9,1.4
	C126.6,87.1,126.8,87.8,126.8,88.6z M144,109.4v2.9c-0.4,1.2-1,2.4-1.9,3.3l-2.5,2.8c-0.3,0.4-0.7,0.8-1.2,0.9
	c-0.6,0.4-1.3,0.5-2,0.5H133c-1.2,0.1-2.4,0.1-3.5,0c-1.3,0.1-2.6-0.2-3.8-0.8c-2.3-0.5-4.6-1.3-6.8-2.2h-0.6l-1.3-0.5l-3.3-1.6
	c-1.5-0.8-2.9-1.7-4.2-2.7l-3.5-2.8l-3.3-3L100,103l-0.7-0.9l-0.4-0.5c-0.4-0.5-1.8-2.8-2.7-4.2l-1.6-3.2l-0.5-1
	c-0.4-1.1-0.8-2.2-1.2-3.3c-0.5-1.4-0.9-2.9-1.3-4.3v-1c0.1-0.6,0.1-1.2,0-1.8l-0.1-0.4c-0.5-1.2-0.9-2.5-1.2-3.8
	c-0.4-1.7,0.1-3.7-0.1-5.5v-1.3c1.2-1.8,2.6-3.4,4.2-4.8l1.3-1c0.6-0.4,1.2-0.7,1.8-0.8h4.6c2,0.7,3.7,2.2,4.6,4.2
	c0.3,0.7,0.6,1.5,0.7,2.2c0.5,1.7,1,3.7,1.4,5.6c0.4,1.8,0.2,3.6-0.7,5.2c-0.4,0.5-0.7,0.9-1,1.4l-2.1,1.6c-0.3,0.3-0.3,0.8,0,1.2
	l0.8,2.2c1,2.7,2.5,5.3,4.3,7.6c0.3,0.4,0.6,0.7,1,1c2.2,2.4,4.7,4.3,7.6,5.9l2.7,1.2c0.7,0.4,1.7,0.5,2.2,0.9
	c0.3,0.1,0.6,0.1,0.8,0l2-2c1.4-1.5,3.3-2.3,5.3-2.2c0.8,0.1,1.7,0.3,2.4,0.5l4.6,1.4h0.5c2.4,0.8,4.2,2.8,4.7,5.2
	C144.2,108.7,144.2,109.1,144,109.4L144,109.4z M148.6,89.6h-3.6V88l-0.5-4.3v-1.4c-0.2-0.8-0.5-1.7-0.9-2.4l-1.4-2.7l-1.1-1.6v-0.4
	c-1.7-2.3-3.7-4.4-6.1-6c-0.4-0.4-0.9-0.7-1.4-0.9c-0.8-0.6-1.8-1.1-2.7-1.4c-1.3-0.6-2.7-1.1-4.2-1.4c-1.8-0.5-3.6-0.7-5.5-0.7v-3
	c0-0.5,0-0.5,0.5-0.5h2c0.2-0.1,0.4-0.1,0.5,0c3.7,0.5,7.3,1.7,10.6,3.6c3.2,1.9,6.1,4.4,8.3,7.5l0.5,0.8c0.6,0.7,1.1,1.4,1.5,2.2
	c1.1,1.9,2,3.9,2.6,6c0.1,0.3,0.1,0.7,0,1c0.3,1.4,0.5,2.8,0.6,4.2v2.2l0.4-0.1L148.6,89.6z"/>
<path class="st2" d="M317.6,256.4v0.2c0,6.1-4.9,11-11,11h-0.5c-6.3-0.1-11.3-5.2-11.2-11.5c0.1-6.3,5.2-11.3,11.5-11.2
	C312.7,245,317.7,250.1,317.6,256.4z"/>
<path class="st1" d="M352.2,242.3c-10.5-25.4-39.7-37.5-65.1-27s-37.5,39.7-27,65.1c10.5,25.4,39.6,37.5,65,27
	C350.6,296.8,362.7,267.7,352.2,242.3C352.2,242.3,352.2,242.3,352.2,242.3z M329.4,257.2c-0.4,5.6-2.1,10.9-5,15.7
	c-2.5,4.7-5.6,9-9.3,12.8c-1.8,1.7-3.5,3.5-5.5,5.2c-0.7,0.6-1.6,1-2.6,1.2h-1.8c-1.3-0.3-2.5-0.9-3.4-1.8
	c-6.5-5.9-11.9-13.1-15.7-21c-2.1-4-3.2-8.5-3.1-13.1c0-9.8,6.1-18.5,15.3-21.7c1.5-0.4,3.1-0.6,4.7-0.6h5.2c1,0.1,2.1,0.1,3.1,0
	c3.7,0.6,7.2,2.2,9.9,4.7l-0.1-0.1C326.7,243,329.7,250,329.4,257.2z"/>
<path class="st1" d="M443.1,235.4v10.8h-14.6v44.5h-13.5v-44.5h-14.6v-10.8H443.1z"/>
<path class="st1" d="M469.7,278.1l9.6-31.3h14.3l-15.6,43.9h-16.6l-15.6-43.9h14.4L469.7,278.1z"/>
<path class="st1" d="M499.7,289.2c-1.5-1.3-2.3-3.2-2.2-5.2c0-2,0.8-3.9,2.2-5.3c1.6-1.4,3.7-2.2,5.8-2.1c2.1-0.1,4.2,0.7,5.7,2.1
	c1.5,1.4,2.3,3.3,2.2,5.3c0,2-0.8,3.8-2.2,5.2c-1.6,1.4-3.6,2.2-5.7,2.1C503.3,291.4,501.3,290.6,499.7,289.2z"/>
<path class="st1" d="M535.3,245.7v-12.5h21.8v57.4h-14v-44.9H535.3z"/>
<path class="st1" d="M568.3,277.9c5.1-4.2,9.2-7.7,12.2-10.5c2.8-2.6,5.3-5.4,7.5-8.6c1.9-2.5,3-5.6,3.1-8.7c0.1-1.8-0.4-3.6-1.5-5
	c-1.1-1.3-2.8-1.9-4.5-1.8c-1.8-0.1-3.6,0.8-4.7,2.2c-1.2,1.9-1.8,4.1-1.7,6.3h-13c0-3.9,0.9-7.8,2.9-11.2c1.7-2.9,4.2-5.2,7.2-6.6
	c3.1-1.4,6.5-2.2,9.9-2.1c6.2,0,11,1.6,14.1,4.8c3.2,3.2,4.8,7.4,4.8,12.5c0,5.7-2.1,11.2-5.8,15.6c-4.3,5.2-9.2,9.9-14.6,14h21.2
	v10.9h-39.5v-10C567.6,278.5,568.4,277.8,568.3,277.9z"/>
<path class="st1" d="M647.9,243.3l-19.8,47.4h-13.8l20-45.9h-24.5v-11.5h38L647.9,243.3z"/>
<path class="st1" d="M722.8,256.2l-2.2,10.3h9.5v12.1h-12l-2.6,12h-12.6l2.6-12h-13.1l-2.6,12h-12.6l2.6-12h-11.6v-12.1h14.2
	l2.2-10.3h-11.4v-12.1H687l2.5-11.6h12.6l-2.5,11.6h13.1l2.5-11.6h12.6l-2.5,11.6h9.8v12.1H722.8z M710.2,256.2h-13.1l-2.2,10.3H708
	L710.2,256.2z"/>
<path class="st1" d="M739.8,245.7v-12.5h21.8v57.4h-14v-44.9H739.8z"/>
<path class="st1" d="M776.7,236.4c3.5-3,8.2-4.6,14.1-4.6c3.5-0.1,6.9,0.6,10.1,2c5.3,2.4,8.7,7.7,8.5,13.5c0.3,5.7-3.2,11-8.7,12.9
	v0.3c2.8,0.9,5.3,2.6,7.1,5c1.8,2.6,2.7,5.7,2.6,8.9c0.1,3-0.7,6-2.2,8.6c-1.6,2.5-3.8,4.6-6.5,5.9c-3.2,1.5-6.7,2.2-10.2,2.1
	c-6.3,0-11.3-1.5-15.1-4.6c-3.7-3.1-5.7-7.8-5.9-14h13.1c-0.1,2,0.7,4,2,5.5c1.5,1.4,3.5,2.1,5.5,2c1.8,0.1,3.5-0.5,4.8-1.8
	c1.2-1.3,1.8-3,1.7-4.7c0-2.5-0.8-4.3-2.4-5.5c-1.6-1.1-4.2-1.7-7.7-1.7h-2.6v-10.9h2.5c2.2,0.1,4.5-0.4,6.5-1.4
	c1.6-0.9,2.5-2.6,2.5-4.9c0.1-1.6-0.5-3.2-1.6-4.4c-1.2-1.1-2.7-1.7-4.3-1.6c-1.7-0.1-3.3,0.5-4.4,1.8c-1,1.3-1.6,2.9-1.7,4.5h-13.1
	C771.4,243.8,773.3,239.5,776.7,236.4z"/>
<path class="st1" d="M820.3,277.9c5.1-4.2,9.2-7.7,12.2-10.5c2.8-2.6,5.3-5.4,7.5-8.6c1.9-2.5,3-5.6,3.1-8.7c0.1-1.8-0.4-3.6-1.5-5
	c-1.1-1.3-2.8-1.9-4.5-1.8c-1.8-0.1-3.6,0.8-4.7,2.2c-1.2,1.9-1.8,4.1-1.7,6.3h-13c0-3.9,1-7.8,2.9-11.2c1.7-2.9,4.2-5.2,7.2-6.6
	c3.1-1.4,6.5-2.2,9.9-2.1c6.3,0,11,1.6,14.1,4.8c3.2,3.2,4.8,7.4,4.8,12.5c0,5.7-2.1,11.2-5.7,15.6c-4.3,5.2-9.2,9.9-14.6,14h21.2
	v10.9h-39.5v-10C819.7,278.5,820.5,277.8,820.3,277.9z"/>
<path class="st1" d="M883.5,248c2.5-1.3,5.3-1.9,8.1-1.9c3.5,0,6.9,0.9,9.8,2.8c3,1.9,5.5,4.6,7,7.9c3.4,7.6,3.4,16.2,0,23.8
	c-1.5,3.3-4,6-7,8c-2.9,1.9-6.4,2.8-9.8,2.8c-2.8,0.1-5.6-0.6-8.1-1.9c-2.2-1.1-4.1-2.8-5.4-4.9v6.1h-13.5v-58.2h13.5V253
	C879.4,250.8,881.3,249.1,883.5,248z M894.5,260.7c-1.8-1.9-4.3-2.9-6.9-2.9c-2.6,0-5.1,1-6.8,2.9c-3.7,4.6-3.7,11.3,0,15.9
	c1.8,1.9,4.2,3,6.8,2.9c2.6,0,5.1-1,6.8-3c2-2.2,3-5.1,2.8-8C897.5,265.7,896.5,262.9,894.5,260.7L894.5,260.7z"/>
<path class="st1" d="M942.9,244.3c-1.3-1-2.9-1.6-4.5-1.5c-2.7-0.1-5.3,1.4-6.5,3.9c-1.3,2.6-2,6.7-2,12.3c1.2-1.9,3-3.4,5-4.3
	c2.2-1.1,4.7-1.6,7.2-1.6c5.1,0,9.3,1.6,12.4,4.9c3.1,3.3,4.7,7.8,4.6,13.6c0.1,3.5-0.7,7-2.3,10.1c-1.5,2.9-3.9,5.2-6.8,6.8
	c-3.2,1.7-6.9,2.5-10.5,2.4c-8.1,0-13.7-2.5-16.8-7.6c-3.1-5.1-4.7-12.3-4.7-21.8c0-10,1.7-17.4,5-22.2c3.3-4.8,8.7-7.3,16-7.3
	c3.5-0.1,6.9,0.7,10,2.3c2.6,1.4,4.7,3.5,6.1,6.1c1.4,2.5,2.2,5.4,2.5,8.3h-12.5C944.9,247.1,944.1,245.5,942.9,244.3z M933.3,265.8
	c-1.6,1.5-2.4,3.6-2.2,5.7c-0.1,2.2,0.6,4.3,2.1,5.9c1.6,1.5,3.8,2.3,5.9,2.1c2,0.1,4-0.7,5.5-2.1c1.4-1.6,2.1-3.6,2-5.7
	c0.1-2.1-0.6-4.2-2-5.8c-1.5-1.5-3.6-2.3-5.7-2.1C936.8,263.8,934.8,264.5,933.3,265.8L933.3,265.8z"/>
<path class="st1" d="M967.2,280.4v-10.9l24.9-35.6h15v34.8h6.4v11.6h-6.5v10.2h-13.5v-10.2H967.2z M994.6,248.8l-13.2,20h13.2V248.8
	z"/>
<path class="st1" d="M1059.7,289.8c-2.6-1.1-4.8-3-6.5-5.3c-1.6-2.2-2.4-4.8-2.5-7.6h5.8c0.3,2.7,1.5,5.2,3.5,7c2.1,2,5.2,3,9.2,3
	c3.7,0,6.7-1,8.8-2.9c2.1-1.8,3.3-4.5,3.3-7.3c0.1-2.1-0.5-4.1-1.8-5.7c-1.2-1.4-2.7-2.5-4.5-3.2c-2.4-0.9-4.9-1.7-7.4-2.3
	c-3-0.8-5.9-1.7-8.7-2.9c-2.2-1-4.1-2.5-5.5-4.4c-1.5-2-2.3-4.7-2.3-8.1c0-2.7,0.7-5.3,2.2-7.6c1.5-2.3,3.7-4.1,6.2-5.2
	c2.9-1.3,6-2,9.2-1.9c5.1,0,9.2,1.2,12.3,3.7c3,2.3,5,5.8,5.4,9.6h-6c-0.5-2.4-1.8-4.5-3.7-6c-2.1-1.8-4.9-2.6-8.5-2.6
	c-3-0.1-5.9,0.8-8.3,2.6c-2.2,1.7-3.4,4.4-3.3,7.2c-0.1,2,0.5,4,1.8,5.6c1.2,1.4,2.8,2.5,4.5,3.2c2.4,0.9,4.9,1.7,7.4,2.4
	c2.9,0.8,5.8,1.8,8.7,3c2.2,1,4.1,2.5,5.6,4.5c1.6,2.3,2.4,5.2,2.3,8c0,2.6-0.7,5.1-2,7.3c-1.5,2.4-3.6,4.3-6.1,5.6
	c-3,1.5-6.3,2.2-9.6,2.1C1066,291.7,1062.7,291.1,1059.7,289.8z"/>
<path class="st1" d="M1134.8,248.2v43h-5.5v-7.6c-1.2,2.6-3.3,4.8-5.8,6.1c-2.7,1.4-5.7,2.2-8.8,2.1c-4.7,0.2-9.2-1.5-12.6-4.8
	c-3.2-3.2-4.8-7.8-4.8-13.9v-25.1h5.4v24.5c0,4.7,1.2,8.2,3.5,10.7c2.3,2.5,5.5,3.7,9.6,3.7c3.7,0.2,7.3-1.3,9.9-3.9
	c2.5-2.6,3.7-6.5,3.7-11.6v-23.4H1134.8z"/>
<path class="st1" d="M1159.4,250.4c3.2-1.9,6.8-2.9,10.5-2.8c3.7-0.1,7.3,0.9,10.6,2.7c3.1,1.8,5.6,4.5,7.3,7.7
	c1.8,3.6,2.7,7.6,2.6,11.6c0.1,4-0.8,8-2.6,11.6c-1.6,3.2-4.2,5.9-7.3,7.8c-3.2,1.9-6.8,2.8-10.5,2.8c-3.7,0.1-7.4-0.9-10.6-2.8
	c-2.8-1.7-5.1-4.3-6.5-7.3v9.5h-5.4v-58.2h5.4v24.8C1154.3,254.7,1156.5,252.2,1159.4,250.4z M1182.7,260.4
	c-1.3-2.5-3.3-4.6-5.7-5.9c-2.5-1.4-5.3-2.1-8.2-2c-2.8,0-5.6,0.7-8.1,2.1c-2.5,1.4-4.5,3.5-5.8,6.1c-2.8,5.8-2.8,12.5,0,18.3
	c1.3,2.5,3.3,4.6,5.8,6.1c2.4,1.4,5.2,2.2,8.1,2.1c2.9,0,5.7-0.7,8.2-2.1c2.5-1.4,4.4-3.5,5.7-6.1c1.4-2.9,2.2-6,2.1-9.2
	C1184.9,266.4,1184.1,263.2,1182.7,260.4L1182.7,260.4z"/>
<path class="st1" d="M1200.6,258c1.6-3.2,4.2-5.9,7.3-7.7c3.2-1.8,6.9-2.8,10.6-2.7c3.7-0.1,7.4,0.9,10.6,2.8c2.8,1.7,5,4.2,6.4,7.2
	v-9.4h5.5v43h-5.5v-9.5c-1.4,3-3.7,5.5-6.5,7.3c-3.2,2-6.8,3-10.6,2.9c-3.7,0.1-7.3-0.9-10.5-2.8c-3.1-1.8-5.7-4.5-7.3-7.8
	c-1.8-3.6-2.7-7.6-2.6-11.6C1197.9,265.6,1198.8,261.6,1200.6,258z M1233.4,260.5c-1.3-2.5-3.3-4.6-5.8-6.1
	c-2.4-1.4-5.2-2.1-8.1-2.1c-2.9-0.1-5.7,0.6-8.2,2c-2.4,1.4-4.4,3.5-5.7,5.9c-1.5,2.9-2.2,6-2.1,9.2c-0.1,3.2,0.6,6.4,2.1,9.2
	c1.3,2.5,3.3,4.6,5.7,6.1c2.5,1.4,5.3,2.1,8.2,2.1c2.8,0,5.6-0.7,8.1-2.1c2.5-1.4,4.5-3.5,5.8-6.1
	C1236.2,273,1236.2,266.3,1233.4,260.5L1233.4,260.5z"/>
<path class="st1" d="M1258.7,282l-8.2,20.6h-3.8l5.8-20.6H1258.7z"/>
<path class="st1" d="M1322.4,267.5c2.1,2.5,3.3,5.7,3.2,9c0,2.7-0.7,5.3-2.1,7.5c-1.5,2.3-3.6,4.1-6.1,5.3c-3,1.4-6.3,2-9.6,1.9h-19
	v-55h18.5c5.6,0,9.8,1.3,12.7,3.9c2.9,2.5,4.5,6.2,4.4,10c0.1,3-0.8,6-2.8,8.3c-1.9,2.2-4.3,3.7-7.1,4.5
	C1317.7,263.4,1320.4,265,1322.4,267.5z M1294.3,260.5h12.8c3.7,0,6.6-0.9,8.6-2.6c2-1.8,3.2-4.5,3-7.3c0.1-2.7-1-5.4-3-7.2
	c-2-1.7-4.9-2.6-8.8-2.6h-12.6V260.5z M1316.8,283.7c2.3-1.9,3.5-4.8,3.3-7.8c0.1-3-1.2-6-3.5-7.9c-2.3-2-5.5-3-9.4-3h-12.9v21.5
	h13.1C1311.4,286.5,1314.6,285.6,1316.8,283.7L1316.8,283.7z"/>
<path class="st1" d="M1343.7,289.1c-3.2-1.8-5.9-4.5-7.6-7.7c-1.9-3.6-2.9-7.6-2.8-11.7c-0.1-4.1,0.9-8.1,2.8-11.7
	c1.8-3.2,4.5-5.9,7.7-7.7c3.3-1.8,7.1-2.8,10.9-2.7c3.8-0.1,7.6,0.9,11,2.7c3.3,1.8,5.9,4.5,7.7,7.7c3.7,7.3,3.7,16,0,23.3
	c-1.8,3.3-4.5,6-7.8,7.8c-3.4,1.8-7.2,2.8-11,2.7C1350.8,291.9,1347,290.9,1343.7,289.1z M1362.5,285.1c2.5-1.3,4.5-3.4,5.9-5.8
	c1.6-2.9,2.4-6.2,2.2-9.6c0.1-3.3-0.6-6.6-2.2-9.6c-1.3-2.5-3.4-4.5-5.8-5.8c-4.9-2.6-10.8-2.6-15.7,0c-2.5,1.3-4.5,3.3-5.8,5.8
	c-2.9,6-2.9,13.1,0,19.1c1.3,2.5,3.3,4.5,5.8,5.8c2.4,1.3,5.1,2,7.8,1.9C1357.3,287,1360,286.3,1362.5,285.1L1362.5,285.1z"/>
<path class="st1" d="M1414.9,250.4c2.8,1.7,5.1,4.2,6.4,7.2v-9.4h5.5v44.1c0.1,3.7-0.8,7.3-2.6,10.5c-1.7,3-4.1,5.4-7.1,7
	c-3.2,1.7-6.8,2.5-10.4,2.5c-5.5,0-10.1-1.3-13.7-3.9c-3.6-2.5-6-6.4-6.8-10.7h5.4c0.9,2.9,2.8,5.5,5.4,7.2c2.9,1.9,6.3,2.8,9.7,2.7
	c2.6,0,5.2-0.6,7.5-1.8c2.2-1.2,4-3,5.2-5.2c1.3-2.5,2-5.3,1.9-8.2v-10.6c-1.4,3-3.7,5.5-6.5,7.3c-3.1,2-6.8,3-10.5,2.9
	c-3.7,0.1-7.4-0.9-10.6-2.8c-3.1-1.8-5.7-4.5-7.3-7.8c-1.8-3.6-2.7-7.6-2.6-11.6c-0.1-4,0.8-8,2.6-11.6c1.6-3.2,4.2-5.9,7.3-7.7
	c3.2-1.8,6.9-2.8,10.6-2.7C1408,247.5,1411.7,248.5,1414.9,250.4z M1419.2,260.5c-1.3-2.5-3.3-4.6-5.8-6.1c-2.4-1.4-5.2-2.1-8.1-2.1
	c-2.9-0.1-5.7,0.6-8.2,2c-2.4,1.4-4.4,3.5-5.7,5.9c-1.5,2.9-2.2,6-2.1,9.2c-0.1,3.2,0.6,6.4,2.1,9.2c1.3,2.5,3.3,4.6,5.7,6.1
	c2.5,1.4,5.3,2.1,8.2,2.1c2.8,0,5.6-0.7,8.1-2.1c2.5-1.4,4.5-3.5,5.8-6.1C1422,273,1422,266.3,1419.2,260.5L1419.2,260.5z"/>
<path class="st1" d="M1447.3,289.1c-3.2-1.8-5.9-4.5-7.6-7.7c-1.9-3.6-2.9-7.6-2.8-11.7c-0.1-4.1,0.9-8.1,2.8-11.7
	c1.8-3.2,4.5-5.9,7.7-7.7c3.4-1.8,7.1-2.8,10.9-2.7c3.8-0.1,7.6,0.9,11,2.7c3.3,1.8,5.9,4.5,7.7,7.7c3.7,7.3,3.7,16,0,23.3
	c-1.8,3.3-4.5,6-7.8,7.8c-3.4,1.8-7.2,2.8-11,2.7C1454.5,291.9,1450.7,290.9,1447.3,289.1z M1466.1,285.1c2.5-1.3,4.5-3.4,5.9-5.8
	c1.6-2.9,2.4-6.2,2.2-9.6c0.1-3.3-0.7-6.6-2.2-9.6c-1.3-2.5-3.3-4.5-5.8-5.8c-4.9-2.6-10.8-2.6-15.7,0c-2.5,1.3-4.5,3.4-5.8,5.8
	c-2.9,6-2.9,13.1,0,19.1c1.3,2.5,3.3,4.5,5.8,5.8c2.4,1.3,5.1,2,7.8,1.9C1461,287,1463.7,286.3,1466.1,285.1L1466.1,285.1z"/>
<path class="st1" d="M1497.1,252.8v26.7c0,2.6,0.5,4.4,1.5,5.4s2.8,1.5,5.3,1.5h5v4.7h-5.9c-3.9,0-6.8-0.9-8.7-2.7
	c-1.9-1.8-2.8-4.8-2.8-8.9v-26.7h-6v-4.6h6v-10.8h5.6v10.8h11.8v4.6L1497.1,252.8z"/>
<path class="st1" d="M1518.1,258c1.6-3.2,4.2-5.9,7.3-7.7c3.2-1.8,6.9-2.8,10.6-2.7c3.7-0.1,7.4,0.9,10.6,2.8c2.8,1.7,5,4.2,6.4,7.2
	v-9.4h5.5v43h-5.5v-9.5c-1.4,3-3.7,5.5-6.5,7.3c-3.2,2-6.9,3-10.6,2.9c-3.7,0.1-7.3-0.9-10.5-2.8c-3.1-1.8-5.7-4.5-7.3-7.8
	c-1.8-3.6-2.7-7.6-2.6-11.6C1515.4,265.6,1516.3,261.6,1518.1,258z M1550.9,260.5c-1.3-2.5-3.3-4.6-5.8-6.1
	c-2.4-1.4-5.2-2.1-8.1-2.1c-2.9-0.1-5.7,0.6-8.2,2c-2.4,1.4-4.4,3.5-5.7,5.9c-1.5,2.9-2.2,6-2.1,9.2c-0.1,3.2,0.6,6.4,2.1,9.2
	c1.3,2.5,3.3,4.6,5.7,6.1c2.5,1.4,5.3,2.1,8.2,2.1c2.8,0,5.6-0.7,8.1-2.1c2.5-1.4,4.5-3.5,5.8-6.1
	C1553.7,273,1553.7,266.3,1550.9,260.5L1550.9,260.5z M1545.6,235.5l-16.1,9.4v-4.2l16.1-10.1V235.5z"/>
<path class="st1" d="M1029.7,290.3l-8.2,20.6h-3.8l5.8-20.6H1029.7z"/>
<path class="st0" d="M262,66.1h-31v20.2c1.6-2,3.6-3.6,6-4.6c2.7-1.2,5.6-1.8,8.6-1.8c4.9,0,8.9,1,11.9,3.1c2.9,1.9,5.2,4.6,6.6,7.9
	c2.8,7,2.6,14.8-0.4,21.6c-1.6,3.3-4.1,6.1-7.3,8c-3.7,2.1-7.9,3.1-12.1,2.9c-6.2,0-11.2-1.6-15-4.8c-3.9-3.2-6.4-7.7-7-12.7h7.9
	c0.6,3.1,2.3,5.9,4.9,7.9c2.7,2,6,3,9.4,2.8c4.7,0,8.2-1.4,10.5-4.2c2.3-2.8,3.5-6.5,3.5-11.1c0-4.6-1.2-8.1-3.5-10.7
	s-5.8-3.8-10.4-3.8c-2.9-0.1-5.8,0.7-8.2,2.2c-2.3,1.5-4.1,3.6-5.1,6.1h-7.6v-36H262V66.1z"/>
<path class="st0" d="M282.8,62.5c3.8-3.1,8.7-4.6,14.7-4.6c3.6-0.1,7.1,0.6,10.4,2.2c2.7,1.3,5,3.4,6.6,5.9c1.5,2.5,2.3,5.4,2.2,8.4
	c0.1,3.4-1,6.8-3.1,9.5c-2,2.6-4.9,4.4-8.2,5.1v0.4c3.6,0.8,6.8,2.7,9.1,5.6c2.2,2.8,3.4,6.4,3.4,10.9c0,3.2-0.8,6.3-2.3,9
	c-1.6,2.8-4,5-6.9,6.3c-3.5,1.6-7.2,2.4-11,2.3c-6.2,0-11.4-1.6-15.4-4.9c-4-3.3-6.2-7.9-6.7-13.9h7.8c0.3,3.3,1.9,6.4,4.3,8.7
	c2.5,2.2,5.8,3.4,9.9,3.4c4.1,0,7.3-1.1,9.4-3.2c2.2-2.2,3.3-5.2,3.2-8.3c0-4.4-1.5-7.6-4.4-9.6s-7.4-2.9-13.3-2.9h-2v-6.7h2.1
	c5.4-0.1,9.5-1,12.3-2.7s4.1-4.4,4.1-8.1c0.1-2.8-1-5.6-3-7.5c-2-1.9-4.9-2.8-8.7-2.8c-3.2-0.2-6.3,0.9-8.8,2.8
	c-2.3,1.9-3.7,4.6-4,7.6h-7.9C277,69.8,279.1,65.6,282.8,62.5z"/>
<path class="st0" d="M368.1,65.4L343.5,123h-8.1l24.9-56.8h-34.1v-6.8h41.9V65.4z"/>
<path class="st0" d="M374.9,66.5v-7.3h16.6V123h-8.1V66.5H374.9z"/>
<path class="st0" d="M419.8,113.7c2.2,1.8,5.1,2.7,8.7,2.7c4.9,0,8.5-1.9,10.8-5.7c2.3-3.8,3.4-10.3,3.3-19.4
	c-1.3,2.7-3.5,4.9-6.2,6.2c-3,1.5-6.3,2.3-9.6,2.3c-3.7,0.1-7.3-0.8-10.6-2.4c-3.1-1.6-5.6-4.1-7.3-7.1c-1.9-3.5-2.8-7.4-2.7-11.3
	c0-6.3,1.8-11.4,5.5-15.2s8.8-5.8,15.6-5.8c8.3,0,14,2.7,17.4,8c3.3,5.3,5,13.3,5,24c0.1,6.2-0.5,12.4-2,18.4
	c-1.3,4.8-3.6,8.5-6.7,11s-7.5,3.8-13,3.8c-6,0-10.7-1.6-14.1-4.9c-3.4-3.3-5.4-7.7-5.7-12.4h7.4C416,108.9,417.5,111.7,419.8,113.7
	z M437.8,89.3c2.5-2.4,3.8-5.8,3.8-9.9c0-4.4-1.2-8-3.7-10.7c-2.5-2.7-6-4.1-10.4-4.1c-3.7-0.2-7.3,1.2-9.9,3.9
	c-2.5,2.8-3.8,6.5-3.6,10.2c0,4.3,1.2,7.7,3.6,10.3s5.9,3.9,10.5,3.9C431.7,93.1,435.2,91.8,437.8,89.3z"/>
<path class="st0" d="M465,84.2c-1.8-2.6-2.7-5.8-2.6-9c0-3,0.8-6,2.4-8.6c1.7-2.7,4.2-4.8,7.1-6.1c7.3-3,15.6-3,22.9,0
	c2.9,1.3,5.4,3.4,7.2,6.1c1.6,2.6,2.5,5.6,2.4,8.6c0.1,3.2-0.9,6.4-2.7,9c-1.9,2.6-4.5,4.6-7.5,5.7c3.5,1,6.5,3,8.7,5.9
	c2.2,2.9,3.3,6.5,3.2,10.1c0.1,3.5-0.9,7-2.8,10c-2,2.9-4.8,5.2-8,6.6c-3.7,1.6-7.8,2.4-11.9,2.3c-4.1,0.1-8.1-0.7-11.8-2.3
	c-3.2-1.4-6-3.7-7.9-6.6c-1.9-3-2.9-6.5-2.8-10c-0.1-3.7,1-7.2,3.1-10.2c2.2-2.9,5.2-4.9,8.7-5.8C469.6,88.7,467,86.7,465,84.2z
	 M472.6,96.4c-2.8,2-4.1,5.1-4.1,9.2c-0.1,3.5,1.3,6.8,4,9.1c2.7,2.3,6.3,3.4,10.8,3.4c4.6,0,8.1-1.1,10.8-3.4
	c2.6-2.3,4.1-5.6,4-9.1c0-3.9-1.4-7-4.1-9.1c-2.7-2.1-6.3-3.1-10.7-3.1C479,93.3,475.4,94.4,472.6,96.4z M493.1,67.8
	c-2.4-1.9-5.6-2.9-9.7-2.9s-7.3,1-9.6,2.9c-2.4,1.9-3.5,4.7-3.5,8.4c-0.1,3.1,1.2,6.1,3.7,8c5.7,4,13.4,4,19.1,0
	c2.4-1.9,3.8-4.9,3.7-8C496.6,72.5,495.4,69.8,493.1,67.8z"/>
<path class="st0" d="M520.8,84.2c-1.8-2.6-2.7-5.8-2.7-9c0-3,0.8-6,2.4-8.6c1.7-2.7,4.2-4.8,7.1-6.1c7.3-3,15.6-3,22.9,0
	c2.9,1.3,5.4,3.4,7.2,6.1c1.6,2.6,2.5,5.6,2.4,8.6c0.1,3.2-0.9,6.4-2.7,9c-1.9,2.6-4.5,4.6-7.5,5.7c3.5,1,6.5,3,8.7,5.9
	c2.2,2.9,3.3,6.5,3.2,10.1c0.1,3.5-0.9,7-2.8,10c-2,2.9-4.8,5.2-8,6.6c-3.8,1.6-7.8,2.4-11.9,2.3c-4.1,0.1-8.1-0.7-11.8-2.3
	c-3.2-1.4-5.9-3.7-7.9-6.6c-1.9-3-2.9-6.5-2.8-10c-0.1-3.6,1-7.2,3.2-10.2c2.2-2.9,5.2-4.9,8.7-5.8
	C525.4,88.7,522.7,86.8,520.8,84.2z M528.4,96.4c-2.8,2-4.2,5.1-4.2,9.2c-0.1,3.5,1.3,6.8,4,9.1c2.7,2.3,6.3,3.4,10.8,3.4
	s8.1-1.1,10.8-3.4c2.7-2.3,4.1-5.6,4-9.1c0-3.9-1.4-7-4.1-9.1c-2.7-2.1-6.3-3.1-10.7-3.1C534.8,93.3,531.2,94.4,528.4,96.4z
	 M548.8,67.8c-2.3-1.9-5.6-2.9-9.7-2.9s-7.3,1-9.6,2.9c-2.4,1.9-3.5,4.7-3.5,8.4c-0.1,3.1,1.2,6.1,3.7,8c5.7,4,13.4,4,19.1,0
	c2.4-1.9,3.8-4.9,3.7-8C552.4,72.5,551.2,69.7,548.8,67.8z"/>
<path class="st0" d="M627.7,87.7v5.2h-34.4v-5.2H627.7z"/>
<path class="st0" d="M671.8,61.9c3.9-3.2,8.9-4.8,15.2-4.8c3.8-0.1,7.6,0.7,11,2.2c5.8,2.6,9.5,8.5,9.3,14.8
	c0.1,3.4-0.9,6.7-2.9,9.4c-1.7,2.4-4.1,4.2-6.8,5.2v0.3c3.2,0.9,6,2.9,8,5.7c2,3.1,3,6.7,2.9,10.4c0.1,3.3-0.8,6.6-2.4,9.4
	c-1.7,2.8-4.2,5.1-7.2,6.5c-3.6,1.6-7.4,2.4-11.4,2.3c-6.7,0-12.1-1.7-16.3-5c-4.2-3.3-6.4-8.3-6.6-14.8h12c0,2.6,1.1,5.1,3,6.9
	c2.1,1.8,4.9,2.8,7.7,2.6c3,0,5.3-0.8,6.9-2.5c1.6-1.8,2.5-4.1,2.4-6.5c0-3.5-1.1-6.1-3.3-7.6s-5.7-2.3-10.4-2.3h-2.6V84.1h2.6
	c8.4,0,12.5-2.8,12.5-8.4c0.1-2.2-0.7-4.4-2.3-5.9c-1.5-1.4-3.7-2.1-6.5-2.1c-2.4-0.2-4.7,0.7-6.4,2.2c-1.5,1.5-2.4,3.6-2.6,5.7
	h-12.1C665.9,69.7,667.9,65.1,671.8,61.9z"/>
<path class="st0" d="M722.2,109.1c5.6-4.7,10.2-8.7,13.5-11.8c3.2-2.9,6-6.3,8.4-9.9c2.1-3,3.3-6.5,3.4-10.1c0.1-2.5-0.6-5-2.1-7.1
	c-1.4-1.7-3.6-2.6-6.5-2.6c-2.6-0.1-5.1,1-6.8,3c-1.6,2-2.4,4.7-2.5,8.1h-12c0.2-7.1,2.3-12.4,6.3-16.1c4-3.6,9-5.5,15.1-5.5
	c6.7,0,11.9,1.8,15.5,5.3c3.6,3.6,5.4,8.3,5.4,14.1c0,4.6-1.3,9.2-3.7,13.2c-2.3,4-5.2,7.7-8.5,10.9c-3.2,3.1-7.3,6.8-12.5,11.2
	h26.1v10.3h-43.6V113L722.2,109.1z"/>
<path class="st0" d="M767.6,70V58.6h21.3V123h-12.7V70H767.6z"/>
<path class="st0" d="M800.5,110.5v-9.7l28.9-41.4h14.4v40.3h7.8v10.8h-7.8V123h-12.4v-12.5H800.5z M832.2,72.7l-18.1,27h18.1V72.7z"
	/>
<path class="st0" d="M861.4,74.7c0-3.1,0.8-6.1,2.4-8.7c1.8-2.8,4.3-4.9,7.3-6.3c7.7-3.1,16.3-3.1,24,0c3,1.3,5.5,3.5,7.3,6.3
	c1.6,2.6,2.5,5.6,2.4,8.7c0.1,3-0.8,6-2.4,8.5c-1.6,2.4-3.8,4.4-6.4,5.7c3.1,1.3,5.7,3.4,7.6,6.2c1.9,2.9,2.8,6.2,2.7,9.6
	c0.1,3.7-1,7.4-3,10.5c-2.1,3-5,5.4-8.3,6.8c-3.8,1.6-7.8,2.4-11.9,2.4c-4.1,0.1-8.1-0.7-11.9-2.4c-3.4-1.5-6.2-3.8-8.3-6.8
	c-2.1-3.1-3.1-6.7-3-10.5c-0.1-3.4,0.9-6.8,2.7-9.7c1.9-2.8,4.5-4.9,7.6-6.1C864.4,85.9,861.4,81.1,861.4,74.7z M875,96.9
	c-2.1,1.8-3.3,4.5-3.1,7.3c-0.1,2.7,1,5.4,3,7.2c2.3,1.9,5.3,2.9,8.3,2.8c3.5,0,6.2-0.9,8.2-2.8c2-1.8,3.1-4.4,3-7.2
	c0.2-2.8-1-5.5-3.1-7.3c-2.3-1.8-5.2-2.7-8.1-2.6C880.2,94.2,877.3,95.1,875,96.9z M890.3,69.8c-2-1.7-4.5-2.5-7.1-2.4
	c-2.6-0.1-5.1,0.7-7,2.4c-1.8,1.8-2.8,4.3-2.6,6.8c-0.1,2.4,0.9,4.8,2.7,6.4c4.1,3.2,9.8,3.2,13.9,0c1.8-1.6,2.8-4,2.7-6.4
	C893.1,74,892.1,71.5,890.3,69.8L890.3,69.8z"/>
<path class="st0" d="M914.8,70V58.6h21.3V123h-12.7V70H914.8z"/>
<path class="st0" d="M991.6,69.3H963v15.1c1.4-1.7,3.3-3,5.3-3.8c2.3-1,4.8-1.5,7.3-1.5c4.7,0,8.6,1,11.6,3.1
	c2.9,1.9,5.2,4.7,6.5,7.9c1.4,3.3,2,6.8,2,10.3c0,6.8-1.9,12.2-5.8,16.3s-9.4,6.2-16.5,6.2c-6.7,0-12.1-1.7-16.1-5
	c-4-3.3-6.4-8-6.8-13.2h12c0.5,2.3,1.7,4.3,3.6,5.7c2.1,1.5,4.6,2.2,7.1,2.1c3.5,0,6.1-1.1,7.9-3.3c1.9-2.5,2.8-5.6,2.7-8.7
	c0-3.7-0.9-6.4-2.7-8.3s-4.4-2.9-7.9-2.9c-4.4-0.2-8.4,2.6-9.7,6.8h-11.8V58.4h39.9V69.3z"/>
<path class="st0" d="M1022.8,110.9c1.9,1.5,4.3,2.2,6.8,2.1c3.3,0.2,6.5-1.6,8-4.6c1.6-3,2.5-8.1,2.5-15.3c-1.5,2-3.4,3.5-5.7,4.4
	c-2.5,1.1-5.2,1.6-7.9,1.6c-3.5,0.1-7-0.8-10.2-2.3c-3-1.6-5.6-4-7.2-7c-1.9-3.5-2.8-7.3-2.7-11.3c0-6.5,1.9-11.7,5.8-15.6
	c3.9-3.9,9.2-5.8,15.9-5.8c8.4,0,14.3,2.7,17.7,8c3.4,5.3,5.2,13.4,5.2,24.2c0,7.7-0.7,13.9-2,18.8c-1.3,4.9-3.6,8.6-6.8,11.1
	c-3.2,2.5-7.6,3.8-13.1,3.8c-3.9,0.1-7.7-0.8-11.1-2.5c-2.9-1.5-5.3-3.8-7-6.6c-1.6-2.8-2.6-5.9-2.8-9.1h11.5
	C1019.9,107.2,1021,109.3,1022.8,110.9z M1036.1,86.2c1.8-2.1,2.8-4.8,2.7-7.6c0-3.5-0.9-6.2-2.8-8.1c-2-2-4.7-3-7.6-2.9
	c-2.8-0.1-5.6,1-7.6,3c-1.9,2.1-2.9,4.9-2.8,7.8c-0.1,2.8,0.8,5.5,2.7,7.6c1.8,2,4.5,3,8.1,3C1031.6,89.2,1034.2,88.2,1036.1,86.2z"
	/>
<path class="st0" d="M1103.8,69.3h-28.6v15.1c1.4-1.7,3.3-3,5.3-3.8c2.3-1,4.8-1.5,7.3-1.5c4.7,0,8.6,1,11.6,3.1
	c2.9,1.9,5.2,4.7,6.5,7.9c1.4,3.3,2,6.8,2,10.3c0,6.8-1.9,12.2-5.8,16.3s-9.3,6.2-16.4,6.2c-6.7,0-12.1-1.7-16.1-5
	c-4-3.3-6.4-8-6.8-13.2h12c0.5,2.3,1.7,4.3,3.6,5.7c2.1,1.5,4.6,2.2,7.1,2.1c3.5,0,6.1-1.1,7.9-3.3c1.9-2.5,2.8-5.6,2.7-8.7
	c0-3.7-0.9-6.4-2.7-8.3s-4.4-2.9-7.9-2.9c-4.4-0.2-8.4,2.6-9.7,6.8h-11.8V58.4h39.9L1103.8,69.3z"/>
<path class="st0" d="M1119.4,74.7c0-3.1,0.8-6.1,2.4-8.7c1.8-2.8,4.3-4.9,7.3-6.3c7.7-3.1,16.3-3.1,23.9,0c3,1.3,5.6,3.5,7.3,6.3
	c1.6,2.6,2.5,5.6,2.4,8.7c0.1,3-0.8,6-2.4,8.5c-1.6,2.4-3.8,4.4-6.4,5.7c3.1,1.3,5.7,3.4,7.6,6.2c1.9,2.9,2.8,6.2,2.7,9.6
	c0.1,3.7-1,7.4-3,10.5c-2.1,3-5,5.4-8.4,6.8c-3.8,1.6-7.8,2.4-11.9,2.4c-4.1,0.1-8.1-0.7-11.9-2.4c-3.4-1.5-6.2-3.8-8.3-6.8
	c-2-3.1-3.1-6.8-3-10.5c-0.1-3.4,0.9-6.8,2.7-9.7c1.9-2.8,4.5-4.9,7.6-6.1C1122.4,85.9,1119.4,81.1,1119.4,74.7z M1133,96.9
	c-2.1,1.8-3.3,4.5-3.1,7.3c-0.1,2.7,1,5.4,3,7.2c2.3,1.9,5.3,2.9,8.3,2.8c3.5,0,6.2-0.9,8.2-2.8c2-1.8,3.1-4.4,3-7.2
	c0.2-2.8-1-5.5-3.1-7.3c-2.3-1.8-5.2-2.7-8.1-2.6C1138.2,94.2,1135.3,95.1,1133,96.9z M1148.3,69.8c-2-1.7-4.5-2.5-7.1-2.4
	c-2.6-0.1-5.1,0.7-7,2.4c-1.8,1.8-2.8,4.3-2.6,6.8c-0.1,2.4,0.9,4.8,2.7,6.4c4.1,3.2,9.8,3.2,13.9,0c1.8-1.6,2.8-4,2.7-6.4
	C1151.1,74,1150.1,71.5,1148.3,69.8L1148.3,69.8z"/>
<path class="st0" d="M1234.4,86.3v10.4h-37.5V86.3H1234.4z"/>
<path class="st0" d="M1274.3,61.9c3.9-3.2,8.9-4.8,15.2-4.8c3.8-0.1,7.6,0.7,11,2.2c5.8,2.6,9.5,8.5,9.3,14.8
	c0.1,3.4-0.9,6.7-2.9,9.4c-1.7,2.4-4.1,4.2-6.8,5.2v0.3c3.2,0.9,6,2.9,8,5.7c2,3.1,3,6.7,2.9,10.4c0.1,3.3-0.8,6.6-2.4,9.4
	c-1.7,2.8-4.2,5.1-7.2,6.5c-3.6,1.6-7.4,2.4-11.4,2.3c-6.7,0-12.1-1.7-16.3-5c-4.2-3.3-6.4-8.3-6.6-14.8h12c0,2.6,1.1,5.1,3,6.9
	c2.1,1.8,4.9,2.8,7.7,2.6c3,0,5.3-0.8,6.9-2.5c1.6-1.8,2.5-4.1,2.4-6.5c0-3.5-1.1-6.1-3.4-7.6s-5.7-2.3-10.4-2.3h-2.6V84.1h2.6
	c8.4,0,12.6-2.8,12.6-8.4c0.1-2.2-0.7-4.4-2.2-5.9c-1.5-1.4-3.7-2.1-6.5-2.1c-2.4-0.2-4.7,0.7-6.4,2.2c-1.5,1.5-2.4,3.6-2.6,5.7
	H1268C1268.3,69.7,1270.4,65.1,1274.3,61.9z"/>
<path class="st0" d="M1319.3,70V58.6h21.3V123h-12.7V70H1319.3z"/>
<path class="st0" d="M1351.3,70V58.6h21.3V123h-12.7V70H1351.3z"/>
<path class="st0" d="M1388.7,109.1c5.7-4.7,10.2-8.7,13.5-11.8c3.2-2.9,6-6.3,8.4-9.9c2.1-3,3.3-6.5,3.4-10.1c0.1-2.5-0.6-5-2.1-7.1
	c-1.4-1.7-3.6-2.6-6.5-2.6c-2.6-0.1-5.1,1-6.8,3c-1.7,2.3-2.6,5.2-2.5,8.1h-12c0.2-7.1,2.3-12.4,6.3-16.1s9-5.5,15.2-5.5
	c6.7,0,11.9,1.8,15.5,5.3c3.6,3.6,5.4,8.3,5.4,14.1c0,4.6-1.3,9.2-3.7,13.2c-2.3,4-5.2,7.7-8.5,10.9c-3.2,3.1-7.3,6.8-12.5,11.2
	h26.1v10.3h-43.7V113L1388.7,109.1z"/>
<path class="st0" d="M1441.9,61.9c3.8-3.2,8.9-4.8,15.2-4.8c3.8-0.1,7.6,0.7,11,2.2c5.8,2.6,9.5,8.5,9.3,14.8
	c0.1,3.4-0.9,6.7-2.9,9.4c-1.7,2.4-4.1,4.2-6.8,5.2v0.3c3.2,0.9,6.1,2.9,8,5.7c2,3.1,3,6.7,2.9,10.4c0.1,3.3-0.8,6.6-2.4,9.4
	c-1.7,2.8-4.2,5.1-7.2,6.5c-3.6,1.6-7.4,2.4-11.4,2.3c-6.7,0-12.1-1.7-16.3-5c-4.2-3.3-6.4-8.3-6.6-14.8h12c0,2.6,1.1,5.1,3,6.9
	c2.1,1.8,4.9,2.8,7.7,2.6c3,0,5.3-0.8,6.9-2.5c1.6-1.8,2.5-4.1,2.4-6.5c0-3.5-1.1-6.1-3.3-7.6s-5.7-2.3-10.4-2.3h-2.6V84.1h2.6
	c8.4,0,12.5-2.8,12.6-8.4c0.1-2.2-0.7-4.4-2.3-5.9c-1.5-1.4-3.7-2.1-6.5-2.1c-2.4-0.2-4.7,0.7-6.4,2.2c-1.5,1.5-2.4,3.6-2.6,5.7
	h-12.1C1436,69.7,1438,65.1,1441.9,61.9z"/>
<path class="st0" d="M1486.9,70V58.6h21.3V123h-12.7V70H1486.9z"/>
<path class="st0" d="M1526,66c3.7-5.8,9.8-8.7,18.3-8.7c8.5,0,14.6,2.9,18.3,8.7c3.7,5.8,5.5,13.8,5.5,23.9s-1.8,18.2-5.5,24.1
	c-3.7,5.8-9.8,8.8-18.3,8.8s-14.6-2.9-18.3-8.7c-3.7-5.8-5.5-13.9-5.5-24.1S1522.3,71.7,1526,66z M1555.1,79
	c-0.4-2.7-1.6-5.2-3.4-7.3c-1.7-1.9-4.2-2.8-7.5-2.8s-5.8,0.9-7.5,2.8c-1.8,2.1-2.9,4.6-3.4,7.3c-0.6,3.6-0.9,7.3-0.8,11
	c-0.1,3.8,0.2,7.5,0.8,11.3c0.4,2.7,1.6,5.3,3.4,7.3c1.7,1.9,4.2,2.8,7.5,2.8s5.8-0.9,7.5-2.8c1.8-2.1,3-4.6,3.4-7.3
	c0.6-3.7,0.9-7.5,0.8-11.3C1556,86.3,1555.7,82.6,1555.1,79z"/>
<path class="st0" d="M1583.9,61.9c3.8-3.2,8.9-4.8,15.2-4.8c3.8-0.1,7.6,0.7,11,2.2c5.8,2.6,9.5,8.5,9.3,14.8
	c0.1,3.4-0.9,6.7-2.9,9.4c-1.7,2.4-4.1,4.2-6.8,5.2v0.3c3.2,0.9,6.1,2.9,8,5.7c2,3.1,3,6.7,2.9,10.4c0.1,3.3-0.8,6.6-2.4,9.4
	c-1.7,2.8-4.2,5.1-7.2,6.5c-3.6,1.6-7.4,2.4-11.4,2.3c-6.7,0-12.1-1.7-16.3-5c-4.2-3.3-6.4-8.3-6.6-14.8h12c0,2.6,1.1,5.1,3,6.9
	c2.1,1.8,4.9,2.8,7.7,2.6c3,0,5.3-0.8,6.9-2.5c1.6-1.8,2.5-4.1,2.4-6.5c0-3.5-1.1-6.1-3.3-7.6s-5.7-2.3-10.4-2.3h-2.6V84.1h2.6
	c8.4,0,12.5-2.8,12.6-8.4c0.1-2.2-0.7-4.4-2.3-5.9c-1.5-1.4-3.7-2.1-6.5-2.1c-2.4-0.2-4.7,0.7-6.4,2.2c-1.5,1.5-2.4,3.6-2.6,5.7
	h-12.1C1578,69.7,1580.1,65.1,1583.9,61.9z"/>
<path class="st0" d="M1673.8,69.3h-28.6v15.1c1.4-1.7,3.3-3,5.3-3.8c2.3-1,4.8-1.5,7.3-1.5c4.7,0,8.6,1,11.6,3.1
	c2.9,1.9,5.2,4.7,6.5,7.9c1.4,3.3,2,6.8,2,10.3c0,6.8-1.9,12.2-5.8,16.3c-3.9,4.1-9.3,6.2-16.5,6.2c-6.7,0-12.1-1.7-16.1-5
	c-4-3.3-6.4-8-6.8-13.2h12c0.5,2.3,1.7,4.3,3.6,5.7c2.1,1.5,4.6,2.2,7.1,2.1c3.5,0,6.1-1.1,7.9-3.3c1.9-2.5,2.8-5.6,2.7-8.7
	c0-3.7-0.9-6.4-2.7-8.3s-4.4-2.9-7.9-2.9c-4.4-0.2-8.4,2.6-9.7,6.8h-11.8V58.4h40L1673.8,69.3z"/>
<path class="st0" d="M1728.9,69.3h-27.4v15.1c1.4-1.7,3.1-3,5.1-3.8c2.2-1,4.6-1.5,7-1.5c4.5,0,8.2,1,11.1,3.1
	c2.8,1.9,4.9,4.7,6.2,7.9c1.3,3.3,1.9,6.8,1.9,10.3c0,6.8-1.8,12.2-5.5,16.3s-8.9,6.2-15.7,6.2c-6.4,0-11.5-1.7-15.4-5
	c-3.8-3.3-6.1-8-6.5-13.2h11.5c0.4,2.3,1.7,4.3,3.4,5.7c2,1.5,4.4,2.2,6.8,2.1c3.3,0,5.8-1.1,7.5-3.3c1.8-2.5,2.7-5.6,2.5-8.7
	c0-3.7-0.9-6.4-2.6-8.3c-1.7-1.9-4.2-2.9-7.6-2.9c-2.1-0.1-4.2,0.6-5.9,1.8c-1.6,1.3-2.8,3-3.4,5h-11.3V58.4h38.2L1728.9,69.3z"/>
</svg>
